;PTH Drill file created by EasyEDA 
M48
METRIC,LZ,000.000
;Holesize 1 = 1.000 METRIC
T01C1.000
;Holesize 2 = 1.200 METRIC
T02C1.200
;Holesize 3 = 1.231 METRIC
T03C1.231
;Holesize 4 = 1.701 METRIC
T04C1.701
;Holesize 5 = 2.000 METRIC
T05C2.000
%
G05
G90
T01
X+025999Y+029999
X+035999Y+029999
X+026045Y+022443
X+036045Y+022443
X+036047Y+038442
X+026047Y+038442
X+082001Y+073997
X+082001Y+059997
X+119999Y+059999
X+119999Y+074000
X+071000Y+077619
X+071000Y+062379
X+130997Y+077619
X+130997Y+062379
X+032000Y+083997
X+042000Y+083997
X+159999Y+084000
X+169999Y+084000
X+161001Y+049999
X+171001Y+049999
X+042002Y+046995
X+032002Y+046995
X+036047Y+014442
X+026047Y+014442
X+074999Y+082999
X+090999Y+082999
X+096961Y+102919
X+096961Y+086920
X+104581Y+102919
X+104581Y+086920
X+126805Y+083235
X+110806Y+083235
X+075500Y+048999
X+094501Y+048998
X+126499Y+048998
X+107498Y+049000
X+169000Y+044499
X+168998Y+025499
T02
X+114999Y+011998
X+114999Y+019498
X+161000Y+011998
X+161000Y+019499
X+183000Y+019999
X+183000Y+012499
X+083499Y+099999
X+083499Y+092499
X+118805Y+099999
X+118805Y+092499
X+037002Y+100998
X+037002Y+093498
X+165002Y+100998
X+165002Y+093497
X+183000Y+029997
X+183000Y+037498
X+136999Y+012001
X+136999Y+019500
T03
X+044190Y+017000
X+100070Y+017000
X+105189Y+034998
X+161069Y+034998
X+044190Y+034998
X+100070Y+034998
X+058000Y+103809
X+058000Y+047929
X+144000Y+103809
X+144000Y+047929
T04
X+015048Y+037442
X+015048Y+026442
X+015048Y+015441
X+037999Y+114999
X+049000Y+114999
X+059998Y+114999
X+014999Y+094999
X+014999Y+105998
X+014999Y+116998
X+164000Y+114999
X+153000Y+114999
X+141999Y+114999
X+185002Y+094001
X+185002Y+105001
X+185002Y+116000
X+115190Y+114997
X+122810Y+114997
X+086810Y+114999
X+079190Y+114999
X+015001Y+070999
X+015001Y+059999
X+015001Y+049000
X+185000Y+070996
X+185000Y+059997
X+185000Y+048997
X+014999Y+086998
X+014800Y+078900
X+184999Y+086249
X+184800Y+078148
T05
X+106333Y+075936
X+096333Y+075936
X+111633Y+070136
X+111683Y+063636
X+108533Y+057336
X+101333Y+055636
X+094133Y+057236
X+091033Y+070136
X+090983Y+063636
X+042208Y+075728
X+032208Y+075728
X+047508Y+069928
X+047558Y+063428
X+044408Y+057128
X+037208Y+055428
X+030008Y+057028
X+026908Y+069928
X+026858Y+063428
X+170209Y+075728
X+160209Y+075728
X+175509Y+069928
X+175559Y+063428
X+172409Y+057128
X+165209Y+055428
X+158009Y+057028
X+154909Y+069928
X+154859Y+063428
M30
