;NPTH Drill file created by EasyEDA 
M48
METRIC,LZ,000.000
;Holesize 1 = 2.032 METRIC
T01C2.032
;Holesize 2 = 2.701 METRIC
T02C2.701
;Holesize 3 = 3.000 METRIC
T03C3.000
%
G05
G90
T01
X+037999Y+125999
X+048999Y+125999
X+059999Y+125999
X+078999Y+125999
X+086999Y+125999
X+114999Y+125999
X+122999Y+125999
X+141999Y+125999
X+152999Y+125999
X+163999Y+125999
X+197999Y+115999
X+197999Y+104999
X+197999Y+093999
X+197999Y+085999
X+197999Y+077999
X+197999Y+070999
X+197999Y+059999
X+197999Y+048999
X+002002Y+014997
X+002002Y+025997
X+001999Y+036999
X+001999Y+048999
X+001999Y+059999
X+001999Y+070999
X+001999Y+078999
X+001999Y+086999
X+001999Y+094999
X+001999Y+105999
X+001999Y+116999
T02
X+053000Y+020000
X+053000Y+014000
X+059000Y+020000
X+059000Y+014000
X+066000Y+020000
X+066000Y+014000
X+072000Y+014000
X+072000Y+020000
X+079000Y+020000
X+079000Y+014000
X+085000Y+020000
X+085000Y+014000
X+091000Y+020000
X+091000Y+014000
X+113999Y+037998
X+113999Y+031998
X+119998Y+037998
X+119998Y+031998
X+126998Y+037998
X+126998Y+031998
X+132998Y+031998
X+132998Y+037998
X+139998Y+037998
X+139998Y+031998
X+145998Y+037998
X+145998Y+031998
X+151998Y+037998
X+151998Y+031998
X+053000Y+037998
X+053000Y+031998
X+059000Y+037998
X+059000Y+031998
X+066000Y+037998
X+066000Y+031998
X+072000Y+031998
X+072000Y+037998
X+079000Y+037998
X+079000Y+031998
X+085000Y+037998
X+085000Y+031998
X+091000Y+037998
X+091000Y+031998
X+061000Y+094999
X+055000Y+094999
X+061000Y+088999
X+055000Y+088999
X+061000Y+081999
X+055000Y+081999
X+055000Y+075999
X+061000Y+075999
X+061000Y+068999
X+055000Y+068999
X+061000Y+062999
X+055000Y+062999
X+061000Y+056999
X+055000Y+056999
X+147000Y+094999
X+141000Y+094999
X+147000Y+088999
X+141000Y+088999
X+147000Y+081999
X+141000Y+081999
X+141000Y+075999
X+147000Y+075999
X+147000Y+068999
X+141000Y+068999
X+147000Y+062999
X+141000Y+062999
X+147000Y+056999
X+141000Y+056999
T03
X+193999Y+005999
X+005999Y+005999
X+193999Y+121999
X+005999Y+121999
X+100999Y+114999
X+102001Y+039997
X+149001Y+048997
X+052999Y+048999
X+101001Y+005997
M30
