G04 ---------------------------- Layer name :TOP SILK LAYER*
G04 EasyEDA v5.8.22, Tue, 04 Dec 2018 11:43:46 GMT*
G04 7e299c6323ff4f129420c85f7de63bec*
G04 Gerber Generator version 0.2*
G04 Scale: 100 percent, Rotated: No, Reflected: No *
G04 Dimensions in millimeters *
G04 leading zeros omitted , absolute positions ,3 integer and 3 decimal *
%FSLAX33Y33*%
%MOMM*%
G90*
G71D02*

%ADD10C,0.254000*%
%ADD17C,0.228600*%
%ADD18C,0.304800*%
%ADD19C,0.609600*%
%ADD20C,0.406400*%
%ADD21C,0.177800*%
%ADD22C,0.100000*%
%ADD23C,0.203200*%
%ADD24C,0.127000*%
%ADD25C,0.152400*%

%LPD*%
G54D17*
G01X28460Y31371D02*
G01X33667Y31371D01*
G01X33667Y28628D01*
G01X28460Y28628D01*
G01X28460Y31371D01*
G01X33032Y31371D02*
G01X33032Y28628D01*
G54D10*
G01X28999Y29999D02*
G01X31998Y29999D01*
G01X31000Y31000D01*
G01X31000Y28999D01*
G01X31998Y29999D01*
G01X31998Y28999D01*
G01X31998Y29999D02*
G01X31998Y31000D01*
G01X31998Y29999D02*
G01X32499Y29999D01*
G01X27500Y29999D02*
G01X28498Y29999D01*
G01X28498Y28750D02*
G01X28498Y31249D01*
G01X33748Y29999D02*
G01X34500Y29999D01*
G54D17*
G01X28506Y23815D02*
G01X33713Y23815D01*
G01X33713Y21071D01*
G01X28506Y21071D01*
G01X28506Y23815D01*
G01X33078Y23815D02*
G01X33078Y21071D01*
G54D10*
G01X29044Y22443D02*
G01X32044Y22443D01*
G01X31046Y23444D01*
G01X31046Y21442D01*
G01X32044Y22443D01*
G01X32044Y21442D01*
G01X32044Y22443D02*
G01X32044Y23444D01*
G01X32044Y22443D02*
G01X32545Y22443D01*
G01X27546Y22443D02*
G01X28544Y22443D01*
G01X28544Y21193D02*
G01X28544Y23693D01*
G01X33794Y22443D02*
G01X34546Y22443D01*
G01X38046Y35443D02*
G01X38046Y41442D01*
G01X24048Y41442D01*
G01X24048Y35443D01*
G01X38046Y35443D01*
G01X114467Y22514D02*
G01X116194Y22514D01*
G01X115305Y21625D02*
G01X115305Y23301D01*
G01X160467Y22514D02*
G01X162194Y22514D01*
G01X161305Y21625D02*
G01X161305Y23301D01*
G01X183532Y9484D02*
G01X181805Y9484D01*
G01X182694Y10373D02*
G01X182694Y8696D01*
G01X84033Y89484D02*
G01X82306Y89484D01*
G01X83195Y90373D02*
G01X83195Y88696D01*
G01X119339Y89484D02*
G01X117612Y89484D01*
G01X118501Y90373D02*
G01X118501Y88696D01*
G01X78003Y74996D02*
G01X78003Y75996D01*
G01X78003Y75996D01*
G01X86001Y75996D01*
G01X86001Y57998D01*
G01X78003Y57998D01*
G01X78003Y75996D01*
G01X124000Y58999D02*
G01X124000Y58000D01*
G01X124000Y58000D01*
G01X116001Y58000D01*
G01X116001Y75999D01*
G01X124000Y75999D01*
G01X124000Y58000D01*
G01X71000Y75079D02*
G01X73540Y75079D01*
G01X73540Y64919D01*
G01X68460Y64919D01*
G01X68460Y75079D01*
G01X71000Y75079D01*
G01X71000Y64919D02*
G01X71000Y63903D01*
G01X71000Y75079D02*
G01X71000Y76095D01*
G01X130997Y75079D02*
G01X133537Y75079D01*
G01X133537Y64919D01*
G01X128457Y64919D01*
G01X128457Y75079D01*
G01X130997Y75079D01*
G01X130997Y64919D02*
G01X130997Y63903D01*
G01X130997Y75079D02*
G01X130997Y76095D01*
G54D17*
G01X34460Y85369D02*
G01X39667Y85369D01*
G01X39667Y82626D01*
G01X34460Y82626D01*
G01X34460Y85369D01*
G01X39032Y85369D02*
G01X39032Y82626D01*
G54D10*
G01X35001Y83997D02*
G01X38000Y83997D01*
G01X37000Y84998D01*
G01X37000Y82999D01*
G01X38000Y83997D01*
G01X38000Y82999D01*
G01X38000Y83997D02*
G01X38000Y84998D01*
G01X38000Y83997D02*
G01X38501Y83997D01*
G01X33500Y83997D02*
G01X34500Y83997D01*
G01X34500Y82748D02*
G01X34500Y85247D01*
G01X39751Y83997D02*
G01X40500Y83997D01*
G54D17*
G01X162460Y85371D02*
G01X167667Y85371D01*
G01X167667Y82628D01*
G01X162460Y82628D01*
G01X162460Y85371D01*
G01X167032Y85371D02*
G01X167032Y82628D01*
G54D10*
G01X162999Y84000D02*
G01X165999Y84000D01*
G01X165000Y85001D01*
G01X165000Y82999D01*
G01X165999Y84000D01*
G01X165999Y82999D01*
G01X165999Y84000D02*
G01X165999Y85001D01*
G01X165999Y84000D02*
G01X166499Y84000D01*
G01X161500Y84000D02*
G01X162501Y84000D01*
G01X162499Y82750D02*
G01X162499Y85250D01*
G01X167749Y84000D02*
G01X168501Y84000D01*
G54D17*
G01X163460Y51370D02*
G01X168667Y51370D01*
G01X168667Y48627D01*
G01X163460Y48627D01*
G01X163460Y51370D01*
G01X168032Y51370D02*
G01X168032Y48627D01*
G54D10*
G01X164001Y49999D02*
G01X167001Y49999D01*
G01X166000Y50997D01*
G01X166000Y48998D01*
G01X167001Y49999D01*
G01X167001Y48998D01*
G01X167001Y49999D02*
G01X167001Y50997D01*
G01X167001Y49999D02*
G01X167501Y49999D01*
G01X162500Y49999D02*
G01X163501Y49999D01*
G01X163501Y48749D02*
G01X163501Y51248D01*
G01X168751Y49999D02*
G01X169500Y49999D01*
G54D17*
G01X39542Y45623D02*
G01X34335Y45623D01*
G01X34335Y48366D01*
G01X39542Y48366D01*
G01X39542Y45623D01*
G01X34970Y45623D02*
G01X34970Y48366D01*
G54D10*
G01X39003Y46995D02*
G01X36001Y46995D01*
G01X37002Y45996D01*
G01X37002Y47995D01*
G01X36001Y46995D01*
G01X36001Y47995D01*
G01X36001Y46995D02*
G01X36001Y45996D01*
G01X36001Y46995D02*
G01X35503Y46995D01*
G01X40502Y46995D02*
G01X39501Y46995D01*
G01X39501Y48244D02*
G01X39501Y45745D01*
G01X34251Y46995D02*
G01X33502Y46995D01*
G01X37752Y90497D02*
G01X36024Y90497D01*
G01X36913Y91386D02*
G01X36913Y89710D01*
G01X165752Y90497D02*
G01X164025Y90497D01*
G01X164914Y91386D02*
G01X164914Y89710D01*
G01X182468Y40513D02*
G01X184195Y40513D01*
G01X183306Y39624D02*
G01X183306Y41300D01*
G01X136466Y22517D02*
G01X138193Y22517D01*
G01X137304Y21628D02*
G01X137304Y23304D01*
G01X38049Y11442D02*
G01X38049Y17442D01*
G01X24048Y17442D01*
G01X24048Y11442D01*
G01X38049Y11442D01*
G01X77000Y84998D02*
G01X77000Y80998D01*
G01X89001Y80998D01*
G01X89001Y84998D01*
G01X77000Y84998D01*
G01X77000Y82999D02*
G01X76499Y82999D01*
G01X88999Y82999D02*
G01X89499Y82999D01*
G01X98963Y100919D02*
G01X94962Y100919D01*
G01X94962Y88920D01*
G01X98963Y88920D01*
G01X98963Y100919D01*
G01X96961Y100919D02*
G01X96961Y101419D01*
G01X96961Y88920D02*
G01X96961Y88419D01*
G01X106583Y100919D02*
G01X102582Y100919D01*
G01X102582Y88920D01*
G01X106583Y88920D01*
G01X106583Y100919D01*
G01X104581Y100919D02*
G01X104581Y101419D01*
G01X104581Y88920D02*
G01X104581Y88419D01*
G01X124807Y81234D02*
G01X124807Y85234D01*
G01X112806Y85234D01*
G01X112806Y81234D01*
G01X124807Y81234D01*
G01X124805Y83235D02*
G01X125305Y83235D01*
G01X112806Y83235D02*
G01X112306Y83235D01*
G01X79002Y51497D02*
G01X92001Y51497D01*
G01X92001Y46748D01*
G01X78001Y46748D01*
G01X78001Y51497D01*
G01X79002Y51497D01*
G01X78001Y48998D02*
G01X77249Y48998D01*
G01X91999Y48998D02*
G01X92751Y48998D01*
G01X122997Y46500D02*
G01X109998Y46500D01*
G01X109998Y51250D01*
G01X123998Y51250D01*
G01X123998Y46500D01*
G01X122997Y46500D01*
G01X123998Y49000D02*
G01X124750Y49000D01*
G01X110000Y49000D02*
G01X109248Y49000D01*
G01X171498Y40998D02*
G01X171498Y27998D01*
G01X166748Y27998D01*
G01X166748Y41998D01*
G01X171498Y41998D01*
G01X171498Y40998D01*
G01X168998Y41998D02*
G01X168998Y42748D01*
G01X168998Y27998D02*
G01X168998Y27249D01*
G01X10048Y40441D02*
G01X10048Y11442D01*
G01X20048Y11442D01*
G01X20048Y41442D01*
G01X10048Y41442D01*
G01X10048Y40441D01*
G01X34998Y109999D02*
G01X64000Y109999D01*
G01X64000Y119999D01*
G01X34000Y119999D01*
G01X34000Y109999D01*
G01X34998Y109999D01*
G01X19999Y91998D02*
G01X19999Y120997D01*
G01X9999Y120997D01*
G01X9999Y90998D01*
G01X19999Y90998D01*
G01X19999Y91998D01*
G01X166999Y119999D02*
G01X138000Y119999D01*
G01X138000Y109999D01*
G01X168000Y109999D01*
G01X168000Y119999D01*
G01X166999Y119999D01*
G01X190002Y91000D02*
G01X190002Y119999D01*
G01X180002Y119999D01*
G01X180002Y89999D01*
G01X190002Y89999D01*
G01X190002Y91000D01*
G01X112649Y114998D02*
G01X112649Y116268D01*
G01X112649Y117538D01*
G01X113919Y117538D01*
G01X124079Y117538D01*
G01X125349Y117538D01*
G01X125349Y116268D01*
G01X125349Y113728D01*
G01X125349Y112458D01*
G01X124079Y112458D01*
G01X113919Y112458D01*
G01X112649Y112458D01*
G01X112649Y113728D01*
G01X112649Y114998D01*
G01X125349Y114998D01*
G01X89349Y114998D02*
G01X89349Y113728D01*
G01X89349Y112458D01*
G01X88079Y112458D01*
G01X77919Y112458D01*
G01X76649Y112458D01*
G01X76649Y113728D01*
G01X76649Y116268D01*
G01X76649Y117538D01*
G01X77919Y117538D01*
G01X88079Y117538D01*
G01X89349Y117538D01*
G01X89349Y116268D01*
G01X89349Y114998D01*
G01X76649Y114998D01*
G01X9999Y74000D02*
G01X9999Y44998D01*
G01X19999Y44998D01*
G01X19999Y74998D01*
G01X9999Y74998D01*
G01X9999Y74000D01*
G01X179999Y73997D02*
G01X179999Y44996D01*
G01X189999Y44996D01*
G01X189999Y74996D01*
G01X179999Y74996D01*
G01X179999Y73997D01*
G01X11998Y89499D02*
G01X11998Y76499D01*
G01X18000Y76499D01*
G01X18000Y89499D01*
G01X11998Y89499D01*
G01X181998Y88750D02*
G01X181998Y75750D01*
G01X188000Y75750D01*
G01X188000Y88750D01*
G01X181998Y88750D01*
G01X48000Y17000D02*
G01X48000Y22750D01*
G01X48000Y23000D01*
G01X96006Y22999D01*
G01X96006Y10904D01*
G01X48000Y10904D01*
G01X48000Y17000D01*
G01X48000Y17000D02*
G01X45968Y17000D01*
G01X96006Y17000D02*
G01X98038Y17000D01*
G01X108999Y34998D02*
G01X108999Y40749D01*
G01X108999Y40998D01*
G01X157005Y40998D01*
G01X157005Y28902D01*
G01X108999Y28902D01*
G01X108999Y34998D01*
G01X108999Y34998D02*
G01X106967Y34998D01*
G01X157005Y34998D02*
G01X159037Y34998D01*
G01X48000Y34998D02*
G01X48000Y40749D01*
G01X48000Y40998D01*
G01X96006Y40998D01*
G01X96006Y28902D01*
G01X48000Y28902D01*
G01X48000Y34998D01*
G01X48000Y34998D02*
G01X45968Y34998D01*
G01X96006Y34998D02*
G01X98038Y34998D01*
G01X58000Y99999D02*
G01X63751Y99999D01*
G01X64000Y99999D01*
G01X64000Y51993D01*
G01X51904Y51993D01*
G01X51904Y99999D01*
G01X58000Y99999D01*
G01X58000Y99999D02*
G01X58000Y102031D01*
G01X58000Y51993D02*
G01X58000Y49961D01*
G01X144000Y99999D02*
G01X149750Y99999D01*
G01X150000Y99999D01*
G01X149999Y51993D01*
G01X137904Y51993D01*
G01X137904Y99999D01*
G01X144000Y99999D01*
G01X144000Y99999D02*
G01X144000Y102031D01*
G01X144000Y51993D02*
G01X144000Y49961D01*
G54D21*
G01X29001Y27997D02*
G01X29001Y26908D01*
G01X29001Y27997D02*
G01X29365Y27997D01*
G01X29522Y27947D01*
G01X29624Y27842D01*
G01X29677Y27738D01*
G01X29728Y27583D01*
G01X29728Y27324D01*
G01X29677Y27167D01*
G01X29624Y27063D01*
G01X29522Y26959D01*
G01X29365Y26908D01*
G01X29001Y26908D01*
G01X30071Y27792D02*
G01X30175Y27842D01*
G01X30332Y27997D01*
G01X30332Y26908D01*
G01X28999Y19999D02*
G01X28999Y18909D01*
G01X28999Y19999D02*
G01X29363Y19999D01*
G01X29520Y19948D01*
G01X29622Y19844D01*
G01X29675Y19740D01*
G01X29726Y19585D01*
G01X29726Y19326D01*
G01X29675Y19168D01*
G01X29622Y19064D01*
G01X29520Y18960D01*
G01X29363Y18909D01*
G01X28999Y18909D01*
G01X30122Y19740D02*
G01X30122Y19793D01*
G01X30173Y19897D01*
G01X30226Y19948D01*
G01X30330Y19999D01*
G01X30536Y19999D01*
G01X30640Y19948D01*
G01X30694Y19897D01*
G01X30744Y19793D01*
G01X30744Y19689D01*
G01X30694Y19585D01*
G01X30589Y19427D01*
G01X30069Y18909D01*
G01X30798Y18909D01*
G01X24779Y34740D02*
G01X24726Y34844D01*
G01X24622Y34948D01*
G01X24520Y34999D01*
G01X24312Y34999D01*
G01X24208Y34948D01*
G01X24104Y34844D01*
G01X24050Y34740D01*
G01X24000Y34585D01*
G01X24000Y34326D01*
G01X24050Y34168D01*
G01X24104Y34064D01*
G01X24208Y33960D01*
G01X24312Y33909D01*
G01X24520Y33909D01*
G01X24622Y33960D01*
G01X24726Y34064D01*
G01X24779Y34168D01*
G01X25173Y34740D02*
G01X25173Y34793D01*
G01X25226Y34897D01*
G01X25277Y34948D01*
G01X25381Y34999D01*
G01X25590Y34999D01*
G01X25694Y34948D01*
G01X25744Y34897D01*
G01X25798Y34793D01*
G01X25798Y34689D01*
G01X25744Y34585D01*
G01X25640Y34427D01*
G01X25122Y33909D01*
G01X25849Y33909D01*
G01X108779Y8740D02*
G01X108726Y8844D01*
G01X108622Y8948D01*
G01X108520Y8999D01*
G01X108312Y8999D01*
G01X108208Y8948D01*
G01X108103Y8844D01*
G01X108050Y8740D01*
G01X107999Y8585D01*
G01X107999Y8326D01*
G01X108050Y8168D01*
G01X108103Y8064D01*
G01X108208Y7960D01*
G01X108312Y7909D01*
G01X108520Y7909D01*
G01X108622Y7960D01*
G01X108726Y8064D01*
G01X108779Y8168D01*
G01X109226Y8999D02*
G01X109798Y8999D01*
G01X109485Y8585D01*
G01X109640Y8585D01*
G01X109744Y8532D01*
G01X109798Y8481D01*
G01X109848Y8326D01*
G01X109848Y8222D01*
G01X109798Y8064D01*
G01X109693Y7960D01*
G01X109536Y7909D01*
G01X109381Y7909D01*
G01X109226Y7960D01*
G01X109173Y8013D01*
G01X109122Y8118D01*
G01X154779Y8740D02*
G01X154726Y8844D01*
G01X154622Y8948D01*
G01X154520Y8999D01*
G01X154312Y8999D01*
G01X154207Y8948D01*
G01X154103Y8844D01*
G01X154050Y8740D01*
G01X153999Y8585D01*
G01X153999Y8326D01*
G01X154050Y8168D01*
G01X154103Y8064D01*
G01X154207Y7960D01*
G01X154312Y7909D01*
G01X154520Y7909D01*
G01X154622Y7960D01*
G01X154726Y8064D01*
G01X154779Y8168D01*
G01X155744Y8999D02*
G01X155226Y8999D01*
G01X155173Y8532D01*
G01X155226Y8585D01*
G01X155381Y8636D01*
G01X155536Y8636D01*
G01X155693Y8585D01*
G01X155798Y8481D01*
G01X155848Y8326D01*
G01X155848Y8222D01*
G01X155798Y8064D01*
G01X155693Y7960D01*
G01X155536Y7909D01*
G01X155381Y7909D01*
G01X155226Y7960D01*
G01X155173Y8013D01*
G01X155122Y8118D01*
G01X176779Y8740D02*
G01X176726Y8844D01*
G01X176621Y8948D01*
G01X176520Y8999D01*
G01X176312Y8999D01*
G01X176207Y8948D01*
G01X176103Y8844D01*
G01X176050Y8740D01*
G01X175999Y8585D01*
G01X175999Y8326D01*
G01X176050Y8168D01*
G01X176103Y8064D01*
G01X176207Y7960D01*
G01X176312Y7909D01*
G01X176520Y7909D01*
G01X176621Y7960D01*
G01X176726Y8064D01*
G01X176779Y8168D01*
G01X177744Y8844D02*
G01X177693Y8948D01*
G01X177536Y8999D01*
G01X177434Y8999D01*
G01X177277Y8948D01*
G01X177173Y8793D01*
G01X177122Y8532D01*
G01X177122Y8273D01*
G01X177173Y8064D01*
G01X177277Y7960D01*
G01X177434Y7909D01*
G01X177485Y7909D01*
G01X177640Y7960D01*
G01X177744Y8064D01*
G01X177798Y8222D01*
G01X177798Y8273D01*
G01X177744Y8427D01*
G01X177640Y8532D01*
G01X177485Y8585D01*
G01X177434Y8585D01*
G01X177277Y8532D01*
G01X177173Y8427D01*
G01X177122Y8273D01*
G01X76779Y88740D02*
G01X76726Y88844D01*
G01X76622Y88948D01*
G01X76520Y88999D01*
G01X76312Y88999D01*
G01X76208Y88948D01*
G01X76104Y88844D01*
G01X76050Y88740D01*
G01X75999Y88585D01*
G01X75999Y88326D01*
G01X76050Y88168D01*
G01X76104Y88064D01*
G01X76208Y87960D01*
G01X76312Y87909D01*
G01X76520Y87909D01*
G01X76622Y87960D01*
G01X76726Y88064D01*
G01X76779Y88168D01*
G01X77849Y88999D02*
G01X77330Y87909D01*
G01X77122Y88999D02*
G01X77849Y88999D01*
G01X112779Y88740D02*
G01X112726Y88844D01*
G01X112622Y88948D01*
G01X112520Y88999D01*
G01X112312Y88999D01*
G01X112208Y88948D01*
G01X112103Y88844D01*
G01X112050Y88740D01*
G01X111999Y88585D01*
G01X111999Y88326D01*
G01X112050Y88168D01*
G01X112103Y88064D01*
G01X112208Y87960D01*
G01X112312Y87909D01*
G01X112520Y87909D01*
G01X112622Y87960D01*
G01X112726Y88064D01*
G01X112779Y88168D01*
G01X113381Y88999D02*
G01X113226Y88948D01*
G01X113173Y88844D01*
G01X113173Y88740D01*
G01X113226Y88636D01*
G01X113330Y88585D01*
G01X113536Y88531D01*
G01X113694Y88481D01*
G01X113798Y88377D01*
G01X113848Y88272D01*
G01X113848Y88117D01*
G01X113798Y88013D01*
G01X113744Y87960D01*
G01X113589Y87909D01*
G01X113381Y87909D01*
G01X113226Y87960D01*
G01X113173Y88013D01*
G01X113122Y88117D01*
G01X113122Y88272D01*
G01X113173Y88377D01*
G01X113277Y88481D01*
G01X113434Y88531D01*
G01X113640Y88585D01*
G01X113744Y88636D01*
G01X113798Y88740D01*
G01X113798Y88844D01*
G01X113744Y88948D01*
G01X113589Y88999D01*
G01X113381Y88999D01*
G01X87338Y59509D02*
G01X87234Y59455D01*
G01X87130Y59351D01*
G01X87079Y59250D01*
G01X87079Y59041D01*
G01X87130Y58937D01*
G01X87234Y58833D01*
G01X87338Y58780D01*
G01X87493Y58729D01*
G01X87752Y58729D01*
G01X87910Y58780D01*
G01X88014Y58833D01*
G01X88118Y58937D01*
G01X88169Y59041D01*
G01X88169Y59250D01*
G01X88118Y59351D01*
G01X88014Y59455D01*
G01X87910Y59509D01*
G01X87443Y60527D02*
G01X87597Y60474D01*
G01X87702Y60370D01*
G01X87752Y60215D01*
G01X87752Y60164D01*
G01X87702Y60006D01*
G01X87597Y59902D01*
G01X87443Y59852D01*
G01X87389Y59852D01*
G01X87234Y59902D01*
G01X87130Y60006D01*
G01X87079Y60164D01*
G01X87079Y60215D01*
G01X87130Y60370D01*
G01X87234Y60474D01*
G01X87443Y60527D01*
G01X87702Y60527D01*
G01X87961Y60474D01*
G01X88118Y60370D01*
G01X88169Y60215D01*
G01X88169Y60111D01*
G01X88118Y59956D01*
G01X88014Y59902D01*
G01X125258Y58328D02*
G01X125154Y58274D01*
G01X125050Y58170D01*
G01X124999Y58068D01*
G01X124999Y57860D01*
G01X125050Y57756D01*
G01X125154Y57652D01*
G01X125258Y57599D01*
G01X125413Y57548D01*
G01X125672Y57548D01*
G01X125830Y57599D01*
G01X125934Y57652D01*
G01X126038Y57756D01*
G01X126089Y57860D01*
G01X126089Y58068D01*
G01X126038Y58170D01*
G01X125934Y58274D01*
G01X125830Y58328D01*
G01X125205Y58670D02*
G01X125154Y58775D01*
G01X124999Y58930D01*
G01X126089Y58930D01*
G01X124999Y59585D02*
G01X125050Y59427D01*
G01X125205Y59326D01*
G01X125467Y59272D01*
G01X125621Y59272D01*
G01X125881Y59326D01*
G01X126038Y59427D01*
G01X126089Y59585D01*
G01X126089Y59689D01*
G01X126038Y59844D01*
G01X125881Y59948D01*
G01X125621Y59999D01*
G01X125467Y59999D01*
G01X125205Y59948D01*
G01X125050Y59844D01*
G01X124999Y59689D01*
G01X124999Y59585D01*
G01X73999Y64599D02*
G01X75089Y64599D01*
G01X73999Y64599D02*
G01X73999Y65066D01*
G01X74050Y65221D01*
G01X74101Y65274D01*
G01X74205Y65325D01*
G01X74309Y65325D01*
G01X74413Y65274D01*
G01X74467Y65221D01*
G01X74517Y65066D01*
G01X74517Y64599D01*
G01X74517Y64962D02*
G01X75089Y65325D01*
G01X74205Y65668D02*
G01X74154Y65772D01*
G01X73999Y65930D01*
G01X75089Y65930D01*
G01X74258Y66323D02*
G01X74205Y66323D01*
G01X74101Y66377D01*
G01X74050Y66427D01*
G01X73999Y66531D01*
G01X73999Y66740D01*
G01X74050Y66844D01*
G01X74101Y66895D01*
G01X74205Y66948D01*
G01X74309Y66948D01*
G01X74413Y66895D01*
G01X74571Y66791D01*
G01X75089Y66272D01*
G01X75089Y66999D01*
G01X133999Y65599D02*
G01X135089Y65599D01*
G01X133999Y65599D02*
G01X133999Y66066D01*
G01X134050Y66221D01*
G01X134101Y66274D01*
G01X134205Y66325D01*
G01X134309Y66325D01*
G01X134413Y66274D01*
G01X134467Y66221D01*
G01X134517Y66066D01*
G01X134517Y65599D01*
G01X134517Y65962D02*
G01X135089Y66325D01*
G01X134205Y66668D02*
G01X134154Y66772D01*
G01X133999Y66930D01*
G01X135089Y66930D01*
G01X133999Y67377D02*
G01X133999Y67948D01*
G01X134413Y67636D01*
G01X134413Y67791D01*
G01X134467Y67895D01*
G01X134517Y67948D01*
G01X134672Y67999D01*
G01X134776Y67999D01*
G01X134934Y67948D01*
G01X135038Y67844D01*
G01X135089Y67686D01*
G01X135089Y67531D01*
G01X135038Y67377D01*
G01X134985Y67323D01*
G01X134881Y67272D01*
G01X35999Y86999D02*
G01X35999Y85909D01*
G01X35999Y86999D02*
G01X36363Y86999D01*
G01X36520Y86948D01*
G01X36622Y86844D01*
G01X36675Y86740D01*
G01X36726Y86585D01*
G01X36726Y86326D01*
G01X36675Y86168D01*
G01X36622Y86064D01*
G01X36520Y85960D01*
G01X36363Y85909D01*
G01X35999Y85909D01*
G01X37173Y86999D02*
G01X37744Y86999D01*
G01X37435Y86585D01*
G01X37590Y86585D01*
G01X37694Y86531D01*
G01X37744Y86481D01*
G01X37798Y86326D01*
G01X37798Y86222D01*
G01X37744Y86064D01*
G01X37640Y85960D01*
G01X37485Y85909D01*
G01X37330Y85909D01*
G01X37173Y85960D01*
G01X37122Y86013D01*
G01X37069Y86117D01*
G01X163999Y86999D02*
G01X163999Y85909D01*
G01X163999Y86999D02*
G01X164362Y86999D01*
G01X164520Y86948D01*
G01X164621Y86844D01*
G01X164675Y86740D01*
G01X164726Y86585D01*
G01X164726Y86326D01*
G01X164675Y86168D01*
G01X164621Y86064D01*
G01X164520Y85960D01*
G01X164362Y85909D01*
G01X163999Y85909D01*
G01X165589Y86999D02*
G01X165069Y86272D01*
G01X165848Y86272D01*
G01X165589Y86999D02*
G01X165589Y85909D01*
G01X164001Y47997D02*
G01X164001Y46908D01*
G01X164001Y47997D02*
G01X164364Y47997D01*
G01X164522Y47947D01*
G01X164624Y47842D01*
G01X164677Y47738D01*
G01X164728Y47583D01*
G01X164728Y47324D01*
G01X164677Y47167D01*
G01X164624Y47063D01*
G01X164522Y46959D01*
G01X164364Y46908D01*
G01X164001Y46908D01*
G01X165695Y47997D02*
G01X165175Y47997D01*
G01X165124Y47530D01*
G01X165175Y47583D01*
G01X165332Y47634D01*
G01X165487Y47634D01*
G01X165642Y47583D01*
G01X165746Y47479D01*
G01X165800Y47324D01*
G01X165800Y47220D01*
G01X165746Y47063D01*
G01X165642Y46959D01*
G01X165487Y46908D01*
G01X165332Y46908D01*
G01X165175Y46959D01*
G01X165124Y47012D01*
G01X165071Y47116D01*
G01X38193Y44826D02*
G01X38193Y43736D01*
G01X38193Y44826D02*
G01X38556Y44826D01*
G01X38713Y44775D01*
G01X38815Y44671D01*
G01X38868Y44567D01*
G01X38919Y44412D01*
G01X38919Y44153D01*
G01X38868Y43995D01*
G01X38815Y43891D01*
G01X38713Y43787D01*
G01X38556Y43736D01*
G01X38193Y43736D01*
G01X39887Y44671D02*
G01X39834Y44775D01*
G01X39679Y44826D01*
G01X39574Y44826D01*
G01X39420Y44775D01*
G01X39315Y44620D01*
G01X39262Y44358D01*
G01X39262Y44099D01*
G01X39315Y43891D01*
G01X39420Y43787D01*
G01X39574Y43736D01*
G01X39628Y43736D01*
G01X39783Y43787D01*
G01X39887Y43891D01*
G01X39938Y44048D01*
G01X39938Y44099D01*
G01X39887Y44254D01*
G01X39783Y44358D01*
G01X39628Y44412D01*
G01X39574Y44412D01*
G01X39420Y44358D01*
G01X39315Y44254D01*
G01X39262Y44099D01*
G01X28779Y90740D02*
G01X28726Y90844D01*
G01X28622Y90948D01*
G01X28520Y90999D01*
G01X28312Y90999D01*
G01X28208Y90948D01*
G01X28104Y90844D01*
G01X28050Y90740D01*
G01X27999Y90585D01*
G01X27999Y90326D01*
G01X28050Y90168D01*
G01X28104Y90064D01*
G01X28208Y89960D01*
G01X28312Y89909D01*
G01X28520Y89909D01*
G01X28622Y89960D01*
G01X28726Y90064D01*
G01X28779Y90168D01*
G01X29122Y90793D02*
G01X29226Y90844D01*
G01X29381Y90999D01*
G01X29381Y89909D01*
G01X29724Y90793D02*
G01X29828Y90844D01*
G01X29983Y90999D01*
G01X29983Y89909D01*
G01X157777Y89741D02*
G01X157724Y89845D01*
G01X157620Y89950D01*
G01X157518Y90000D01*
G01X157310Y90000D01*
G01X157205Y89950D01*
G01X157101Y89845D01*
G01X157048Y89741D01*
G01X156997Y89586D01*
G01X156997Y89327D01*
G01X157048Y89170D01*
G01X157101Y89066D01*
G01X157205Y88961D01*
G01X157310Y88911D01*
G01X157518Y88911D01*
G01X157620Y88961D01*
G01X157724Y89066D01*
G01X157777Y89170D01*
G01X158120Y89795D02*
G01X158224Y89845D01*
G01X158379Y90000D01*
G01X158379Y88911D01*
G01X158775Y89741D02*
G01X158775Y89795D01*
G01X158826Y89899D01*
G01X158877Y89950D01*
G01X158981Y90000D01*
G01X159189Y90000D01*
G01X159293Y89950D01*
G01X159347Y89899D01*
G01X159398Y89795D01*
G01X159398Y89690D01*
G01X159347Y89586D01*
G01X159243Y89429D01*
G01X158722Y88911D01*
G01X159448Y88911D01*
G01X175779Y26740D02*
G01X175726Y26844D01*
G01X175621Y26948D01*
G01X175520Y26999D01*
G01X175312Y26999D01*
G01X175207Y26948D01*
G01X175103Y26844D01*
G01X175050Y26740D01*
G01X174999Y26585D01*
G01X174999Y26326D01*
G01X175050Y26168D01*
G01X175103Y26064D01*
G01X175207Y25960D01*
G01X175312Y25909D01*
G01X175520Y25909D01*
G01X175621Y25960D01*
G01X175726Y26064D01*
G01X175779Y26168D01*
G01X176122Y26793D02*
G01X176226Y26844D01*
G01X176381Y26999D01*
G01X176381Y25909D01*
G01X176828Y26999D02*
G01X177399Y26999D01*
G01X177087Y26585D01*
G01X177245Y26585D01*
G01X177349Y26532D01*
G01X177399Y26481D01*
G01X177450Y26326D01*
G01X177450Y26222D01*
G01X177399Y26064D01*
G01X177295Y25960D01*
G01X177140Y25909D01*
G01X176983Y25909D01*
G01X176828Y25960D01*
G01X176777Y26013D01*
G01X176724Y26118D01*
G01X130779Y8740D02*
G01X130726Y8844D01*
G01X130622Y8948D01*
G01X130520Y8999D01*
G01X130312Y8999D01*
G01X130207Y8948D01*
G01X130103Y8844D01*
G01X130050Y8740D01*
G01X129999Y8585D01*
G01X129999Y8326D01*
G01X130050Y8168D01*
G01X130103Y8064D01*
G01X130207Y7960D01*
G01X130312Y7909D01*
G01X130520Y7909D01*
G01X130622Y7960D01*
G01X130726Y8064D01*
G01X130779Y8168D01*
G01X131640Y8999D02*
G01X131122Y8273D01*
G01X131902Y8273D01*
G01X131640Y8999D02*
G01X131640Y7909D01*
G01X24777Y10741D02*
G01X24724Y10846D01*
G01X24620Y10950D01*
G01X24518Y11000D01*
G01X24310Y11000D01*
G01X24206Y10950D01*
G01X24102Y10846D01*
G01X24048Y10741D01*
G01X23997Y10586D01*
G01X23997Y10327D01*
G01X24048Y10170D01*
G01X24102Y10066D01*
G01X24206Y9962D01*
G01X24310Y9911D01*
G01X24518Y9911D01*
G01X24620Y9962D01*
G01X24724Y10066D01*
G01X24777Y10170D01*
G01X25120Y10795D02*
G01X25224Y10846D01*
G01X25379Y11000D01*
G01X25379Y9911D01*
G01X76999Y79999D02*
G01X76999Y78909D01*
G01X76999Y79999D02*
G01X77467Y79999D01*
G01X77622Y79948D01*
G01X77675Y79897D01*
G01X77726Y79793D01*
G01X77726Y79689D01*
G01X77675Y79585D01*
G01X77622Y79531D01*
G01X77467Y79481D01*
G01X76999Y79481D01*
G01X77363Y79481D02*
G01X77726Y78909D01*
G01X78694Y79999D02*
G01X78173Y79999D01*
G01X78122Y79531D01*
G01X78173Y79585D01*
G01X78330Y79636D01*
G01X78485Y79636D01*
G01X78640Y79585D01*
G01X78744Y79481D01*
G01X78798Y79326D01*
G01X78798Y79222D01*
G01X78744Y79064D01*
G01X78640Y78960D01*
G01X78485Y78909D01*
G01X78330Y78909D01*
G01X78173Y78960D01*
G01X78122Y79013D01*
G01X78069Y79117D01*
G01X99679Y89999D02*
G01X100769Y89999D01*
G01X99679Y89999D02*
G01X99679Y90466D01*
G01X99730Y90621D01*
G01X99781Y90674D01*
G01X99885Y90725D01*
G01X99989Y90725D01*
G01X100093Y90674D01*
G01X100146Y90621D01*
G01X100197Y90466D01*
G01X100197Y89999D01*
G01X100197Y90362D02*
G01X100769Y90725D01*
G01X99834Y91693D02*
G01X99730Y91640D01*
G01X99679Y91485D01*
G01X99679Y91381D01*
G01X99730Y91226D01*
G01X99885Y91121D01*
G01X100146Y91068D01*
G01X100405Y91068D01*
G01X100614Y91121D01*
G01X100718Y91226D01*
G01X100769Y91381D01*
G01X100769Y91434D01*
G01X100718Y91589D01*
G01X100614Y91693D01*
G01X100456Y91744D01*
G01X100405Y91744D01*
G01X100251Y91693D01*
G01X100146Y91589D01*
G01X100093Y91434D01*
G01X100093Y91381D01*
G01X100146Y91226D01*
G01X100251Y91121D01*
G01X100405Y91068D01*
G01X106999Y90200D02*
G01X108089Y90200D01*
G01X106999Y90200D02*
G01X106999Y90668D01*
G01X107050Y90823D01*
G01X107101Y90876D01*
G01X107205Y90927D01*
G01X107309Y90927D01*
G01X107413Y90876D01*
G01X107467Y90823D01*
G01X107517Y90668D01*
G01X107517Y90200D01*
G01X107517Y90564D02*
G01X108089Y90927D01*
G01X106999Y91999D02*
G01X108089Y91478D01*
G01X106999Y91270D02*
G01X106999Y91999D01*
G01X112999Y79999D02*
G01X112999Y78909D01*
G01X112999Y79999D02*
G01X113467Y79999D01*
G01X113622Y79948D01*
G01X113675Y79897D01*
G01X113726Y79793D01*
G01X113726Y79689D01*
G01X113675Y79585D01*
G01X113622Y79531D01*
G01X113467Y79481D01*
G01X112999Y79481D01*
G01X113362Y79481D02*
G01X113726Y78909D01*
G01X114744Y79636D02*
G01X114693Y79481D01*
G01X114589Y79377D01*
G01X114434Y79326D01*
G01X114381Y79326D01*
G01X114226Y79377D01*
G01X114122Y79481D01*
G01X114069Y79636D01*
G01X114069Y79689D01*
G01X114122Y79844D01*
G01X114226Y79948D01*
G01X114381Y79999D01*
G01X114434Y79999D01*
G01X114589Y79948D01*
G01X114693Y79844D01*
G01X114744Y79636D01*
G01X114744Y79377D01*
G01X114693Y79117D01*
G01X114589Y78960D01*
G01X114434Y78909D01*
G01X114330Y78909D01*
G01X114173Y78960D01*
G01X114122Y79064D01*
G01X78997Y46000D02*
G01X78997Y44911D01*
G01X78997Y46000D02*
G01X79465Y46000D01*
G01X79620Y45950D01*
G01X79673Y45899D01*
G01X79724Y45795D01*
G01X79724Y45691D01*
G01X79673Y45586D01*
G01X79620Y45533D01*
G01X79465Y45482D01*
G01X78997Y45482D01*
G01X79361Y45482D02*
G01X79724Y44911D01*
G01X80067Y45795D02*
G01X80171Y45845D01*
G01X80328Y46000D01*
G01X80328Y44911D01*
G01X80981Y46000D02*
G01X80826Y45950D01*
G01X80722Y45795D01*
G01X80671Y45533D01*
G01X80671Y45378D01*
G01X80722Y45119D01*
G01X80826Y44962D01*
G01X80981Y44911D01*
G01X81085Y44911D01*
G01X81243Y44962D01*
G01X81347Y45119D01*
G01X81398Y45378D01*
G01X81398Y45533D01*
G01X81347Y45795D01*
G01X81243Y45950D01*
G01X81085Y46000D01*
G01X80981Y46000D01*
G01X110995Y46002D02*
G01X110995Y44912D01*
G01X110995Y46002D02*
G01X111463Y46002D01*
G01X111617Y45951D01*
G01X111671Y45900D01*
G01X111722Y45796D01*
G01X111722Y45692D01*
G01X111671Y45588D01*
G01X111617Y45535D01*
G01X111463Y45484D01*
G01X110995Y45484D01*
G01X111358Y45484D02*
G01X111722Y44912D01*
G01X112065Y45796D02*
G01X112169Y45847D01*
G01X112326Y46002D01*
G01X112326Y44912D01*
G01X112669Y45796D02*
G01X112773Y45847D01*
G01X112928Y46002D01*
G01X112928Y44912D01*
G01X171999Y28649D02*
G01X173089Y28649D01*
G01X171999Y28649D02*
G01X171999Y29117D01*
G01X172050Y29272D01*
G01X172101Y29325D01*
G01X172205Y29376D01*
G01X172309Y29376D01*
G01X172413Y29325D01*
G01X172466Y29272D01*
G01X172517Y29117D01*
G01X172517Y28649D01*
G01X172517Y29013D02*
G01X173089Y29376D01*
G01X172205Y29719D02*
G01X172154Y29823D01*
G01X171999Y29980D01*
G01X173089Y29980D01*
G01X172154Y30946D02*
G01X172050Y30895D01*
G01X171999Y30737D01*
G01X171999Y30633D01*
G01X172050Y30478D01*
G01X172205Y30374D01*
G01X172466Y30323D01*
G01X172726Y30323D01*
G01X172934Y30374D01*
G01X173038Y30478D01*
G01X173089Y30633D01*
G01X173089Y30686D01*
G01X173038Y30841D01*
G01X172934Y30946D01*
G01X172776Y30999D01*
G01X172726Y30999D01*
G01X172571Y30946D01*
G01X172466Y30841D01*
G01X172413Y30686D01*
G01X172413Y30633D01*
G01X172466Y30478D01*
G01X172571Y30374D01*
G01X172726Y30323D01*
G01X20999Y11668D02*
G01X22089Y11668D01*
G01X20999Y11668D02*
G01X20999Y12135D01*
G01X21050Y12290D01*
G01X21101Y12344D01*
G01X21205Y12394D01*
G01X21363Y12394D01*
G01X21467Y12344D01*
G01X21518Y12290D01*
G01X21571Y12135D01*
G01X21571Y11668D01*
G01X21205Y12737D02*
G01X21154Y12841D01*
G01X20999Y12999D01*
G01X22089Y12999D01*
G01X34726Y108844D02*
G01X34622Y108948D01*
G01X34467Y108999D01*
G01X34258Y108999D01*
G01X34104Y108948D01*
G01X33999Y108844D01*
G01X33999Y108740D01*
G01X34050Y108636D01*
G01X34104Y108585D01*
G01X34208Y108531D01*
G01X34520Y108427D01*
G01X34622Y108376D01*
G01X34675Y108326D01*
G01X34726Y108222D01*
G01X34726Y108064D01*
G01X34622Y107960D01*
G01X34467Y107909D01*
G01X34258Y107909D01*
G01X34104Y107960D01*
G01X33999Y108064D01*
G01X35069Y108999D02*
G01X35330Y107909D01*
G01X35589Y108999D02*
G01X35330Y107909D01*
G01X35589Y108999D02*
G01X35849Y107909D01*
G01X36108Y108999D02*
G01X35849Y107909D01*
G01X36450Y108793D02*
G01X36555Y108844D01*
G01X36712Y108999D01*
G01X36712Y107909D01*
G01X21154Y91545D02*
G01X21050Y91441D01*
G01X20999Y91286D01*
G01X20999Y91078D01*
G01X21050Y90923D01*
G01X21154Y90819D01*
G01X21259Y90819D01*
G01X21363Y90870D01*
G01X21413Y90923D01*
G01X21467Y91027D01*
G01X21571Y91339D01*
G01X21622Y91441D01*
G01X21673Y91494D01*
G01X21777Y91545D01*
G01X21934Y91545D01*
G01X22038Y91441D01*
G01X22089Y91286D01*
G01X22089Y91078D01*
G01X22038Y90923D01*
G01X21934Y90819D01*
G01X20999Y91888D02*
G01X22089Y92150D01*
G01X20999Y92409D02*
G01X22089Y92150D01*
G01X20999Y92409D02*
G01X22089Y92668D01*
G01X20999Y92927D02*
G01X22089Y92668D01*
G01X21259Y93323D02*
G01X21205Y93323D01*
G01X21101Y93374D01*
G01X21050Y93427D01*
G01X20999Y93531D01*
G01X20999Y93740D01*
G01X21050Y93841D01*
G01X21101Y93895D01*
G01X21205Y93945D01*
G01X21309Y93945D01*
G01X21413Y93895D01*
G01X21571Y93791D01*
G01X22089Y93270D01*
G01X22089Y93999D01*
G01X139227Y108716D02*
G01X139123Y108820D01*
G01X138968Y108871D01*
G01X138760Y108871D01*
G01X138605Y108820D01*
G01X138501Y108716D01*
G01X138501Y108612D01*
G01X138551Y108508D01*
G01X138605Y108457D01*
G01X138709Y108404D01*
G01X139021Y108300D01*
G01X139123Y108249D01*
G01X139176Y108198D01*
G01X139227Y108094D01*
G01X139227Y107936D01*
G01X139123Y107832D01*
G01X138968Y107781D01*
G01X138760Y107781D01*
G01X138605Y107832D01*
G01X138501Y107936D01*
G01X139570Y108871D02*
G01X139832Y107781D01*
G01X140091Y108871D02*
G01X139832Y107781D01*
G01X140091Y108871D02*
G01X140350Y107781D01*
G01X140609Y108871D02*
G01X140350Y107781D01*
G01X141056Y108871D02*
G01X141627Y108871D01*
G01X141317Y108457D01*
G01X141472Y108457D01*
G01X141577Y108404D01*
G01X141627Y108353D01*
G01X141681Y108198D01*
G01X141681Y108094D01*
G01X141627Y107936D01*
G01X141523Y107832D01*
G01X141368Y107781D01*
G01X141213Y107781D01*
G01X141056Y107832D01*
G01X141005Y107885D01*
G01X140952Y107990D01*
G01X179089Y118041D02*
G01X179193Y118146D01*
G01X179244Y118300D01*
G01X179244Y118509D01*
G01X179193Y118664D01*
G01X179089Y118768D01*
G01X178985Y118768D01*
G01X178880Y118717D01*
G01X178830Y118664D01*
G01X178776Y118560D01*
G01X178672Y118247D01*
G01X178621Y118146D01*
G01X178571Y118092D01*
G01X178466Y118041D01*
G01X178309Y118041D01*
G01X178205Y118146D01*
G01X178154Y118300D01*
G01X178154Y118509D01*
G01X178205Y118664D01*
G01X178309Y118768D01*
G01X179244Y117699D02*
G01X178154Y117437D01*
G01X179244Y117178D02*
G01X178154Y117437D01*
G01X179244Y117178D02*
G01X178154Y116919D01*
G01X179244Y116660D02*
G01X178154Y116919D01*
G01X179244Y115796D02*
G01X178517Y116317D01*
G01X178517Y115537D01*
G01X179244Y115796D02*
G01X178154Y115796D01*
G01X112999Y111999D02*
G01X112999Y110909D01*
G01X112999Y111999D02*
G01X113467Y111999D01*
G01X113622Y111948D01*
G01X113675Y111897D01*
G01X113726Y111793D01*
G01X113726Y111636D01*
G01X113675Y111531D01*
G01X113622Y111481D01*
G01X113467Y111427D01*
G01X112999Y111427D01*
G01X114122Y111740D02*
G01X114122Y111793D01*
G01X114173Y111897D01*
G01X114226Y111948D01*
G01X114330Y111999D01*
G01X114536Y111999D01*
G01X114640Y111948D01*
G01X114693Y111897D01*
G01X114744Y111793D01*
G01X114744Y111689D01*
G01X114693Y111585D01*
G01X114589Y111427D01*
G01X114069Y110909D01*
G01X114798Y110909D01*
G54D22*
G01X117729Y111626D02*
G01X117729Y110861D01*
G01X117968Y111626D02*
G01X117968Y110861D01*
G01X117968Y111626D02*
G01X118479Y110861D01*
G01X118479Y111626D02*
G01X118479Y110861D01*
G01X118717Y111626D02*
G01X118717Y110861D01*
G01X118717Y111626D02*
G01X119045Y111626D01*
G01X119154Y111588D01*
G01X119192Y111552D01*
G01X119228Y111481D01*
G01X119228Y111372D01*
G01X119192Y111298D01*
G01X119154Y111262D01*
G01X119045Y111224D01*
G01X118717Y111224D01*
G01X119467Y111626D02*
G01X119467Y111080D01*
G01X119505Y110970D01*
G01X119576Y110897D01*
G01X119685Y110861D01*
G01X119759Y110861D01*
G01X119868Y110897D01*
G01X119939Y110970D01*
G01X119977Y111080D01*
G01X119977Y111626D01*
G01X120470Y111626D02*
G01X120470Y110861D01*
G01X120216Y111626D02*
G01X120726Y111626D01*
G54D23*
G01X127028Y116678D02*
G01X127028Y115860D01*
G01X126619Y116269D02*
G01X127437Y116269D01*
G01X110109Y116269D02*
G01X110765Y116269D01*
G54D21*
G01X76999Y111999D02*
G01X76999Y110909D01*
G01X76999Y111999D02*
G01X77467Y111999D01*
G01X77622Y111948D01*
G01X77675Y111897D01*
G01X77726Y111793D01*
G01X77726Y111636D01*
G01X77675Y111531D01*
G01X77622Y111481D01*
G01X77467Y111427D01*
G01X76999Y111427D01*
G01X78173Y111999D02*
G01X78744Y111999D01*
G01X78434Y111585D01*
G01X78589Y111585D01*
G01X78694Y111531D01*
G01X78744Y111481D01*
G01X78798Y111326D01*
G01X78798Y111222D01*
G01X78744Y111064D01*
G01X78640Y110960D01*
G01X78485Y110909D01*
G01X78330Y110909D01*
G01X78173Y110960D01*
G01X78122Y111013D01*
G01X78069Y111117D01*
G54D22*
G01X81999Y111999D02*
G01X81999Y111234D01*
G01X82238Y111999D02*
G01X82238Y111234D01*
G01X82238Y111999D02*
G01X82749Y111234D01*
G01X82749Y111999D02*
G01X82749Y111234D01*
G01X82987Y111999D02*
G01X82987Y111234D01*
G01X82987Y111999D02*
G01X83315Y111999D01*
G01X83424Y111961D01*
G01X83462Y111925D01*
G01X83498Y111854D01*
G01X83498Y111745D01*
G01X83462Y111671D01*
G01X83424Y111636D01*
G01X83315Y111597D01*
G01X82987Y111597D01*
G01X83737Y111999D02*
G01X83737Y111453D01*
G01X83775Y111343D01*
G01X83846Y111270D01*
G01X83955Y111234D01*
G01X84029Y111234D01*
G01X84138Y111270D01*
G01X84209Y111343D01*
G01X84247Y111453D01*
G01X84247Y111999D01*
G01X84740Y111999D02*
G01X84740Y111234D01*
G01X84486Y111999D02*
G01X84997Y111999D01*
G54D23*
G01X74970Y113320D02*
G01X74970Y114138D01*
G01X75379Y113729D02*
G01X74561Y113729D01*
G01X91889Y113729D02*
G01X91234Y113729D01*
G54D21*
G01X20999Y45150D02*
G01X22089Y45150D01*
G01X20999Y45150D02*
G01X20999Y45617D01*
G01X21050Y45772D01*
G01X21101Y45825D01*
G01X21205Y45876D01*
G01X21363Y45876D01*
G01X21467Y45825D01*
G01X21518Y45772D01*
G01X21571Y45617D01*
G01X21571Y45150D01*
G01X20999Y46740D02*
G01X21726Y46219D01*
G01X21726Y46999D01*
G01X20999Y46740D02*
G01X22089Y46740D01*
G01X179244Y72200D02*
G01X178154Y72200D01*
G01X179244Y72200D02*
G01X179244Y71733D01*
G01X179193Y71578D01*
G01X179142Y71525D01*
G01X179038Y71474D01*
G01X178881Y71474D01*
G01X178776Y71525D01*
G01X178726Y71578D01*
G01X178672Y71733D01*
G01X178672Y72200D01*
G01X179244Y70506D02*
G01X179244Y71027D01*
G01X178776Y71078D01*
G01X178830Y71027D01*
G01X178881Y70870D01*
G01X178881Y70715D01*
G01X178830Y70560D01*
G01X178726Y70456D01*
G01X178571Y70402D01*
G01X178467Y70402D01*
G01X178309Y70456D01*
G01X178205Y70560D01*
G01X178154Y70715D01*
G01X178154Y70870D01*
G01X178205Y71027D01*
G01X178258Y71078D01*
G01X178362Y71131D01*
G01X18377Y75999D02*
G01X19467Y75999D01*
G01X18377Y75999D02*
G01X18377Y76466D01*
G01X18428Y76621D01*
G01X18479Y76674D01*
G01X18583Y76725D01*
G01X18740Y76725D01*
G01X18844Y76674D01*
G01X18895Y76621D01*
G01X18949Y76466D01*
G01X18949Y75999D01*
G01X18532Y77693D02*
G01X18428Y77640D01*
G01X18377Y77485D01*
G01X18377Y77381D01*
G01X18428Y77226D01*
G01X18583Y77121D01*
G01X18844Y77068D01*
G01X19104Y77068D01*
G01X19312Y77121D01*
G01X19416Y77226D01*
G01X19467Y77381D01*
G01X19467Y77434D01*
G01X19416Y77589D01*
G01X19312Y77693D01*
G01X19154Y77744D01*
G01X19104Y77744D01*
G01X18949Y77693D01*
G01X18844Y77589D01*
G01X18791Y77434D01*
G01X18791Y77381D01*
G01X18844Y77226D01*
G01X18949Y77121D01*
G01X19104Y77068D01*
G01X181621Y88999D02*
G01X180532Y88999D01*
G01X181621Y88999D02*
G01X181621Y88531D01*
G01X181571Y88376D01*
G01X181520Y88323D01*
G01X181416Y88272D01*
G01X181258Y88272D01*
G01X181154Y88323D01*
G01X181103Y88376D01*
G01X181050Y88531D01*
G01X181050Y88999D01*
G01X181621Y87200D02*
G01X180532Y87721D01*
G01X181621Y87929D02*
G01X181621Y87200D01*
G01X101125Y57129D02*
G01X101542Y56040D01*
G01X101956Y57129D02*
G01X101542Y56040D01*
G01X102299Y56923D02*
G01X102403Y56974D01*
G01X102560Y57129D01*
G01X102560Y56040D01*
G54D24*
G01X99717Y80896D02*
G01X99664Y80998D01*
G01X99509Y81051D01*
G01X99405Y81051D01*
G01X99250Y80998D01*
G01X99146Y80843D01*
G01X99093Y80584D01*
G01X99093Y80324D01*
G01X99146Y80116D01*
G01X99250Y80012D01*
G01X99405Y79959D01*
G01X99456Y79959D01*
G01X99613Y80012D01*
G01X99717Y80116D01*
G01X99768Y80271D01*
G01X99768Y80324D01*
G01X99717Y80479D01*
G01X99613Y80584D01*
G01X99456Y80634D01*
G01X99405Y80634D01*
G01X99250Y80584D01*
G01X99146Y80479D01*
G01X99093Y80324D01*
G01X100528Y81051D02*
G01X100111Y79959D01*
G01X100528Y81051D02*
G01X100942Y79959D01*
G01X100266Y80324D02*
G01X100787Y80324D01*
G01X101597Y81051D02*
G01X101493Y80998D01*
G01X101389Y80896D01*
G01X101338Y80792D01*
G01X101285Y80634D01*
G01X101285Y80375D01*
G01X101338Y80220D01*
G01X101389Y80116D01*
G01X101493Y80012D01*
G01X101597Y79959D01*
G01X101805Y79959D01*
G01X101909Y80012D01*
G01X102014Y80116D01*
G01X102064Y80220D01*
G01X102118Y80375D01*
G01X102118Y80634D01*
G01X102064Y80792D01*
G01X102014Y80896D01*
G01X101909Y80998D01*
G01X101805Y81051D01*
G01X101597Y81051D01*
G01X101752Y80167D02*
G01X102064Y79855D01*
G01X102720Y81051D02*
G01X102565Y80998D01*
G01X102511Y80896D01*
G01X102511Y80792D01*
G01X102565Y80688D01*
G01X102666Y80634D01*
G01X102875Y80584D01*
G01X103032Y80530D01*
G01X103136Y80426D01*
G01X103187Y80324D01*
G01X103187Y80167D01*
G01X103136Y80063D01*
G01X103083Y80012D01*
G01X102928Y79959D01*
G01X102720Y79959D01*
G01X102565Y80012D01*
G01X102511Y80063D01*
G01X102461Y80167D01*
G01X102461Y80324D01*
G01X102511Y80426D01*
G01X102616Y80530D01*
G01X102770Y80584D01*
G01X102979Y80634D01*
G01X103083Y80688D01*
G01X103136Y80792D01*
G01X103136Y80896D01*
G01X103083Y80998D01*
G01X102928Y81051D01*
G01X102720Y81051D01*
G54D25*
G01X103677Y70180D02*
G01X103710Y70284D01*
G01X103781Y70352D01*
G01X103886Y70388D01*
G01X103919Y70388D01*
G01X104023Y70352D01*
G01X104091Y70284D01*
G01X104127Y70180D01*
G01X104127Y70144D01*
G01X104091Y70040D01*
G01X104023Y69971D01*
G01X103919Y69936D01*
G01X103886Y69936D01*
G01X103781Y69971D01*
G01X103710Y70040D01*
G01X103677Y70180D01*
G01X103677Y70352D01*
G01X103710Y70525D01*
G01X103781Y70629D01*
G01X103886Y70665D01*
G01X103954Y70665D01*
G01X104058Y70629D01*
G01X104091Y70561D01*
G01X105757Y67472D02*
G01X105862Y67508D01*
G01X105895Y67576D01*
G01X105895Y67647D01*
G01X105862Y67716D01*
G01X105791Y67749D01*
G01X105653Y67784D01*
G01X105549Y67820D01*
G01X105481Y67889D01*
G01X105445Y67957D01*
G01X105445Y68061D01*
G01X105481Y68130D01*
G01X105514Y68165D01*
G01X105618Y68201D01*
G01X105757Y68201D01*
G01X105862Y68165D01*
G01X105895Y68130D01*
G01X105930Y68061D01*
G01X105930Y67957D01*
G01X105895Y67889D01*
G01X105826Y67820D01*
G01X105722Y67784D01*
G01X105585Y67749D01*
G01X105514Y67716D01*
G01X105481Y67647D01*
G01X105481Y67576D01*
G01X105514Y67508D01*
G01X105618Y67472D01*
G01X105757Y67472D01*
G01X105394Y65008D02*
G01X105740Y65737D01*
G01X105879Y65008D02*
G01X105394Y65008D01*
G01X103888Y62953D02*
G01X103924Y62885D01*
G01X104028Y62849D01*
G01X104096Y62849D01*
G01X104200Y62885D01*
G01X104269Y62989D01*
G01X104305Y63162D01*
G01X104305Y63334D01*
G01X104269Y63474D01*
G01X104200Y63543D01*
G01X104096Y63578D01*
G01X104063Y63578D01*
G01X103959Y63543D01*
G01X103888Y63474D01*
G01X103855Y63370D01*
G01X103855Y63334D01*
G01X103888Y63230D01*
G01X103959Y63162D01*
G01X104063Y63126D01*
G01X104096Y63126D01*
G01X104200Y63162D01*
G01X104269Y63230D01*
G01X104305Y63334D01*
G01X101348Y62138D02*
G01X101696Y62138D01*
G01X101729Y62450D01*
G01X101696Y62415D01*
G01X101592Y62382D01*
G01X101488Y62382D01*
G01X101384Y62415D01*
G01X101315Y62486D01*
G01X101279Y62590D01*
G01X101279Y62659D01*
G01X101315Y62763D01*
G01X101384Y62831D01*
G01X101488Y62867D01*
G01X101592Y62867D01*
G01X101696Y62831D01*
G01X101729Y62796D01*
G01X101765Y62727D01*
G01X99159Y62798D02*
G01X99504Y63284D01*
G01X98983Y63284D01*
G01X99159Y62798D02*
G01X99159Y63527D01*
G01X97657Y64983D02*
G01X97276Y64983D01*
G01X97485Y65260D01*
G01X97381Y65260D01*
G01X97309Y65295D01*
G01X97276Y65331D01*
G01X97241Y65435D01*
G01X97241Y65504D01*
G01X97276Y65608D01*
G01X97345Y65676D01*
G01X97449Y65712D01*
G01X97553Y65712D01*
G01X97657Y65676D01*
G01X97690Y65641D01*
G01X97726Y65572D01*
G01X97868Y67673D02*
G01X97868Y67637D01*
G01X97835Y67569D01*
G01X97800Y67533D01*
G01X97731Y67497D01*
G01X97591Y67497D01*
G01X97523Y67533D01*
G01X97487Y67569D01*
G01X97454Y67637D01*
G01X97454Y67706D01*
G01X97487Y67774D01*
G01X97558Y67878D01*
G01X97904Y68226D01*
G01X97419Y68226D01*
G01X99402Y70101D02*
G01X99334Y70065D01*
G01X99230Y69961D01*
G01X99230Y70690D01*
G54D21*
G01X25999Y57999D02*
G01X25999Y57222D01*
G01X26050Y57064D01*
G01X26154Y56960D01*
G01X26312Y56909D01*
G01X26416Y56909D01*
G01X26571Y56960D01*
G01X26675Y57064D01*
G01X26726Y57222D01*
G01X26726Y57999D01*
G01X27069Y57793D02*
G01X27173Y57844D01*
G01X27330Y57999D01*
G01X27330Y56909D01*
G54D25*
G01X39552Y69971D02*
G01X39585Y70076D01*
G01X39657Y70144D01*
G01X39761Y70180D01*
G01X39794Y70180D01*
G01X39898Y70144D01*
G01X39966Y70076D01*
G01X40002Y69971D01*
G01X40002Y69936D01*
G01X39966Y69832D01*
G01X39898Y69763D01*
G01X39794Y69728D01*
G01X39761Y69728D01*
G01X39657Y69763D01*
G01X39585Y69832D01*
G01X39552Y69971D01*
G01X39552Y70144D01*
G01X39585Y70317D01*
G01X39657Y70421D01*
G01X39761Y70457D01*
G01X39829Y70457D01*
G01X39933Y70421D01*
G01X39966Y70352D01*
G01X41633Y67264D02*
G01X41737Y67299D01*
G01X41770Y67368D01*
G01X41770Y67439D01*
G01X41737Y67508D01*
G01X41666Y67541D01*
G01X41529Y67576D01*
G01X41424Y67612D01*
G01X41356Y67680D01*
G01X41320Y67749D01*
G01X41320Y67853D01*
G01X41356Y67922D01*
G01X41389Y67957D01*
G01X41493Y67993D01*
G01X41633Y67993D01*
G01X41737Y67957D01*
G01X41770Y67922D01*
G01X41805Y67853D01*
G01X41805Y67749D01*
G01X41770Y67680D01*
G01X41701Y67612D01*
G01X41597Y67576D01*
G01X41460Y67541D01*
G01X41389Y67508D01*
G01X41356Y67439D01*
G01X41356Y67368D01*
G01X41389Y67299D01*
G01X41493Y67264D01*
G01X41633Y67264D01*
G01X41269Y64800D02*
G01X41615Y65529D01*
G01X41755Y64800D02*
G01X41269Y64800D01*
G01X39763Y62745D02*
G01X39799Y62677D01*
G01X39903Y62641D01*
G01X39971Y62641D01*
G01X40076Y62677D01*
G01X40144Y62781D01*
G01X40180Y62953D01*
G01X40180Y63126D01*
G01X40144Y63266D01*
G01X40076Y63334D01*
G01X39971Y63370D01*
G01X39938Y63370D01*
G01X39834Y63334D01*
G01X39763Y63266D01*
G01X39730Y63162D01*
G01X39730Y63126D01*
G01X39763Y63022D01*
G01X39834Y62953D01*
G01X39938Y62918D01*
G01X39971Y62918D01*
G01X40076Y62953D01*
G01X40144Y63022D01*
G01X40180Y63126D01*
G01X37223Y61930D02*
G01X37571Y61930D01*
G01X37604Y62242D01*
G01X37571Y62207D01*
G01X37467Y62174D01*
G01X37363Y62174D01*
G01X37259Y62207D01*
G01X37190Y62278D01*
G01X37155Y62382D01*
G01X37155Y62450D01*
G01X37190Y62555D01*
G01X37259Y62623D01*
G01X37363Y62659D01*
G01X37467Y62659D01*
G01X37571Y62623D01*
G01X37604Y62588D01*
G01X37640Y62519D01*
G01X35034Y62590D02*
G01X35379Y63075D01*
G01X34858Y63075D01*
G01X35034Y62590D02*
G01X35034Y63319D01*
G01X33533Y64775D02*
G01X33152Y64775D01*
G01X33360Y65051D01*
G01X33256Y65051D01*
G01X33185Y65087D01*
G01X33152Y65123D01*
G01X33116Y65227D01*
G01X33116Y65295D01*
G01X33152Y65399D01*
G01X33220Y65468D01*
G01X33324Y65504D01*
G01X33428Y65504D01*
G01X33533Y65468D01*
G01X33566Y65432D01*
G01X33601Y65364D01*
G01X33743Y67464D02*
G01X33743Y67429D01*
G01X33710Y67360D01*
G01X33675Y67325D01*
G01X33606Y67289D01*
G01X33467Y67289D01*
G01X33398Y67325D01*
G01X33362Y67360D01*
G01X33329Y67429D01*
G01X33329Y67497D01*
G01X33362Y67566D01*
G01X33434Y67670D01*
G01X33779Y68018D01*
G01X33294Y68018D01*
G01X35278Y69893D02*
G01X35209Y69857D01*
G01X35105Y69753D01*
G01X35105Y70482D01*
G54D21*
G01X153790Y58069D02*
G01X153790Y57292D01*
G01X153840Y57135D01*
G01X153945Y57030D01*
G01X154102Y56980D01*
G01X154206Y56980D01*
G01X154361Y57030D01*
G01X154465Y57135D01*
G01X154516Y57292D01*
G01X154516Y58069D01*
G01X154912Y57810D02*
G01X154912Y57863D01*
G01X154963Y57968D01*
G01X155016Y58018D01*
G01X155121Y58069D01*
G01X155326Y58069D01*
G01X155430Y58018D01*
G01X155484Y57968D01*
G01X155535Y57863D01*
G01X155535Y57759D01*
G01X155484Y57655D01*
G01X155380Y57498D01*
G01X154859Y56980D01*
G01X155588Y56980D01*
G54D25*
G01X167553Y69971D02*
G01X167586Y70076D01*
G01X167657Y70144D01*
G01X167761Y70180D01*
G01X167794Y70180D01*
G01X167899Y70144D01*
G01X167967Y70076D01*
G01X168003Y69971D01*
G01X168003Y69936D01*
G01X167967Y69832D01*
G01X167899Y69763D01*
G01X167794Y69728D01*
G01X167761Y69728D01*
G01X167657Y69763D01*
G01X167586Y69832D01*
G01X167553Y69971D01*
G01X167553Y70144D01*
G01X167586Y70317D01*
G01X167657Y70421D01*
G01X167761Y70457D01*
G01X167830Y70457D01*
G01X167934Y70421D01*
G01X167967Y70352D01*
G01X169633Y67264D02*
G01X169738Y67299D01*
G01X169771Y67368D01*
G01X169771Y67439D01*
G01X169738Y67508D01*
G01X169666Y67541D01*
G01X169529Y67576D01*
G01X169425Y67612D01*
G01X169357Y67680D01*
G01X169321Y67749D01*
G01X169321Y67853D01*
G01X169357Y67922D01*
G01X169390Y67957D01*
G01X169494Y67993D01*
G01X169633Y67993D01*
G01X169738Y67957D01*
G01X169771Y67922D01*
G01X169806Y67853D01*
G01X169806Y67749D01*
G01X169771Y67680D01*
G01X169702Y67612D01*
G01X169598Y67576D01*
G01X169461Y67541D01*
G01X169390Y67508D01*
G01X169357Y67439D01*
G01X169357Y67368D01*
G01X169390Y67299D01*
G01X169494Y67264D01*
G01X169633Y67264D01*
G01X169270Y64800D02*
G01X169616Y65529D01*
G01X169755Y64800D02*
G01X169270Y64800D01*
G01X167764Y62745D02*
G01X167800Y62677D01*
G01X167904Y62641D01*
G01X167972Y62641D01*
G01X168076Y62677D01*
G01X168145Y62781D01*
G01X168181Y62953D01*
G01X168181Y63126D01*
G01X168145Y63266D01*
G01X168076Y63334D01*
G01X167972Y63370D01*
G01X167939Y63370D01*
G01X167835Y63334D01*
G01X167764Y63266D01*
G01X167731Y63162D01*
G01X167731Y63126D01*
G01X167764Y63022D01*
G01X167835Y62953D01*
G01X167939Y62918D01*
G01X167972Y62918D01*
G01X168076Y62953D01*
G01X168145Y63022D01*
G01X168181Y63126D01*
G01X165224Y61930D02*
G01X165572Y61930D01*
G01X165605Y62242D01*
G01X165572Y62207D01*
G01X165468Y62174D01*
G01X165364Y62174D01*
G01X165260Y62207D01*
G01X165191Y62278D01*
G01X165155Y62382D01*
G01X165155Y62450D01*
G01X165191Y62555D01*
G01X165260Y62623D01*
G01X165364Y62659D01*
G01X165468Y62659D01*
G01X165572Y62623D01*
G01X165605Y62588D01*
G01X165641Y62519D01*
G01X163034Y62590D02*
G01X163380Y63075D01*
G01X162859Y63075D01*
G01X163034Y62590D02*
G01X163034Y63319D01*
G01X161533Y64775D02*
G01X161152Y64775D01*
G01X161361Y65051D01*
G01X161256Y65051D01*
G01X161185Y65087D01*
G01X161152Y65123D01*
G01X161117Y65227D01*
G01X161117Y65295D01*
G01X161152Y65399D01*
G01X161221Y65468D01*
G01X161325Y65504D01*
G01X161429Y65504D01*
G01X161533Y65468D01*
G01X161566Y65432D01*
G01X161602Y65364D01*
G01X161744Y67464D02*
G01X161744Y67429D01*
G01X161711Y67360D01*
G01X161676Y67325D01*
G01X161607Y67289D01*
G01X161467Y67289D01*
G01X161399Y67325D01*
G01X161363Y67360D01*
G01X161330Y67429D01*
G01X161330Y67497D01*
G01X161363Y67566D01*
G01X161434Y67670D01*
G01X161780Y68018D01*
G01X161295Y68018D01*
G01X163278Y69893D02*
G01X163210Y69857D01*
G01X163106Y69753D01*
G01X163106Y70482D01*
G54D21*
G01X47999Y9999D02*
G01X47999Y8909D01*
G01X47999Y9999D02*
G01X48467Y9999D01*
G01X48622Y9948D01*
G01X48675Y9897D01*
G01X48726Y9793D01*
G01X48726Y9689D01*
G01X48675Y9585D01*
G01X48622Y9532D01*
G01X48467Y9481D01*
G01X47999Y9481D01*
G01X48363Y9481D02*
G01X48726Y8909D01*
G01X49069Y9793D02*
G01X49173Y9844D01*
G01X49330Y9999D01*
G01X49330Y8909D01*
G01X109999Y27999D02*
G01X109999Y26909D01*
G01X109999Y27999D02*
G01X110467Y27999D01*
G01X110622Y27948D01*
G01X110675Y27897D01*
G01X110726Y27793D01*
G01X110726Y27689D01*
G01X110675Y27585D01*
G01X110622Y27532D01*
G01X110467Y27481D01*
G01X109999Y27481D01*
G01X110362Y27481D02*
G01X110726Y26909D01*
G01X111122Y27740D02*
G01X111122Y27793D01*
G01X111173Y27897D01*
G01X111226Y27948D01*
G01X111330Y27999D01*
G01X111536Y27999D01*
G01X111640Y27948D01*
G01X111693Y27897D01*
G01X111744Y27793D01*
G01X111744Y27689D01*
G01X111693Y27585D01*
G01X111589Y27427D01*
G01X111069Y26909D01*
G01X111798Y26909D01*
G01X48999Y27999D02*
G01X48999Y26909D01*
G01X48999Y27999D02*
G01X49467Y27999D01*
G01X49622Y27948D01*
G01X49675Y27897D01*
G01X49726Y27793D01*
G01X49726Y27689D01*
G01X49675Y27585D01*
G01X49622Y27532D01*
G01X49467Y27481D01*
G01X48999Y27481D01*
G01X49363Y27481D02*
G01X49726Y26909D01*
G01X50173Y27999D02*
G01X50744Y27999D01*
G01X50435Y27585D01*
G01X50589Y27585D01*
G01X50694Y27532D01*
G01X50744Y27481D01*
G01X50798Y27326D01*
G01X50798Y27222D01*
G01X50744Y27064D01*
G01X50640Y26960D01*
G01X50485Y26909D01*
G01X50330Y26909D01*
G01X50173Y26960D01*
G01X50122Y27013D01*
G01X50069Y27118D01*
G01X64999Y51548D02*
G01X66089Y51548D01*
G01X64999Y51548D02*
G01X64999Y52015D01*
G01X65050Y52170D01*
G01X65101Y52223D01*
G01X65205Y52274D01*
G01X65309Y52274D01*
G01X65413Y52223D01*
G01X65467Y52170D01*
G01X65518Y52015D01*
G01X65518Y51548D01*
G01X65518Y51911D02*
G01X66089Y52274D01*
G01X65205Y52617D02*
G01X65154Y52721D01*
G01X64999Y52879D01*
G01X66089Y52879D01*
G01X64999Y53740D02*
G01X65726Y53222D01*
G01X65726Y53999D01*
G01X64999Y53740D02*
G01X66089Y53740D01*
G01X150999Y52599D02*
G01X152089Y52599D01*
G01X150999Y52599D02*
G01X150999Y53066D01*
G01X151050Y53221D01*
G01X151101Y53274D01*
G01X151205Y53325D01*
G01X151309Y53325D01*
G01X151413Y53274D01*
G01X151467Y53221D01*
G01X151517Y53066D01*
G01X151517Y52599D01*
G01X151517Y52962D02*
G01X152089Y53325D01*
G01X151205Y53668D02*
G01X151154Y53772D01*
G01X150999Y53930D01*
G01X152089Y53930D01*
G01X150999Y54895D02*
G01X150999Y54377D01*
G01X151467Y54323D01*
G01X151413Y54377D01*
G01X151362Y54532D01*
G01X151362Y54686D01*
G01X151413Y54844D01*
G01X151517Y54948D01*
G01X151672Y54999D01*
G01X151776Y54999D01*
G01X151934Y54948D01*
G01X152038Y54844D01*
G01X152089Y54686D01*
G01X152089Y54532D01*
G01X152038Y54377D01*
G01X151985Y54323D01*
G01X151881Y54272D01*
G54D23*
G01X5682Y27317D02*
G01X5636Y27408D01*
G01X5545Y27500D01*
G01X5453Y27545D01*
G01X5273Y27545D01*
G01X5182Y27500D01*
G01X5090Y27408D01*
G01X5044Y27317D01*
G01X4999Y27180D01*
G01X4999Y26953D01*
G01X5044Y26816D01*
G01X5090Y26727D01*
G01X5182Y26636D01*
G01X5273Y26590D01*
G01X5453Y26590D01*
G01X5545Y26636D01*
G01X5636Y26727D01*
G01X5682Y26816D01*
G01X5682Y26953D01*
G01X5453Y26953D02*
G01X5682Y26953D01*
G01X5982Y27225D02*
G01X5982Y26590D01*
G01X5982Y26953D02*
G01X6027Y27091D01*
G01X6119Y27180D01*
G01X6208Y27225D01*
G01X6345Y27225D01*
G01X6873Y27225D02*
G01X6782Y27180D01*
G01X6690Y27091D01*
G01X6645Y26953D01*
G01X6645Y26862D01*
G01X6690Y26727D01*
G01X6782Y26636D01*
G01X6873Y26590D01*
G01X7008Y26590D01*
G01X7099Y26636D01*
G01X7191Y26727D01*
G01X7236Y26862D01*
G01X7236Y26953D01*
G01X7191Y27091D01*
G01X7099Y27180D01*
G01X7008Y27225D01*
G01X6873Y27225D01*
G01X7536Y27225D02*
G01X7536Y26771D01*
G01X7582Y26636D01*
G01X7673Y26590D01*
G01X7808Y26590D01*
G01X7899Y26636D01*
G01X8037Y26771D01*
G01X8037Y27225D02*
G01X8037Y26590D01*
G01X8336Y27225D02*
G01X8336Y26590D01*
G01X8336Y27045D02*
G01X8473Y27180D01*
G01X8562Y27225D01*
G01X8700Y27225D01*
G01X8791Y27180D01*
G01X8837Y27045D01*
G01X8837Y26590D01*
G01X9682Y27545D02*
G01X9682Y26590D01*
G01X9682Y27091D02*
G01X9591Y27180D01*
G01X9500Y27225D01*
G01X9362Y27225D01*
G01X9271Y27180D01*
G01X9182Y27091D01*
G01X9136Y26953D01*
G01X9136Y26862D01*
G01X9182Y26727D01*
G01X9271Y26636D01*
G01X9362Y26590D01*
G01X9500Y26590D01*
G01X9591Y26636D01*
G01X9682Y26727D01*
G01X7408Y36999D02*
G01X7408Y36181D01*
G01X6999Y36590D02*
G01X7817Y36590D01*
G01X7408Y15999D02*
G01X7408Y15181D01*
G01X7000Y15590D02*
G01X7817Y15590D01*
G01X5001Y71544D02*
G01X5001Y70589D01*
G01X5001Y71544D02*
G01X5410Y71544D01*
G01X5544Y71498D01*
G01X5590Y71452D01*
G01X5636Y71363D01*
G01X5636Y71226D01*
G01X5590Y71135D01*
G01X5544Y71089D01*
G01X5410Y71043D01*
G01X5001Y71043D01*
G01X5935Y71544D02*
G01X5935Y70589D01*
G01X6781Y71226D02*
G01X6781Y70589D01*
G01X6781Y71089D02*
G01X6690Y71180D01*
G01X6598Y71226D01*
G01X6464Y71226D01*
G01X6372Y71180D01*
G01X6281Y71089D01*
G01X6235Y70954D01*
G01X6235Y70863D01*
G01X6281Y70726D01*
G01X6372Y70634D01*
G01X6464Y70589D01*
G01X6598Y70589D01*
G01X6690Y70634D01*
G01X6781Y70726D01*
G01X7218Y71544D02*
G01X7218Y70772D01*
G01X7264Y70634D01*
G01X7353Y70589D01*
G01X7444Y70589D01*
G01X7081Y71226D02*
G01X7399Y71226D01*
G01X7744Y70954D02*
G01X8290Y70954D01*
G01X8290Y71043D01*
G01X8244Y71135D01*
G01X8199Y71180D01*
G01X8110Y71226D01*
G01X7973Y71226D01*
G01X7881Y71180D01*
G01X7790Y71089D01*
G01X7744Y70954D01*
G01X7744Y70863D01*
G01X7790Y70726D01*
G01X7881Y70634D01*
G01X7973Y70589D01*
G01X8110Y70589D01*
G01X8199Y70634D01*
G01X8290Y70726D01*
G01X5000Y60999D02*
G01X5000Y60453D01*
G01X5035Y60344D01*
G01X5109Y60270D01*
G01X5218Y60234D01*
G01X5292Y60234D01*
G01X5398Y60270D01*
G01X5472Y60344D01*
G01X5508Y60453D01*
G01X5508Y60999D01*
G01X5749Y60999D02*
G01X5749Y60234D01*
G01X6097Y60999D02*
G01X6097Y60379D01*
G01X6135Y60270D01*
G01X6206Y60234D01*
G01X6280Y60234D01*
G01X5988Y60742D02*
G01X6244Y60742D01*
G01X6518Y60742D02*
G01X6518Y60234D01*
G01X6518Y60526D02*
G01X6557Y60636D01*
G01X6628Y60707D01*
G01X6701Y60742D01*
G01X6811Y60742D01*
G01X7486Y60742D02*
G01X7486Y60234D01*
G01X7486Y60636D02*
G01X7415Y60707D01*
G01X7341Y60742D01*
G01X7232Y60742D01*
G01X7159Y60707D01*
G01X7087Y60636D01*
G01X7049Y60526D01*
G01X7049Y60453D01*
G01X7087Y60344D01*
G01X7159Y60270D01*
G01X7232Y60234D01*
G01X7341Y60234D01*
G01X7415Y60270D01*
G01X7486Y60344D01*
G01X5000Y59183D02*
G01X5000Y58418D01*
G01X5000Y58418D02*
G01X5436Y58418D01*
G01X5675Y59183D02*
G01X5713Y59145D01*
G01X5749Y59183D01*
G01X5713Y59218D01*
G01X5675Y59183D01*
G01X5713Y58929D02*
G01X5713Y58418D01*
G01X5988Y58929D02*
G01X5988Y58418D01*
G01X5988Y58781D02*
G01X6097Y58891D01*
G01X6170Y58929D01*
G01X6280Y58929D01*
G01X6353Y58891D01*
G01X6389Y58781D01*
G01X6389Y58418D01*
G01X6628Y58710D02*
G01X7065Y58710D01*
G01X7065Y58781D01*
G01X7029Y58855D01*
G01X6993Y58891D01*
G01X6920Y58929D01*
G01X6811Y58929D01*
G01X6737Y58891D01*
G01X6666Y58820D01*
G01X6628Y58710D01*
G01X6628Y58637D01*
G01X6666Y58527D01*
G01X6737Y58454D01*
G01X6811Y58418D01*
G01X6920Y58418D01*
G01X6993Y58454D01*
G01X7065Y58527D01*
G01X7740Y58929D02*
G01X7740Y58418D01*
G01X7740Y58820D02*
G01X7669Y58891D01*
G01X7595Y58929D01*
G01X7486Y58929D01*
G01X7415Y58891D01*
G01X7341Y58820D01*
G01X7306Y58710D01*
G01X7306Y58637D01*
G01X7341Y58527D01*
G01X7415Y58454D01*
G01X7486Y58418D01*
G01X7595Y58418D01*
G01X7669Y58454D01*
G01X7740Y58527D01*
G01X7981Y58929D02*
G01X7981Y58418D01*
G01X7981Y58710D02*
G01X8017Y58820D01*
G01X8091Y58891D01*
G01X8164Y58929D01*
G01X8271Y58929D01*
G01X6000Y49999D02*
G01X6000Y49044D01*
G01X6000Y49999D02*
G01X6408Y49999D01*
G01X6543Y49953D01*
G01X6589Y49907D01*
G01X6635Y49816D01*
G01X6635Y49725D01*
G01X6589Y49636D01*
G01X6543Y49590D01*
G01X6408Y49544D01*
G01X6000Y49544D02*
G01X6408Y49544D01*
G01X6543Y49499D01*
G01X6589Y49453D01*
G01X6635Y49361D01*
G01X6635Y49227D01*
G01X6589Y49135D01*
G01X6543Y49090D01*
G01X6408Y49044D01*
G01X6000Y49044D01*
G01X7343Y49862D02*
G01X7343Y49044D01*
G01X6934Y49453D02*
G01X7752Y49453D01*
G01X6228Y85544D02*
G01X6090Y85498D01*
G01X6045Y85407D01*
G01X6045Y85318D01*
G01X6090Y85227D01*
G01X6182Y85181D01*
G01X6362Y85135D01*
G01X6499Y85090D01*
G01X6591Y84998D01*
G01X6637Y84909D01*
G01X6637Y84772D01*
G01X6591Y84681D01*
G01X6545Y84635D01*
G01X6408Y84589D01*
G01X6228Y84589D01*
G01X6090Y84635D01*
G01X6045Y84681D01*
G01X5999Y84772D01*
G01X5999Y84909D01*
G01X6045Y84998D01*
G01X6136Y85090D01*
G01X6273Y85135D01*
G01X6454Y85181D01*
G01X6545Y85227D01*
G01X6591Y85318D01*
G01X6591Y85407D01*
G01X6545Y85498D01*
G01X6408Y85544D01*
G01X6228Y85544D01*
G01X7863Y85227D02*
G01X7772Y85181D01*
G01X7680Y85090D01*
G01X7635Y84952D01*
G01X7635Y84863D01*
G01X7680Y84726D01*
G01X7772Y84635D01*
G01X7863Y84589D01*
G01X8001Y84589D01*
G01X8089Y84635D01*
G01X8181Y84726D01*
G01X8227Y84863D01*
G01X8227Y84952D01*
G01X8181Y85090D01*
G01X8089Y85181D01*
G01X8001Y85227D01*
G01X7863Y85227D01*
G01X8526Y85544D02*
G01X8526Y84589D01*
G01X8526Y85044D02*
G01X8663Y85181D01*
G01X8755Y85227D01*
G01X8890Y85227D01*
G01X8981Y85181D01*
G01X9027Y85044D01*
G01X9027Y84589D01*
G01X9326Y85227D02*
G01X9326Y84589D01*
G01X9326Y85044D02*
G01X9464Y85181D01*
G01X9555Y85227D01*
G01X9690Y85227D01*
G01X9781Y85181D01*
G01X9827Y85044D01*
G01X9827Y84589D01*
G01X9827Y85044D02*
G01X9964Y85181D01*
G01X10053Y85227D01*
G01X10190Y85227D01*
G01X10281Y85181D01*
G01X10327Y85044D01*
G01X10327Y84589D01*
G01X6273Y80545D02*
G01X6136Y80500D01*
G01X6045Y80363D01*
G01X5999Y80134D01*
G01X5999Y79999D01*
G01X6045Y79771D01*
G01X6136Y79636D01*
G01X6273Y79590D01*
G01X6362Y79590D01*
G01X6499Y79636D01*
G01X6591Y79771D01*
G01X6637Y79999D01*
G01X6637Y80134D01*
G01X6591Y80363D01*
G01X6499Y80500D01*
G01X6362Y80545D01*
G01X6273Y80545D01*
G01X7863Y80225D02*
G01X7772Y80180D01*
G01X7680Y80091D01*
G01X7635Y79954D01*
G01X7635Y79862D01*
G01X7680Y79725D01*
G01X7772Y79636D01*
G01X7863Y79590D01*
G01X8001Y79590D01*
G01X8089Y79636D01*
G01X8181Y79725D01*
G01X8227Y79862D01*
G01X8227Y79954D01*
G01X8181Y80091D01*
G01X8089Y80180D01*
G01X8001Y80225D01*
G01X7863Y80225D01*
G01X8526Y80545D02*
G01X8526Y79590D01*
G01X8526Y80045D02*
G01X8663Y80180D01*
G01X8755Y80225D01*
G01X8890Y80225D01*
G01X8981Y80180D01*
G01X9027Y80045D01*
G01X9027Y79590D01*
G01X9326Y80225D02*
G01X9326Y79590D01*
G01X9326Y80045D02*
G01X9464Y80180D01*
G01X9555Y80225D01*
G01X9690Y80225D01*
G01X9781Y80180D01*
G01X9827Y80045D01*
G01X9827Y79590D01*
G01X9827Y80045D02*
G01X9964Y80180D01*
G01X10053Y80225D01*
G01X10190Y80225D01*
G01X10281Y80180D01*
G01X10327Y80045D01*
G01X10327Y79590D01*
G01X5546Y105818D02*
G01X5510Y105890D01*
G01X5436Y105963D01*
G01X5363Y105999D01*
G01X5218Y105999D01*
G01X5144Y105963D01*
G01X5073Y105890D01*
G01X5038Y105818D01*
G01X4999Y105709D01*
G01X4999Y105526D01*
G01X5038Y105417D01*
G01X5073Y105343D01*
G01X5144Y105272D01*
G01X5218Y105234D01*
G01X5363Y105234D01*
G01X5436Y105272D01*
G01X5510Y105343D01*
G01X5546Y105417D01*
G01X6221Y105745D02*
G01X6221Y105234D01*
G01X6221Y105636D02*
G01X6150Y105709D01*
G01X6076Y105745D01*
G01X5967Y105745D01*
G01X5894Y105709D01*
G01X5822Y105636D01*
G01X5784Y105526D01*
G01X5784Y105453D01*
G01X5822Y105343D01*
G01X5894Y105272D01*
G01X5967Y105234D01*
G01X6076Y105234D01*
G01X6150Y105272D01*
G01X6221Y105343D01*
G01X6572Y105999D02*
G01X6572Y105382D01*
G01X6607Y105272D01*
G01X6681Y105234D01*
G01X6752Y105234D01*
G01X6463Y105745D02*
G01X6717Y105745D01*
G01X6993Y105999D02*
G01X6993Y105234D01*
G01X6993Y105600D02*
G01X7103Y105709D01*
G01X7174Y105745D01*
G01X7283Y105745D01*
G01X7357Y105709D01*
G01X7392Y105600D01*
G01X7392Y105234D01*
G01X7814Y105745D02*
G01X7743Y105709D01*
G01X7669Y105636D01*
G01X7633Y105526D01*
G01X7633Y105453D01*
G01X7669Y105343D01*
G01X7743Y105272D01*
G01X7814Y105234D01*
G01X7923Y105234D01*
G01X7997Y105272D01*
G01X8070Y105343D01*
G01X8106Y105453D01*
G01X8106Y105526D01*
G01X8070Y105636D01*
G01X7997Y105709D01*
G01X7923Y105745D01*
G01X7814Y105745D01*
G01X8782Y105999D02*
G01X8782Y105234D01*
G01X8782Y105636D02*
G01X8708Y105709D01*
G01X8637Y105745D01*
G01X8528Y105745D01*
G01X8454Y105709D01*
G01X8383Y105636D01*
G01X8345Y105526D01*
G01X8345Y105453D01*
G01X8383Y105343D01*
G01X8454Y105272D01*
G01X8528Y105234D01*
G01X8637Y105234D01*
G01X8708Y105272D01*
G01X8782Y105343D01*
G01X9023Y105526D02*
G01X9457Y105526D01*
G01X9457Y105600D01*
G01X9422Y105671D01*
G01X9386Y105709D01*
G01X9312Y105745D01*
G01X9203Y105745D01*
G01X9132Y105709D01*
G01X9058Y105636D01*
G01X9023Y105526D01*
G01X9023Y105453D01*
G01X9058Y105343D01*
G01X9132Y105272D01*
G01X9203Y105234D01*
G01X9312Y105234D01*
G01X9386Y105272D01*
G01X9457Y105343D01*
G01X5001Y95971D02*
G01X5001Y95257D01*
G01X5001Y95971D02*
G01X5478Y95257D01*
G01X5478Y95971D02*
G01X5478Y95257D01*
G01X5976Y95971D02*
G01X5908Y95971D01*
G01X5839Y95938D01*
G01X5803Y95836D01*
G01X5803Y95257D01*
G01X5702Y95732D02*
G01X5941Y95732D01*
G01X6200Y95971D02*
G01X6200Y95257D01*
G01X6200Y95631D02*
G01X6268Y95699D01*
G01X6337Y95732D01*
G01X6438Y95732D01*
G01X6507Y95699D01*
G01X6576Y95631D01*
G01X6609Y95529D01*
G01X6609Y95460D01*
G01X6576Y95359D01*
G01X6507Y95290D01*
G01X6438Y95257D01*
G01X6337Y95257D01*
G01X6268Y95290D01*
G01X6200Y95359D01*
G01X6835Y95971D02*
G01X6835Y95257D01*
G01X6835Y95257D02*
G01X7244Y95257D01*
G01X7640Y95732D02*
G01X7571Y95699D01*
G01X7503Y95631D01*
G01X7467Y95529D01*
G01X7467Y95460D01*
G01X7503Y95359D01*
G01X7571Y95290D01*
G01X7640Y95257D01*
G01X7741Y95257D01*
G01X7810Y95290D01*
G01X7876Y95359D01*
G01X7912Y95460D01*
G01X7912Y95529D01*
G01X7876Y95631D01*
G01X7810Y95699D01*
G01X7741Y95732D01*
G01X7640Y95732D01*
G01X8547Y95631D02*
G01X8478Y95699D01*
G01X8409Y95732D01*
G01X8308Y95732D01*
G01X8239Y95699D01*
G01X8171Y95631D01*
G01X8135Y95529D01*
G01X8135Y95460D01*
G01X8171Y95359D01*
G01X8239Y95290D01*
G01X8308Y95257D01*
G01X8409Y95257D01*
G01X8478Y95290D01*
G01X8547Y95359D01*
G01X9179Y95732D02*
G01X9179Y95257D01*
G01X9179Y95631D02*
G01X9110Y95699D01*
G01X9042Y95732D01*
G01X8940Y95732D01*
G01X8872Y95699D01*
G01X8806Y95631D01*
G01X8770Y95529D01*
G01X8770Y95460D01*
G01X8806Y95359D01*
G01X8872Y95290D01*
G01X8940Y95257D01*
G01X9042Y95257D01*
G01X9110Y95290D01*
G01X9179Y95359D01*
G01X9405Y95971D02*
G01X9405Y95257D01*
G01X4999Y116999D02*
G01X4999Y116046D01*
G01X4999Y116999D02*
G01X5637Y116046D01*
G01X5637Y116999D02*
G01X5637Y116046D01*
G01X6163Y116681D02*
G01X6074Y116636D01*
G01X5982Y116544D01*
G01X5937Y116409D01*
G01X5937Y116318D01*
G01X5982Y116181D01*
G01X6074Y116092D01*
G01X6163Y116046D01*
G01X6300Y116046D01*
G01X6391Y116092D01*
G01X6483Y116181D01*
G01X6526Y116318D01*
G01X6526Y116409D01*
G01X6483Y116544D01*
G01X6391Y116636D01*
G01X6300Y116681D01*
G01X6163Y116681D01*
G01X6828Y116999D02*
G01X6828Y116046D01*
G01X6828Y116999D02*
G01X7463Y116046D01*
G01X7463Y116999D02*
G01X7463Y116046D01*
G01X8126Y116999D02*
G01X8037Y116999D01*
G01X7946Y116956D01*
G01X7900Y116818D01*
G01X7900Y116046D01*
G01X7763Y116681D02*
G01X8083Y116681D01*
G01X8428Y116999D02*
G01X8428Y116046D01*
G01X8428Y116544D02*
G01X8517Y116636D01*
G01X8609Y116681D01*
G01X8746Y116681D01*
G01X8837Y116636D01*
G01X8926Y116544D01*
G01X8972Y116409D01*
G01X8972Y116318D01*
G01X8926Y116181D01*
G01X8837Y116092D01*
G01X8746Y116046D01*
G01X8609Y116046D01*
G01X8517Y116092D01*
G01X8428Y116181D01*
G01X49899Y121270D02*
G01X49945Y121178D01*
G01X50034Y121089D01*
G01X50125Y121044D01*
G01X50308Y121044D01*
G01X50400Y121089D01*
G01X50489Y121178D01*
G01X50534Y121270D01*
G01X50580Y121407D01*
G01X50580Y121633D01*
G01X50534Y121770D01*
G01X50489Y121862D01*
G01X50400Y121953D01*
G01X50308Y121999D01*
G01X50125Y121999D01*
G01X50034Y121953D01*
G01X49945Y121862D01*
G01X49899Y121770D01*
G01X49899Y121633D01*
G01X50125Y121633D02*
G01X49899Y121633D01*
G01X49600Y121361D02*
G01X49600Y121999D01*
G01X49600Y121633D02*
G01X49554Y121498D01*
G01X49462Y121407D01*
G01X49371Y121361D01*
G01X49234Y121361D01*
G01X48934Y121044D02*
G01X48888Y121089D01*
G01X48843Y121044D01*
G01X48888Y120998D01*
G01X48934Y121044D01*
G01X48888Y121361D02*
G01X48888Y121999D01*
G01X47999Y121044D02*
G01X47999Y121999D01*
G01X47999Y121498D02*
G01X48088Y121407D01*
G01X48180Y121361D01*
G01X48317Y121361D01*
G01X48408Y121407D01*
G01X48497Y121498D01*
G01X48543Y121633D01*
G01X48543Y121724D01*
G01X48497Y121862D01*
G01X48408Y121953D01*
G01X48317Y121999D01*
G01X48180Y121999D01*
G01X48088Y121953D01*
G01X47999Y121862D01*
G01X39271Y120418D02*
G01X39271Y120964D01*
G01X39235Y121073D01*
G01X39162Y121147D01*
G01X39053Y121183D01*
G01X38979Y121183D01*
G01X38872Y121147D01*
G01X38799Y121073D01*
G01X38763Y120964D01*
G01X38763Y120418D01*
G01X38522Y120418D02*
G01X38522Y121183D01*
G01X38174Y120418D02*
G01X38174Y121038D01*
G01X38136Y121147D01*
G01X38064Y121183D01*
G01X37991Y121183D01*
G01X38283Y120675D02*
G01X38026Y120675D01*
G01X37752Y120675D02*
G01X37752Y121183D01*
G01X37752Y120891D02*
G01X37714Y120781D01*
G01X37643Y120710D01*
G01X37569Y120675D01*
G01X37460Y120675D01*
G01X36784Y120675D02*
G01X36784Y121183D01*
G01X36784Y120781D02*
G01X36855Y120710D01*
G01X36929Y120675D01*
G01X37038Y120675D01*
G01X37112Y120710D01*
G01X37183Y120781D01*
G01X37221Y120891D01*
G01X37221Y120964D01*
G01X37183Y121073D01*
G01X37112Y121147D01*
G01X37038Y121183D01*
G01X36929Y121183D01*
G01X36855Y121147D01*
G01X36784Y121073D01*
G01X39271Y122234D02*
G01X39271Y122999D01*
G01X39271Y122999D02*
G01X38834Y122999D01*
G01X38595Y122234D02*
G01X38557Y122272D01*
G01X38522Y122234D01*
G01X38557Y122199D01*
G01X38595Y122234D01*
G01X38557Y122488D02*
G01X38557Y122999D01*
G01X38283Y122488D02*
G01X38283Y122999D01*
G01X38283Y122636D02*
G01X38174Y122526D01*
G01X38100Y122488D01*
G01X37991Y122488D01*
G01X37917Y122526D01*
G01X37882Y122636D01*
G01X37882Y122999D01*
G01X37643Y122707D02*
G01X37206Y122707D01*
G01X37206Y122636D01*
G01X37242Y122562D01*
G01X37277Y122526D01*
G01X37351Y122488D01*
G01X37460Y122488D01*
G01X37534Y122526D01*
G01X37605Y122597D01*
G01X37643Y122707D01*
G01X37643Y122780D01*
G01X37605Y122890D01*
G01X37534Y122963D01*
G01X37460Y122999D01*
G01X37351Y122999D01*
G01X37277Y122963D01*
G01X37206Y122890D01*
G01X36530Y122488D02*
G01X36530Y122999D01*
G01X36530Y122597D02*
G01X36601Y122526D01*
G01X36675Y122488D01*
G01X36784Y122488D01*
G01X36855Y122526D01*
G01X36929Y122597D01*
G01X36965Y122707D01*
G01X36965Y122780D01*
G01X36929Y122890D01*
G01X36855Y122963D01*
G01X36784Y122999D01*
G01X36675Y122999D01*
G01X36601Y122963D01*
G01X36530Y122890D01*
G01X36289Y122488D02*
G01X36289Y122999D01*
G01X36289Y122707D02*
G01X36253Y122597D01*
G01X36180Y122526D01*
G01X36106Y122488D01*
G01X35999Y122488D01*
G01X62000Y120454D02*
G01X62000Y121409D01*
G01X62000Y120454D02*
G01X61591Y120454D01*
G01X61454Y120500D01*
G01X61409Y120545D01*
G01X61363Y120634D01*
G01X61363Y120771D01*
G01X61409Y120863D01*
G01X61454Y120909D01*
G01X61591Y120954D01*
G01X62000Y120954D01*
G01X61063Y121043D02*
G01X60517Y121043D01*
G01X60517Y120954D01*
G01X60563Y120863D01*
G01X60608Y120817D01*
G01X60700Y120771D01*
G01X60835Y120771D01*
G01X60926Y120817D01*
G01X61017Y120909D01*
G01X61063Y121043D01*
G01X61063Y121135D01*
G01X61017Y121272D01*
G01X60926Y121363D01*
G01X60835Y121409D01*
G01X60700Y121409D01*
G01X60608Y121363D01*
G01X60517Y121272D01*
G01X60217Y120771D02*
G01X60217Y121409D01*
G01X60217Y120954D02*
G01X60080Y120817D01*
G01X59991Y120771D01*
G01X59854Y120771D01*
G01X59763Y120817D01*
G01X59717Y120954D01*
G01X59717Y121409D01*
G01X59280Y120454D02*
G01X59280Y121226D01*
G01X59237Y121363D01*
G01X59145Y121409D01*
G01X59054Y121409D01*
G01X59417Y120771D02*
G01X59100Y120771D01*
G01X58526Y120771D02*
G01X58617Y120817D01*
G01X58709Y120909D01*
G01X58754Y121043D01*
G01X58754Y121135D01*
G01X58709Y121272D01*
G01X58617Y121363D01*
G01X58526Y121409D01*
G01X58391Y121409D01*
G01X58300Y121363D01*
G01X58208Y121272D01*
G01X58162Y121135D01*
G01X58162Y121043D01*
G01X58208Y120909D01*
G01X58300Y120817D01*
G01X58391Y120771D01*
G01X58526Y120771D01*
G01X57317Y120454D02*
G01X57317Y121409D01*
G01X57317Y120909D02*
G01X57408Y120817D01*
G01X57500Y120771D01*
G01X57637Y120771D01*
G01X57726Y120817D01*
G01X57817Y120909D01*
G01X57863Y121043D01*
G01X57863Y121135D01*
G01X57817Y121272D01*
G01X57726Y121363D01*
G01X57637Y121409D01*
G01X57500Y121409D01*
G01X57408Y121363D01*
G01X57317Y121272D01*
G01X57017Y121043D02*
G01X56473Y121043D01*
G01X56473Y120954D01*
G01X56517Y120863D01*
G01X56562Y120817D01*
G01X56654Y120771D01*
G01X56791Y120771D01*
G01X56882Y120817D01*
G01X56971Y120909D01*
G01X57017Y121043D01*
G01X57017Y121135D01*
G01X56971Y121272D01*
G01X56882Y121363D01*
G01X56791Y121409D01*
G01X56654Y121409D01*
G01X56562Y121363D01*
G01X56473Y121272D01*
G01X190999Y71999D02*
G01X190999Y71044D01*
G01X190999Y71999D02*
G01X191408Y71999D01*
G01X191543Y71953D01*
G01X191588Y71907D01*
G01X191634Y71818D01*
G01X191634Y71681D01*
G01X191588Y71590D01*
G01X191543Y71544D01*
G01X191408Y71498D01*
G01X190999Y71498D01*
G01X191934Y71999D02*
G01X191934Y71044D01*
G01X192780Y71681D02*
G01X192780Y71044D01*
G01X192780Y71544D02*
G01X192688Y71636D01*
G01X192597Y71681D01*
G01X192462Y71681D01*
G01X192371Y71636D01*
G01X192279Y71544D01*
G01X192234Y71410D01*
G01X192234Y71318D01*
G01X192279Y71181D01*
G01X192371Y71090D01*
G01X192462Y71044D01*
G01X192597Y71044D01*
G01X192688Y71090D01*
G01X192780Y71181D01*
G01X193216Y71999D02*
G01X193216Y71227D01*
G01X193262Y71090D01*
G01X193351Y71044D01*
G01X193443Y71044D01*
G01X193079Y71681D02*
G01X193397Y71681D01*
G01X193742Y71410D02*
G01X194288Y71410D01*
G01X194288Y71498D01*
G01X194243Y71590D01*
G01X194197Y71636D01*
G01X194108Y71681D01*
G01X193971Y71681D01*
G01X193879Y71636D01*
G01X193788Y71544D01*
G01X193742Y71410D01*
G01X193742Y71318D01*
G01X193788Y71181D01*
G01X193879Y71090D01*
G01X193971Y71044D01*
G01X194108Y71044D01*
G01X194197Y71090D01*
G01X194288Y71181D01*
G01X190999Y60999D02*
G01X190999Y60453D01*
G01X191035Y60344D01*
G01X191108Y60270D01*
G01X191218Y60234D01*
G01X191291Y60234D01*
G01X191398Y60270D01*
G01X191472Y60344D01*
G01X191507Y60453D01*
G01X191507Y60999D01*
G01X191748Y60999D02*
G01X191748Y60234D01*
G01X192096Y60999D02*
G01X192096Y60379D01*
G01X192134Y60270D01*
G01X192206Y60234D01*
G01X192279Y60234D01*
G01X191987Y60742D02*
G01X192244Y60742D01*
G01X192518Y60742D02*
G01X192518Y60234D01*
G01X192518Y60526D02*
G01X192556Y60636D01*
G01X192627Y60707D01*
G01X192701Y60742D01*
G01X192810Y60742D01*
G01X193486Y60742D02*
G01X193486Y60234D01*
G01X193486Y60636D02*
G01X193415Y60707D01*
G01X193341Y60742D01*
G01X193232Y60742D01*
G01X193158Y60707D01*
G01X193087Y60636D01*
G01X193049Y60526D01*
G01X193049Y60453D01*
G01X193087Y60344D01*
G01X193158Y60270D01*
G01X193232Y60234D01*
G01X193341Y60234D01*
G01X193415Y60270D01*
G01X193486Y60344D01*
G01X190999Y59183D02*
G01X190999Y58418D01*
G01X190999Y58418D02*
G01X191436Y58418D01*
G01X191675Y59183D02*
G01X191713Y59145D01*
G01X191748Y59183D01*
G01X191713Y59218D01*
G01X191675Y59183D01*
G01X191713Y58929D02*
G01X191713Y58418D01*
G01X191987Y58929D02*
G01X191987Y58418D01*
G01X191987Y58781D02*
G01X192096Y58891D01*
G01X192170Y58929D01*
G01X192279Y58929D01*
G01X192353Y58891D01*
G01X192388Y58781D01*
G01X192388Y58418D01*
G01X192627Y58710D02*
G01X193064Y58710D01*
G01X193064Y58781D01*
G01X193029Y58855D01*
G01X192993Y58891D01*
G01X192919Y58929D01*
G01X192810Y58929D01*
G01X192736Y58891D01*
G01X192665Y58820D01*
G01X192627Y58710D01*
G01X192627Y58637D01*
G01X192665Y58527D01*
G01X192736Y58454D01*
G01X192810Y58418D01*
G01X192919Y58418D01*
G01X192993Y58454D01*
G01X193064Y58527D01*
G01X193740Y58929D02*
G01X193740Y58418D01*
G01X193740Y58820D02*
G01X193669Y58891D01*
G01X193595Y58929D01*
G01X193486Y58929D01*
G01X193415Y58891D01*
G01X193341Y58820D01*
G01X193305Y58710D01*
G01X193305Y58637D01*
G01X193341Y58527D01*
G01X193415Y58454D01*
G01X193486Y58418D01*
G01X193595Y58418D01*
G01X193669Y58454D01*
G01X193740Y58527D01*
G01X193981Y58929D02*
G01X193981Y58418D01*
G01X193981Y58710D02*
G01X194017Y58820D01*
G01X194090Y58891D01*
G01X194164Y58929D01*
G01X194271Y58929D01*
G01X191999Y49999D02*
G01X191999Y49044D01*
G01X191999Y49999D02*
G01X192408Y49999D01*
G01X192543Y49953D01*
G01X192588Y49907D01*
G01X192634Y49816D01*
G01X192634Y49725D01*
G01X192588Y49636D01*
G01X192543Y49590D01*
G01X192408Y49544D01*
G01X191999Y49544D02*
G01X192408Y49544D01*
G01X192543Y49498D01*
G01X192588Y49453D01*
G01X192634Y49361D01*
G01X192634Y49227D01*
G01X192588Y49135D01*
G01X192543Y49090D01*
G01X192408Y49044D01*
G01X191999Y49044D01*
G01X193343Y49862D02*
G01X193343Y49044D01*
G01X192934Y49453D02*
G01X193752Y49453D01*
G01X190228Y86999D02*
G01X190091Y86953D01*
G01X190045Y86862D01*
G01X190045Y86773D01*
G01X190091Y86681D01*
G01X190182Y86636D01*
G01X190362Y86590D01*
G01X190500Y86544D01*
G01X190591Y86453D01*
G01X190637Y86364D01*
G01X190637Y86227D01*
G01X190591Y86135D01*
G01X190545Y86089D01*
G01X190408Y86044D01*
G01X190228Y86044D01*
G01X190091Y86089D01*
G01X190045Y86135D01*
G01X189999Y86227D01*
G01X189999Y86364D01*
G01X190045Y86453D01*
G01X190136Y86544D01*
G01X190273Y86590D01*
G01X190454Y86636D01*
G01X190545Y86681D01*
G01X190591Y86773D01*
G01X190591Y86862D01*
G01X190545Y86953D01*
G01X190408Y86999D01*
G01X190228Y86999D01*
G01X191864Y86681D02*
G01X191772Y86636D01*
G01X191681Y86544D01*
G01X191635Y86407D01*
G01X191635Y86318D01*
G01X191681Y86181D01*
G01X191772Y86089D01*
G01X191864Y86044D01*
G01X192001Y86044D01*
G01X192090Y86089D01*
G01X192181Y86181D01*
G01X192227Y86318D01*
G01X192227Y86407D01*
G01X192181Y86544D01*
G01X192090Y86636D01*
G01X192001Y86681D01*
G01X191864Y86681D01*
G01X192526Y86999D02*
G01X192526Y86044D01*
G01X192526Y86498D02*
G01X192664Y86636D01*
G01X192755Y86681D01*
G01X192890Y86681D01*
G01X192981Y86636D01*
G01X193027Y86498D01*
G01X193027Y86044D01*
G01X193327Y86681D02*
G01X193327Y86044D01*
G01X193327Y86498D02*
G01X193464Y86636D01*
G01X193555Y86681D01*
G01X193690Y86681D01*
G01X193781Y86636D01*
G01X193827Y86498D01*
G01X193827Y86044D01*
G01X193827Y86498D02*
G01X193964Y86636D01*
G01X194053Y86681D01*
G01X194190Y86681D01*
G01X194282Y86636D01*
G01X194327Y86498D01*
G01X194327Y86044D01*
G01X190273Y80545D02*
G01X190136Y80500D01*
G01X190044Y80363D01*
G01X189999Y80134D01*
G01X189999Y79999D01*
G01X190044Y79771D01*
G01X190136Y79636D01*
G01X190273Y79590D01*
G01X190362Y79590D01*
G01X190499Y79636D01*
G01X190590Y79771D01*
G01X190636Y79999D01*
G01X190636Y80134D01*
G01X190590Y80363D01*
G01X190499Y80500D01*
G01X190362Y80545D01*
G01X190273Y80545D01*
G01X191863Y80225D02*
G01X191772Y80180D01*
G01X191680Y80091D01*
G01X191634Y79954D01*
G01X191634Y79862D01*
G01X191680Y79725D01*
G01X191772Y79636D01*
G01X191863Y79590D01*
G01X192000Y79590D01*
G01X192089Y79636D01*
G01X192180Y79725D01*
G01X192226Y79862D01*
G01X192226Y79954D01*
G01X192180Y80091D01*
G01X192089Y80180D01*
G01X192000Y80225D01*
G01X191863Y80225D01*
G01X192526Y80545D02*
G01X192526Y79590D01*
G01X192526Y80045D02*
G01X192663Y80180D01*
G01X192755Y80225D01*
G01X192889Y80225D01*
G01X192981Y80180D01*
G01X193026Y80045D01*
G01X193026Y79590D01*
G01X193326Y80225D02*
G01X193326Y79590D01*
G01X193326Y80045D02*
G01X193463Y80180D01*
G01X193555Y80225D01*
G01X193689Y80225D01*
G01X193781Y80180D01*
G01X193826Y80045D01*
G01X193826Y79590D01*
G01X193826Y80045D02*
G01X193964Y80180D01*
G01X194052Y80225D01*
G01X194190Y80225D01*
G01X194281Y80180D01*
G01X194327Y80045D01*
G01X194327Y79590D01*
G01X191545Y105255D02*
G01X191509Y105326D01*
G01X191435Y105399D01*
G01X191362Y105435D01*
G01X191217Y105435D01*
G01X191143Y105399D01*
G01X191072Y105326D01*
G01X191037Y105255D01*
G01X190999Y105145D01*
G01X190999Y104962D01*
G01X191037Y104853D01*
G01X191072Y104780D01*
G01X191143Y104708D01*
G01X191217Y104670D01*
G01X191362Y104670D01*
G01X191435Y104708D01*
G01X191509Y104780D01*
G01X191545Y104853D01*
G01X192220Y105181D02*
G01X192220Y104670D01*
G01X192220Y105072D02*
G01X192149Y105145D01*
G01X192076Y105181D01*
G01X191966Y105181D01*
G01X191893Y105145D01*
G01X191822Y105072D01*
G01X191783Y104962D01*
G01X191783Y104889D01*
G01X191822Y104780D01*
G01X191893Y104708D01*
G01X191966Y104670D01*
G01X192076Y104670D01*
G01X192149Y104708D01*
G01X192220Y104780D01*
G01X192571Y105435D02*
G01X192571Y104818D01*
G01X192606Y104708D01*
G01X192680Y104670D01*
G01X192751Y104670D01*
G01X192462Y105181D02*
G01X192716Y105181D01*
G01X192993Y105435D02*
G01X192993Y104670D01*
G01X192993Y105036D02*
G01X193102Y105145D01*
G01X193173Y105181D01*
G01X193282Y105181D01*
G01X193356Y105145D01*
G01X193391Y105036D01*
G01X193391Y104670D01*
G01X193813Y105181D02*
G01X193742Y105145D01*
G01X193668Y105072D01*
G01X193633Y104962D01*
G01X193633Y104889D01*
G01X193668Y104780D01*
G01X193742Y104708D01*
G01X193813Y104670D01*
G01X193922Y104670D01*
G01X193996Y104708D01*
G01X194069Y104780D01*
G01X194105Y104889D01*
G01X194105Y104962D01*
G01X194069Y105072D01*
G01X193996Y105145D01*
G01X193922Y105181D01*
G01X193813Y105181D01*
G01X194781Y105435D02*
G01X194781Y104670D01*
G01X194781Y105072D02*
G01X194707Y105145D01*
G01X194636Y105181D01*
G01X194527Y105181D01*
G01X194453Y105145D01*
G01X194382Y105072D01*
G01X194344Y104962D01*
G01X194344Y104889D01*
G01X194382Y104780D01*
G01X194453Y104708D01*
G01X194527Y104670D01*
G01X194636Y104670D01*
G01X194707Y104708D01*
G01X194781Y104780D01*
G01X195022Y104962D02*
G01X195456Y104962D01*
G01X195456Y105036D01*
G01X195421Y105107D01*
G01X195385Y105145D01*
G01X195312Y105181D01*
G01X195202Y105181D01*
G01X195131Y105145D01*
G01X195058Y105072D01*
G01X195022Y104962D01*
G01X195022Y104889D01*
G01X195058Y104780D01*
G01X195131Y104708D01*
G01X195202Y104670D01*
G01X195312Y104670D01*
G01X195385Y104708D01*
G01X195456Y104780D01*
G01X190999Y93999D02*
G01X190999Y93285D01*
G01X190999Y93999D02*
G01X191477Y93285D01*
G01X191477Y93999D02*
G01X191477Y93285D01*
G01X191974Y93999D02*
G01X191906Y93999D01*
G01X191837Y93966D01*
G01X191802Y93864D01*
G01X191802Y93285D01*
G01X191700Y93760D02*
G01X191939Y93760D01*
G01X192198Y93999D02*
G01X192198Y93285D01*
G01X192198Y93658D02*
G01X192267Y93727D01*
G01X192335Y93760D01*
G01X192437Y93760D01*
G01X192505Y93727D01*
G01X192574Y93658D01*
G01X192607Y93557D01*
G01X192607Y93488D01*
G01X192574Y93387D01*
G01X192505Y93318D01*
G01X192437Y93285D01*
G01X192335Y93285D01*
G01X192267Y93318D01*
G01X192198Y93387D01*
G01X192833Y93999D02*
G01X192833Y93285D01*
G01X192833Y93285D02*
G01X193242Y93285D01*
G01X193638Y93760D02*
G01X193570Y93727D01*
G01X193501Y93658D01*
G01X193465Y93557D01*
G01X193465Y93488D01*
G01X193501Y93387D01*
G01X193570Y93318D01*
G01X193638Y93285D01*
G01X193740Y93285D01*
G01X193808Y93318D01*
G01X193874Y93387D01*
G01X193910Y93488D01*
G01X193910Y93557D01*
G01X193874Y93658D01*
G01X193808Y93727D01*
G01X193740Y93760D01*
G01X193638Y93760D01*
G01X194545Y93658D02*
G01X194476Y93727D01*
G01X194408Y93760D01*
G01X194306Y93760D01*
G01X194238Y93727D01*
G01X194169Y93658D01*
G01X194133Y93557D01*
G01X194133Y93488D01*
G01X194169Y93387D01*
G01X194238Y93318D01*
G01X194306Y93285D01*
G01X194408Y93285D01*
G01X194476Y93318D01*
G01X194545Y93387D01*
G01X195177Y93760D02*
G01X195177Y93285D01*
G01X195177Y93658D02*
G01X195109Y93727D01*
G01X195040Y93760D01*
G01X194939Y93760D01*
G01X194870Y93727D01*
G01X194804Y93658D01*
G01X194768Y93557D01*
G01X194768Y93488D01*
G01X194804Y93387D01*
G01X194870Y93318D01*
G01X194939Y93285D01*
G01X195040Y93285D01*
G01X195109Y93318D01*
G01X195177Y93387D01*
G01X195403Y93999D02*
G01X195403Y93285D01*
G01X190999Y116435D02*
G01X190999Y115482D01*
G01X190999Y116435D02*
G01X191636Y115482D01*
G01X191636Y116435D02*
G01X191636Y115482D01*
G01X192162Y116117D02*
G01X192073Y116072D01*
G01X191982Y115980D01*
G01X191936Y115846D01*
G01X191936Y115754D01*
G01X191982Y115617D01*
G01X192073Y115528D01*
G01X192162Y115482D01*
G01X192299Y115482D01*
G01X192391Y115528D01*
G01X192482Y115617D01*
G01X192525Y115754D01*
G01X192525Y115846D01*
G01X192482Y115980D01*
G01X192391Y116072D01*
G01X192299Y116117D01*
G01X192162Y116117D01*
G01X192827Y116435D02*
G01X192827Y115482D01*
G01X192827Y116435D02*
G01X193462Y115482D01*
G01X193462Y116435D02*
G01X193462Y115482D01*
G01X194125Y116435D02*
G01X194036Y116435D01*
G01X193945Y116392D01*
G01X193899Y116255D01*
G01X193899Y115482D01*
G01X193762Y116117D02*
G01X194082Y116117D01*
G01X194428Y116435D02*
G01X194428Y115482D01*
G01X194428Y115980D02*
G01X194517Y116072D01*
G01X194608Y116117D01*
G01X194745Y116117D01*
G01X194837Y116072D01*
G01X194925Y115980D01*
G01X194971Y115846D01*
G01X194971Y115754D01*
G01X194925Y115617D01*
G01X194837Y115528D01*
G01X194745Y115482D01*
G01X194608Y115482D01*
G01X194517Y115528D01*
G01X194428Y115617D01*
G01X153899Y121270D02*
G01X153945Y121178D01*
G01X154034Y121089D01*
G01X154125Y121044D01*
G01X154308Y121044D01*
G01X154399Y121089D01*
G01X154488Y121178D01*
G01X154534Y121270D01*
G01X154580Y121407D01*
G01X154580Y121633D01*
G01X154534Y121770D01*
G01X154488Y121862D01*
G01X154399Y121953D01*
G01X154308Y121999D01*
G01X154125Y121999D01*
G01X154034Y121953D01*
G01X153945Y121862D01*
G01X153899Y121770D01*
G01X153899Y121633D01*
G01X154125Y121633D02*
G01X153899Y121633D01*
G01X153599Y121361D02*
G01X153599Y121999D01*
G01X153599Y121633D02*
G01X153554Y121498D01*
G01X153462Y121407D01*
G01X153371Y121361D01*
G01X153234Y121361D01*
G01X152934Y121044D02*
G01X152888Y121089D01*
G01X152842Y121044D01*
G01X152888Y120998D01*
G01X152934Y121044D01*
G01X152888Y121361D02*
G01X152888Y121999D01*
G01X151999Y121044D02*
G01X151999Y121999D01*
G01X151999Y121498D02*
G01X152088Y121407D01*
G01X152179Y121361D01*
G01X152317Y121361D01*
G01X152408Y121407D01*
G01X152497Y121498D01*
G01X152543Y121633D01*
G01X152543Y121724D01*
G01X152497Y121862D01*
G01X152408Y121953D01*
G01X152317Y121999D01*
G01X152179Y121999D01*
G01X152088Y121953D01*
G01X151999Y121862D01*
G01X165271Y120418D02*
G01X165271Y120964D01*
G01X165235Y121073D01*
G01X165161Y121147D01*
G01X165052Y121183D01*
G01X164979Y121183D01*
G01X164872Y121147D01*
G01X164798Y121073D01*
G01X164763Y120964D01*
G01X164763Y120418D01*
G01X164521Y120418D02*
G01X164521Y121183D01*
G01X164173Y120418D02*
G01X164173Y121038D01*
G01X164135Y121147D01*
G01X164064Y121183D01*
G01X163991Y121183D01*
G01X164283Y120675D02*
G01X164026Y120675D01*
G01X163752Y120675D02*
G01X163752Y121183D01*
G01X163752Y120891D02*
G01X163714Y120781D01*
G01X163643Y120710D01*
G01X163569Y120675D01*
G01X163460Y120675D01*
G01X162784Y120675D02*
G01X162784Y121183D01*
G01X162784Y120781D02*
G01X162855Y120710D01*
G01X162929Y120675D01*
G01X163038Y120675D01*
G01X163112Y120710D01*
G01X163183Y120781D01*
G01X163221Y120891D01*
G01X163221Y120964D01*
G01X163183Y121073D01*
G01X163112Y121147D01*
G01X163038Y121183D01*
G01X162929Y121183D01*
G01X162855Y121147D01*
G01X162784Y121073D01*
G01X165271Y122234D02*
G01X165271Y122999D01*
G01X165271Y122999D02*
G01X164834Y122999D01*
G01X164595Y122234D02*
G01X164557Y122272D01*
G01X164521Y122234D01*
G01X164557Y122199D01*
G01X164595Y122234D01*
G01X164557Y122488D02*
G01X164557Y122999D01*
G01X164283Y122488D02*
G01X164283Y122999D01*
G01X164283Y122636D02*
G01X164173Y122526D01*
G01X164100Y122488D01*
G01X163991Y122488D01*
G01X163917Y122526D01*
G01X163881Y122636D01*
G01X163881Y122999D01*
G01X163643Y122707D02*
G01X163206Y122707D01*
G01X163206Y122636D01*
G01X163241Y122562D01*
G01X163277Y122526D01*
G01X163350Y122488D01*
G01X163460Y122488D01*
G01X163533Y122526D01*
G01X163604Y122597D01*
G01X163643Y122707D01*
G01X163643Y122780D01*
G01X163604Y122890D01*
G01X163533Y122963D01*
G01X163460Y122999D01*
G01X163350Y122999D01*
G01X163277Y122963D01*
G01X163206Y122890D01*
G01X162530Y122488D02*
G01X162530Y122999D01*
G01X162530Y122597D02*
G01X162601Y122526D01*
G01X162675Y122488D01*
G01X162784Y122488D01*
G01X162855Y122526D01*
G01X162929Y122597D01*
G01X162964Y122707D01*
G01X162964Y122780D01*
G01X162929Y122890D01*
G01X162855Y122963D01*
G01X162784Y122999D01*
G01X162675Y122999D01*
G01X162601Y122963D01*
G01X162530Y122890D01*
G01X162289Y122488D02*
G01X162289Y122999D01*
G01X162289Y122707D02*
G01X162253Y122597D01*
G01X162179Y122526D01*
G01X162106Y122488D01*
G01X161999Y122488D01*
G01X144526Y121044D02*
G01X144526Y121999D01*
G01X144526Y121044D02*
G01X144117Y121044D01*
G01X143980Y121089D01*
G01X143934Y121135D01*
G01X143889Y121224D01*
G01X143889Y121361D01*
G01X143934Y121453D01*
G01X143980Y121498D01*
G01X144117Y121544D01*
G01X144526Y121544D01*
G01X143589Y121633D02*
G01X143043Y121633D01*
G01X143043Y121544D01*
G01X143089Y121453D01*
G01X143134Y121407D01*
G01X143226Y121361D01*
G01X143360Y121361D01*
G01X143452Y121407D01*
G01X143543Y121498D01*
G01X143589Y121633D01*
G01X143589Y121724D01*
G01X143543Y121862D01*
G01X143452Y121953D01*
G01X143360Y121999D01*
G01X143226Y121999D01*
G01X143134Y121953D01*
G01X143043Y121862D01*
G01X142743Y121361D02*
G01X142743Y121999D01*
G01X142743Y121544D02*
G01X142606Y121407D01*
G01X142517Y121361D01*
G01X142380Y121361D01*
G01X142288Y121407D01*
G01X142243Y121544D01*
G01X142243Y121999D01*
G01X141806Y121044D02*
G01X141806Y121816D01*
G01X141763Y121953D01*
G01X141671Y121999D01*
G01X141580Y121999D01*
G01X141943Y121361D02*
G01X141626Y121361D01*
G01X141052Y121361D02*
G01X141143Y121407D01*
G01X141234Y121498D01*
G01X141280Y121633D01*
G01X141280Y121724D01*
G01X141234Y121862D01*
G01X141143Y121953D01*
G01X141052Y121999D01*
G01X140917Y121999D01*
G01X140825Y121953D01*
G01X140734Y121862D01*
G01X140688Y121724D01*
G01X140688Y121633D01*
G01X140734Y121498D01*
G01X140825Y121407D01*
G01X140917Y121361D01*
G01X141052Y121361D01*
G01X139842Y121044D02*
G01X139842Y121999D01*
G01X139842Y121498D02*
G01X139934Y121407D01*
G01X140025Y121361D01*
G01X140163Y121361D01*
G01X140251Y121407D01*
G01X140343Y121498D01*
G01X140389Y121633D01*
G01X140389Y121724D01*
G01X140343Y121862D01*
G01X140251Y121953D01*
G01X140163Y121999D01*
G01X140025Y121999D01*
G01X139934Y121953D01*
G01X139842Y121862D01*
G01X139543Y121633D02*
G01X138999Y121633D01*
G01X138999Y121544D01*
G01X139042Y121453D01*
G01X139088Y121407D01*
G01X139180Y121361D01*
G01X139317Y121361D01*
G01X139408Y121407D01*
G01X139497Y121498D01*
G01X139543Y121633D01*
G01X139543Y121724D01*
G01X139497Y121862D01*
G01X139408Y121953D01*
G01X139317Y121999D01*
G01X139180Y121999D01*
G01X139088Y121953D01*
G01X138999Y121862D01*
G01X20453Y20998D02*
G01X21408Y20998D01*
G01X20453Y20998D02*
G01X20453Y21407D01*
G01X20499Y21545D01*
G01X20545Y21590D01*
G01X20636Y21636D01*
G01X20773Y21636D01*
G01X20862Y21590D01*
G01X20908Y21545D01*
G01X20953Y21407D01*
G01X20953Y20998D01*
G01X20773Y22162D02*
G01X20819Y22073D01*
G01X20908Y21981D01*
G01X21045Y21936D01*
G01X21136Y21936D01*
G01X21271Y21981D01*
G01X21362Y22073D01*
G01X21408Y22162D01*
G01X21408Y22299D01*
G01X21362Y22390D01*
G01X21271Y22482D01*
G01X21136Y22525D01*
G01X21045Y22525D01*
G01X20908Y22482D01*
G01X20819Y22390D01*
G01X20773Y22299D01*
G01X20773Y22162D01*
G01X20773Y22827D02*
G01X21408Y23008D01*
G01X20773Y23190D02*
G01X21408Y23008D01*
G01X20773Y23190D02*
G01X21408Y23371D01*
G01X20773Y23554D02*
G01X21408Y23371D01*
G01X21045Y23853D02*
G01X21045Y24400D01*
G01X20953Y24400D01*
G01X20862Y24354D01*
G01X20819Y24308D01*
G01X20773Y24217D01*
G01X20773Y24082D01*
G01X20819Y23991D01*
G01X20908Y23899D01*
G01X21045Y23853D01*
G01X21136Y23853D01*
G01X21271Y23899D01*
G01X21362Y23991D01*
G01X21408Y24082D01*
G01X21408Y24217D01*
G01X21362Y24308D01*
G01X21271Y24400D01*
G01X20773Y24699D02*
G01X21408Y24699D01*
G01X21045Y24699D02*
G01X20908Y24745D01*
G01X20819Y24836D01*
G01X20773Y24925D01*
G01X20773Y25062D01*
G01X20453Y26381D02*
G01X21408Y26381D01*
G01X20453Y26063D02*
G01X20453Y26698D01*
G01X21045Y26998D02*
G01X21045Y27544D01*
G01X20953Y27544D01*
G01X20862Y27498D01*
G01X20819Y27453D01*
G01X20773Y27364D01*
G01X20773Y27227D01*
G01X20819Y27135D01*
G01X20908Y27044D01*
G01X21045Y26998D01*
G01X21136Y26998D01*
G01X21271Y27044D01*
G01X21362Y27135D01*
G01X21408Y27227D01*
G01X21408Y27364D01*
G01X21362Y27453D01*
G01X21271Y27544D01*
G01X20773Y27844D02*
G01X21408Y27844D01*
G01X21045Y27844D02*
G01X20908Y27889D01*
G01X20819Y27981D01*
G01X20773Y28072D01*
G01X20773Y28207D01*
G01X20773Y28509D02*
G01X21408Y28509D01*
G01X20953Y28509D02*
G01X20819Y28644D01*
G01X20773Y28735D01*
G01X20773Y28872D01*
G01X20819Y28961D01*
G01X20953Y29007D01*
G01X21408Y29007D01*
G01X20953Y29007D02*
G01X20819Y29144D01*
G01X20773Y29236D01*
G01X20773Y29373D01*
G01X20819Y29462D01*
G01X20953Y29507D01*
G01X21408Y29507D01*
G01X20453Y29807D02*
G01X20499Y29853D01*
G01X20453Y29899D01*
G01X20407Y29853D01*
G01X20453Y29807D01*
G01X20773Y29853D02*
G01X21408Y29853D01*
G01X20773Y30198D02*
G01X21408Y30198D01*
G01X20953Y30198D02*
G01X20819Y30335D01*
G01X20773Y30427D01*
G01X20773Y30562D01*
G01X20819Y30653D01*
G01X20953Y30699D01*
G01X21408Y30699D01*
G01X20773Y31545D02*
G01X21408Y31545D01*
G01X20908Y31545D02*
G01X20819Y31453D01*
G01X20773Y31362D01*
G01X20773Y31227D01*
G01X20819Y31136D01*
G01X20908Y31044D01*
G01X21045Y30998D01*
G01X21136Y30998D01*
G01X21271Y31044D01*
G01X21362Y31136D01*
G01X21408Y31227D01*
G01X21408Y31362D01*
G01X21362Y31453D01*
G01X21271Y31545D01*
G01X20453Y31844D02*
G01X21408Y31844D01*
G01X20453Y50273D02*
G01X20499Y50181D01*
G01X20590Y50090D01*
G01X20682Y50044D01*
G01X20819Y49998D01*
G01X21045Y49998D01*
G01X21182Y50044D01*
G01X21271Y50090D01*
G01X21362Y50181D01*
G01X21408Y50273D01*
G01X21408Y50453D01*
G01X21362Y50544D01*
G01X21271Y50636D01*
G01X21182Y50682D01*
G01X21045Y50727D01*
G01X20819Y50727D01*
G01X20682Y50682D01*
G01X20590Y50636D01*
G01X20499Y50544D01*
G01X20453Y50453D01*
G01X20453Y50273D01*
G01X20773Y51027D02*
G01X21228Y51027D01*
G01X21362Y51073D01*
G01X21408Y51162D01*
G01X21408Y51299D01*
G01X21362Y51390D01*
G01X21228Y51525D01*
G01X20773Y51525D02*
G01X21408Y51525D01*
G01X20453Y51962D02*
G01X21228Y51962D01*
G01X21362Y52008D01*
G01X21408Y52099D01*
G01X21408Y52190D01*
G01X20773Y51827D02*
G01X20773Y52145D01*
G01X20773Y52490D02*
G01X21726Y52490D01*
G01X20908Y52490D02*
G01X20819Y52582D01*
G01X20773Y52670D01*
G01X20773Y52808D01*
G01X20819Y52899D01*
G01X20908Y52991D01*
G01X21045Y53036D01*
G01X21136Y53036D01*
G01X21271Y52991D01*
G01X21362Y52899D01*
G01X21408Y52808D01*
G01X21408Y52670D01*
G01X21362Y52582D01*
G01X21271Y52490D01*
G01X20773Y53336D02*
G01X21228Y53336D01*
G01X21362Y53382D01*
G01X21408Y53471D01*
G01X21408Y53608D01*
G01X21362Y53699D01*
G01X21228Y53836D01*
G01X20773Y53836D02*
G01X21408Y53836D01*
G01X20453Y54271D02*
G01X21228Y54271D01*
G01X21362Y54316D01*
G01X21408Y54408D01*
G01X21408Y54499D01*
G01X20773Y54136D02*
G01X20773Y54454D01*
G01X20453Y55818D02*
G01X21408Y55818D01*
G01X20453Y55500D02*
G01X20453Y56135D01*
G01X20773Y56435D02*
G01X21408Y56435D01*
G01X21045Y56435D02*
G01X20908Y56480D01*
G01X20819Y56572D01*
G01X20773Y56663D01*
G01X20773Y56798D01*
G01X20773Y57644D02*
G01X21408Y57644D01*
G01X20908Y57644D02*
G01X20819Y57552D01*
G01X20773Y57463D01*
G01X20773Y57326D01*
G01X20819Y57235D01*
G01X20908Y57143D01*
G01X21045Y57098D01*
G01X21136Y57098D01*
G01X21271Y57143D01*
G01X21362Y57235D01*
G01X21408Y57326D01*
G01X21408Y57463D01*
G01X21362Y57552D01*
G01X21271Y57644D01*
G01X20773Y57944D02*
G01X21408Y57944D01*
G01X20953Y57944D02*
G01X20819Y58081D01*
G01X20773Y58172D01*
G01X20773Y58307D01*
G01X20819Y58398D01*
G01X20953Y58444D01*
G01X21408Y58444D01*
G01X20908Y59244D02*
G01X20819Y59198D01*
G01X20773Y59064D01*
G01X20773Y58926D01*
G01X20819Y58789D01*
G01X20908Y58744D01*
G01X20999Y58789D01*
G01X21045Y58881D01*
G01X21091Y59107D01*
G01X21136Y59198D01*
G01X21228Y59244D01*
G01X21271Y59244D01*
G01X21362Y59198D01*
G01X21408Y59064D01*
G01X21408Y58926D01*
G01X21362Y58789D01*
G01X21271Y58744D01*
G01X20453Y59907D02*
G01X20453Y59818D01*
G01X20499Y59727D01*
G01X20636Y59681D01*
G01X21408Y59681D01*
G01X20773Y59544D02*
G01X20773Y59864D01*
G01X20773Y60435D02*
G01X20819Y60344D01*
G01X20908Y60252D01*
G01X21045Y60209D01*
G01X21136Y60209D01*
G01X21271Y60252D01*
G01X21362Y60344D01*
G01X21408Y60435D01*
G01X21408Y60572D01*
G01X21362Y60661D01*
G01X21271Y60753D01*
G01X21136Y60798D01*
G01X21045Y60798D01*
G01X20908Y60753D01*
G01X20819Y60661D01*
G01X20773Y60572D01*
G01X20773Y60435D01*
G01X20773Y61098D02*
G01X21408Y61098D01*
G01X21045Y61098D02*
G01X20908Y61144D01*
G01X20819Y61235D01*
G01X20773Y61327D01*
G01X20773Y61461D01*
G01X20773Y61764D02*
G01X21408Y61764D01*
G01X20953Y61764D02*
G01X20819Y61898D01*
G01X20773Y61990D01*
G01X20773Y62127D01*
G01X20819Y62216D01*
G01X20953Y62262D01*
G01X21408Y62262D01*
G01X20953Y62262D02*
G01X20819Y62399D01*
G01X20773Y62490D01*
G01X20773Y62627D01*
G01X20819Y62716D01*
G01X20953Y62762D01*
G01X21408Y62762D01*
G01X21045Y63062D02*
G01X21045Y63608D01*
G01X20953Y63608D01*
G01X20862Y63562D01*
G01X20819Y63516D01*
G01X20773Y63427D01*
G01X20773Y63290D01*
G01X20819Y63199D01*
G01X20908Y63107D01*
G01X21045Y63062D01*
G01X21136Y63062D01*
G01X21271Y63107D01*
G01X21362Y63199D01*
G01X21408Y63290D01*
G01X21408Y63427D01*
G01X21362Y63516D01*
G01X21271Y63608D01*
G01X20773Y63907D02*
G01X21408Y63907D01*
G01X21045Y63907D02*
G01X20908Y63953D01*
G01X20819Y64045D01*
G01X20773Y64136D01*
G01X20773Y64271D01*
G01X20453Y65589D02*
G01X21408Y65589D01*
G01X20453Y65271D02*
G01X20453Y65909D01*
G01X21045Y66209D02*
G01X21045Y66752D01*
G01X20953Y66752D01*
G01X20862Y66709D01*
G01X20819Y66663D01*
G01X20773Y66572D01*
G01X20773Y66435D01*
G01X20819Y66343D01*
G01X20908Y66254D01*
G01X21045Y66209D01*
G01X21136Y66209D01*
G01X21271Y66254D01*
G01X21362Y66343D01*
G01X21408Y66435D01*
G01X21408Y66572D01*
G01X21362Y66663D01*
G01X21271Y66752D01*
G01X20773Y67054D02*
G01X21408Y67054D01*
G01X21045Y67054D02*
G01X20908Y67098D01*
G01X20819Y67189D01*
G01X20773Y67281D01*
G01X20773Y67418D01*
G01X20773Y67717D02*
G01X21408Y67717D01*
G01X20953Y67717D02*
G01X20819Y67855D01*
G01X20773Y67943D01*
G01X20773Y68081D01*
G01X20819Y68172D01*
G01X20953Y68218D01*
G01X21408Y68218D01*
G01X20953Y68218D02*
G01X20819Y68352D01*
G01X20773Y68444D01*
G01X20773Y68581D01*
G01X20819Y68672D01*
G01X20953Y68718D01*
G01X21408Y68718D01*
G01X20453Y69018D02*
G01X20499Y69064D01*
G01X20453Y69107D01*
G01X20407Y69064D01*
G01X20453Y69018D01*
G01X20773Y69064D02*
G01X21408Y69064D01*
G01X20773Y69409D02*
G01X21408Y69409D01*
G01X20953Y69409D02*
G01X20819Y69544D01*
G01X20773Y69635D01*
G01X20773Y69772D01*
G01X20819Y69864D01*
G01X20953Y69907D01*
G01X21408Y69907D01*
G01X20773Y70753D02*
G01X21408Y70753D01*
G01X20908Y70753D02*
G01X20819Y70661D01*
G01X20773Y70572D01*
G01X20773Y70435D01*
G01X20819Y70344D01*
G01X20908Y70252D01*
G01X21045Y70209D01*
G01X21136Y70209D01*
G01X21271Y70252D01*
G01X21362Y70344D01*
G01X21408Y70435D01*
G01X21408Y70572D01*
G01X21362Y70661D01*
G01X21271Y70753D01*
G01X20453Y71052D02*
G01X21408Y71052D01*
G01X18454Y79270D02*
G01X18500Y79181D01*
G01X18591Y79090D01*
G01X18680Y79044D01*
G01X18817Y78999D01*
G01X19046Y78999D01*
G01X19181Y79044D01*
G01X19272Y79090D01*
G01X19363Y79181D01*
G01X19409Y79270D01*
G01X19409Y79453D01*
G01X19363Y79545D01*
G01X19272Y79636D01*
G01X19181Y79682D01*
G01X19046Y79725D01*
G01X18817Y79725D01*
G01X18680Y79682D01*
G01X18591Y79636D01*
G01X18500Y79545D01*
G01X18454Y79453D01*
G01X18454Y79270D01*
G01X18454Y80345D02*
G01X19409Y80345D01*
G01X18454Y80027D02*
G01X18454Y80662D01*
G01X18591Y82298D02*
G01X18500Y82209D01*
G01X18454Y82072D01*
G01X18454Y81889D01*
G01X18500Y81754D01*
G01X18591Y81663D01*
G01X18680Y81663D01*
G01X18772Y81709D01*
G01X18817Y81754D01*
G01X18863Y81843D01*
G01X18955Y82118D01*
G01X19000Y82209D01*
G01X19046Y82252D01*
G01X19135Y82298D01*
G01X19272Y82298D01*
G01X19363Y82209D01*
G01X19409Y82072D01*
G01X19409Y81889D01*
G01X19363Y81754D01*
G01X19272Y81663D01*
G01X19046Y82598D02*
G01X19046Y83144D01*
G01X18955Y83144D01*
G01X18863Y83098D01*
G01X18817Y83052D01*
G01X18772Y82963D01*
G01X18772Y82826D01*
G01X18817Y82735D01*
G01X18909Y82643D01*
G01X19046Y82598D01*
G01X19135Y82598D01*
G01X19272Y82643D01*
G01X19363Y82735D01*
G01X19409Y82826D01*
G01X19409Y82963D01*
G01X19363Y83052D01*
G01X19272Y83144D01*
G01X18909Y83990D02*
G01X18817Y83898D01*
G01X18772Y83807D01*
G01X18772Y83672D01*
G01X18817Y83581D01*
G01X18909Y83489D01*
G01X19046Y83444D01*
G01X19135Y83444D01*
G01X19272Y83489D01*
G01X19363Y83581D01*
G01X19409Y83672D01*
G01X19409Y83807D01*
G01X19363Y83898D01*
G01X19272Y83990D01*
G01X18772Y84518D02*
G01X18817Y84427D01*
G01X18909Y84335D01*
G01X19046Y84289D01*
G01X19135Y84289D01*
G01X19272Y84335D01*
G01X19363Y84427D01*
G01X19409Y84518D01*
G01X19409Y84653D01*
G01X19363Y84744D01*
G01X19272Y84835D01*
G01X19135Y84881D01*
G01X19046Y84881D01*
G01X18909Y84835D01*
G01X18817Y84744D01*
G01X18772Y84653D01*
G01X18772Y84518D01*
G01X18772Y85181D02*
G01X19409Y85181D01*
G01X18955Y85181D02*
G01X18817Y85318D01*
G01X18772Y85407D01*
G01X18772Y85544D01*
G01X18817Y85636D01*
G01X18955Y85681D01*
G01X19409Y85681D01*
G01X18454Y86527D02*
G01X19409Y86527D01*
G01X18909Y86527D02*
G01X18817Y86436D01*
G01X18772Y86344D01*
G01X18772Y86207D01*
G01X18817Y86118D01*
G01X18909Y86027D01*
G01X19046Y85981D01*
G01X19135Y85981D01*
G01X19272Y86027D01*
G01X19363Y86118D01*
G01X19409Y86207D01*
G01X19409Y86344D01*
G01X19363Y86436D01*
G01X19272Y86527D01*
G01X18772Y87370D02*
G01X19409Y87370D01*
G01X18909Y87370D02*
G01X18817Y87281D01*
G01X18772Y87190D01*
G01X18772Y87053D01*
G01X18817Y86961D01*
G01X18909Y86873D01*
G01X19046Y86827D01*
G01X19135Y86827D01*
G01X19272Y86873D01*
G01X19363Y86961D01*
G01X19409Y87053D01*
G01X19409Y87190D01*
G01X19363Y87281D01*
G01X19272Y87370D01*
G01X18772Y87673D02*
G01X19409Y87673D01*
G01X19046Y87673D02*
G01X18909Y87716D01*
G01X18817Y87807D01*
G01X18772Y87899D01*
G01X18772Y88036D01*
G01X18772Y88381D02*
G01X19409Y88653D01*
G01X18772Y88925D02*
G01X19409Y88653D01*
G01X19590Y88562D01*
G01X19681Y88473D01*
G01X19727Y88381D01*
G01X19727Y88336D01*
G01X20455Y98999D02*
G01X21408Y98999D01*
G01X20455Y98999D02*
G01X21408Y99634D01*
G01X20455Y99634D02*
G01X21408Y99634D01*
G01X20455Y100300D02*
G01X20455Y100208D01*
G01X20498Y100117D01*
G01X20635Y100071D01*
G01X21408Y100071D01*
G01X20773Y99934D02*
G01X20773Y100254D01*
G01X20455Y100600D02*
G01X21408Y100600D01*
G01X20910Y100600D02*
G01X20818Y100691D01*
G01X20773Y100780D01*
G01X20773Y100917D01*
G01X20818Y101008D01*
G01X20910Y101100D01*
G01X21044Y101143D01*
G01X21136Y101143D01*
G01X21273Y101100D01*
G01X21362Y101008D01*
G01X21408Y100917D01*
G01X21408Y100780D01*
G01X21362Y100691D01*
G01X21273Y100600D01*
G01X20910Y102644D02*
G01X20818Y102598D01*
G01X20773Y102461D01*
G01X20773Y102327D01*
G01X20818Y102190D01*
G01X20910Y102144D01*
G01X20999Y102190D01*
G01X21044Y102281D01*
G01X21090Y102507D01*
G01X21136Y102598D01*
G01X21227Y102644D01*
G01X21273Y102644D01*
G01X21362Y102598D01*
G01X21408Y102461D01*
G01X21408Y102327D01*
G01X21362Y102190D01*
G01X21273Y102144D01*
G01X20773Y102944D02*
G01X21408Y103127D01*
G01X20773Y103307D02*
G01X21408Y103127D01*
G01X20773Y103307D02*
G01X21408Y103490D01*
G01X20773Y103670D02*
G01X21408Y103490D01*
G01X20455Y103973D02*
G01X20498Y104016D01*
G01X20455Y104062D01*
G01X20409Y104016D01*
G01X20455Y103973D01*
G01X20773Y104016D02*
G01X21408Y104016D01*
G01X20455Y104498D02*
G01X21227Y104498D01*
G01X21362Y104544D01*
G01X21408Y104636D01*
G01X21408Y104727D01*
G01X20773Y104361D02*
G01X20773Y104681D01*
G01X20910Y105570D02*
G01X20818Y105481D01*
G01X20773Y105390D01*
G01X20773Y105253D01*
G01X20818Y105161D01*
G01X20910Y105072D01*
G01X21044Y105027D01*
G01X21136Y105027D01*
G01X21273Y105072D01*
G01X21362Y105161D01*
G01X21408Y105253D01*
G01X21408Y105390D01*
G01X21362Y105481D01*
G01X21273Y105570D01*
G01X20455Y105873D02*
G01X21408Y105873D01*
G01X20953Y105873D02*
G01X20818Y106007D01*
G01X20773Y106099D01*
G01X20773Y106236D01*
G01X20818Y106327D01*
G01X20953Y106370D01*
G01X21408Y106370D01*
G01X20455Y107508D02*
G01X21227Y107508D01*
G01X21362Y107554D01*
G01X21408Y107645D01*
G01X21408Y107734D01*
G01X20773Y107371D02*
G01X20773Y107689D01*
G01X21044Y108034D02*
G01X21044Y108580D01*
G01X20953Y108580D01*
G01X20864Y108534D01*
G01X20818Y108489D01*
G01X20773Y108400D01*
G01X20773Y108263D01*
G01X20818Y108171D01*
G01X20910Y108080D01*
G01X21044Y108034D01*
G01X21136Y108034D01*
G01X21273Y108080D01*
G01X21362Y108171D01*
G01X21408Y108263D01*
G01X21408Y108400D01*
G01X21362Y108489D01*
G01X21273Y108580D01*
G01X20773Y108880D02*
G01X21408Y108880D01*
G01X21044Y108880D02*
G01X20910Y108926D01*
G01X20818Y109017D01*
G01X20773Y109109D01*
G01X20773Y109243D01*
G01X20773Y109545D02*
G01X21408Y109545D01*
G01X20953Y109545D02*
G01X20818Y109680D01*
G01X20773Y109771D01*
G01X20773Y109909D01*
G01X20818Y110000D01*
G01X20953Y110043D01*
G01X21408Y110043D01*
G01X20953Y110043D02*
G01X20818Y110180D01*
G01X20773Y110272D01*
G01X20773Y110409D01*
G01X20818Y110498D01*
G01X20953Y110544D01*
G01X21408Y110544D01*
G01X20455Y110843D02*
G01X20498Y110889D01*
G01X20455Y110935D01*
G01X20409Y110889D01*
G01X20455Y110843D01*
G01X20773Y110889D02*
G01X21408Y110889D01*
G01X20773Y111234D02*
G01X21408Y111234D01*
G01X20953Y111234D02*
G01X20818Y111372D01*
G01X20773Y111463D01*
G01X20773Y111598D01*
G01X20818Y111689D01*
G01X20953Y111735D01*
G01X21408Y111735D01*
G01X20773Y112581D02*
G01X21408Y112581D01*
G01X20910Y112581D02*
G01X20818Y112489D01*
G01X20773Y112398D01*
G01X20773Y112263D01*
G01X20818Y112172D01*
G01X20910Y112080D01*
G01X21044Y112035D01*
G01X21136Y112035D01*
G01X21273Y112080D01*
G01X21362Y112172D01*
G01X21408Y112263D01*
G01X21408Y112398D01*
G01X21362Y112489D01*
G01X21273Y112581D01*
G01X20455Y112880D02*
G01X21408Y112880D01*
G01X38000Y109545D02*
G01X38000Y108590D01*
G01X38000Y109545D02*
G01X38635Y108590D01*
G01X38635Y109545D02*
G01X38635Y108590D01*
G01X39298Y109545D02*
G01X39209Y109545D01*
G01X39118Y109499D01*
G01X39072Y109362D01*
G01X39072Y108590D01*
G01X38935Y109227D02*
G01X39255Y109227D01*
G01X39601Y109545D02*
G01X39601Y108590D01*
G01X39601Y109090D02*
G01X39690Y109181D01*
G01X39781Y109227D01*
G01X39918Y109227D01*
G01X40010Y109181D01*
G01X40098Y109090D01*
G01X40144Y108953D01*
G01X40144Y108861D01*
G01X40098Y108727D01*
G01X40010Y108635D01*
G01X39918Y108590D01*
G01X39781Y108590D01*
G01X39690Y108635D01*
G01X39601Y108727D01*
G01X41145Y109545D02*
G01X41145Y108861D01*
G01X41191Y108727D01*
G01X41282Y108635D01*
G01X41417Y108590D01*
G01X41508Y108590D01*
G01X41645Y108635D01*
G01X41737Y108727D01*
G01X41783Y108861D01*
G01X41783Y109545D01*
G01X42082Y109545D02*
G01X42082Y108590D01*
G01X42517Y109545D02*
G01X42517Y108772D01*
G01X42562Y108635D01*
G01X42654Y108590D01*
G01X42745Y108590D01*
G01X42382Y109227D02*
G01X42699Y109227D01*
G01X43045Y109227D02*
G01X43045Y108590D01*
G01X43045Y108953D02*
G01X43091Y109090D01*
G01X43182Y109181D01*
G01X43271Y109227D01*
G01X43408Y109227D01*
G01X44254Y109227D02*
G01X44254Y108590D01*
G01X44254Y109090D02*
G01X44162Y109181D01*
G01X44071Y109227D01*
G01X43936Y109227D01*
G01X43845Y109181D01*
G01X43754Y109090D01*
G01X43708Y108953D01*
G01X43708Y108861D01*
G01X43754Y108727D01*
G01X43845Y108635D01*
G01X43936Y108590D01*
G01X44071Y108590D01*
G01X44162Y108635D01*
G01X44254Y108727D01*
G01X44554Y109545D02*
G01X44554Y108590D01*
G01X44554Y108590D02*
G01X45100Y108590D01*
G01X45399Y109545D02*
G01X45445Y109499D01*
G01X45491Y109545D01*
G01X45445Y109590D01*
G01X45399Y109545D01*
G01X45445Y109227D02*
G01X45445Y108590D01*
G01X45791Y109227D02*
G01X45791Y108590D01*
G01X45791Y109044D02*
G01X45928Y109181D01*
G01X46017Y109227D01*
G01X46154Y109227D01*
G01X46245Y109181D01*
G01X46291Y109044D01*
G01X46291Y108590D01*
G01X46591Y108953D02*
G01X47137Y108953D01*
G01X47137Y109044D01*
G01X47091Y109136D01*
G01X47045Y109181D01*
G01X46954Y109227D01*
G01X46817Y109227D01*
G01X46728Y109181D01*
G01X46636Y109090D01*
G01X46591Y108953D01*
G01X46591Y108861D01*
G01X46636Y108727D01*
G01X46728Y108635D01*
G01X46817Y108590D01*
G01X46954Y108590D01*
G01X47045Y108635D01*
G01X47137Y108727D01*
G01X47980Y109227D02*
G01X47980Y108590D01*
G01X47980Y109090D02*
G01X47891Y109181D01*
G01X47800Y109227D01*
G01X47663Y109227D01*
G01X47571Y109181D01*
G01X47482Y109090D01*
G01X47437Y108953D01*
G01X47437Y108861D01*
G01X47482Y108727D01*
G01X47571Y108635D01*
G01X47663Y108590D01*
G01X47800Y108590D01*
G01X47891Y108635D01*
G01X47980Y108727D01*
G01X48282Y109227D02*
G01X48282Y108590D01*
G01X48282Y108953D02*
G01X48326Y109090D01*
G01X48417Y109181D01*
G01X48508Y109227D01*
G01X48646Y109227D01*
G01X49763Y109725D02*
G01X48945Y108272D01*
G01X50063Y109545D02*
G01X50063Y108590D01*
G01X50063Y109545D02*
G01X50472Y109545D01*
G01X50609Y109499D01*
G01X50655Y109453D01*
G01X50700Y109362D01*
G01X50700Y109227D01*
G01X50655Y109136D01*
G01X50609Y109090D01*
G01X50472Y109044D01*
G01X50063Y109044D01*
G01X51000Y108953D02*
G01X51544Y108953D01*
G01X51544Y109044D01*
G01X51501Y109136D01*
G01X51455Y109181D01*
G01X51363Y109227D01*
G01X51226Y109227D01*
G01X51135Y109181D01*
G01X51046Y109090D01*
G01X51000Y108953D01*
G01X51000Y108861D01*
G01X51046Y108727D01*
G01X51135Y108635D01*
G01X51226Y108590D01*
G01X51363Y108590D01*
G01X51455Y108635D01*
G01X51544Y108727D01*
G01X51846Y109227D02*
G01X51846Y108590D01*
G01X51846Y109044D02*
G01X51981Y109181D01*
G01X52072Y109227D01*
G01X52209Y109227D01*
G01X52301Y109181D01*
G01X52344Y109044D01*
G01X52344Y108590D01*
G01X52781Y109545D02*
G01X52781Y108772D01*
G01X52826Y108635D01*
G01X52918Y108590D01*
G01X53009Y108590D01*
G01X52646Y109227D02*
G01X52964Y109227D01*
G01X53535Y109227D02*
G01X53444Y109181D01*
G01X53355Y109090D01*
G01X53309Y108953D01*
G01X53309Y108861D01*
G01X53355Y108727D01*
G01X53444Y108635D01*
G01X53535Y108590D01*
G01X53672Y108590D01*
G01X53764Y108635D01*
G01X53855Y108727D01*
G01X53898Y108861D01*
G01X53898Y108953D01*
G01X53855Y109090D01*
G01X53764Y109181D01*
G01X53672Y109227D01*
G01X53535Y109227D01*
G01X54744Y109545D02*
G01X54744Y108590D01*
G01X54744Y109090D02*
G01X54653Y109181D01*
G01X54564Y109227D01*
G01X54427Y109227D01*
G01X54335Y109181D01*
G01X54244Y109090D01*
G01X54201Y108953D01*
G01X54201Y108861D01*
G01X54244Y108727D01*
G01X54335Y108635D01*
G01X54427Y108590D01*
G01X54564Y108590D01*
G01X54653Y108635D01*
G01X54744Y108727D01*
G01X55044Y108953D02*
G01X55590Y108953D01*
G01X55590Y109044D01*
G01X55544Y109136D01*
G01X55499Y109181D01*
G01X55410Y109227D01*
G01X55272Y109227D01*
G01X55181Y109181D01*
G01X55090Y109090D01*
G01X55044Y108953D01*
G01X55044Y108861D01*
G01X55090Y108727D01*
G01X55181Y108635D01*
G01X55272Y108590D01*
G01X55410Y108590D01*
G01X55499Y108635D01*
G01X55590Y108727D01*
G01X57091Y109090D02*
G01X57045Y109181D01*
G01X56908Y109227D01*
G01X56771Y109227D01*
G01X56636Y109181D01*
G01X56591Y109090D01*
G01X56636Y108999D01*
G01X56728Y108953D01*
G01X56954Y108907D01*
G01X57045Y108861D01*
G01X57091Y108772D01*
G01X57091Y108727D01*
G01X57045Y108635D01*
G01X56908Y108590D01*
G01X56771Y108590D01*
G01X56636Y108635D01*
G01X56591Y108727D01*
G01X57391Y109227D02*
G01X57571Y108590D01*
G01X57754Y109227D02*
G01X57571Y108590D01*
G01X57754Y109227D02*
G01X57937Y108590D01*
G01X58117Y109227D02*
G01X57937Y108590D01*
G01X58417Y109545D02*
G01X58463Y109499D01*
G01X58508Y109545D01*
G01X58463Y109590D01*
G01X58417Y109545D01*
G01X58463Y109227D02*
G01X58463Y108590D01*
G01X58945Y109545D02*
G01X58945Y108772D01*
G01X58991Y108635D01*
G01X59082Y108590D01*
G01X59171Y108590D01*
G01X58808Y109227D02*
G01X59126Y109227D01*
G01X60017Y109090D02*
G01X59926Y109181D01*
G01X59837Y109227D01*
G01X59700Y109227D01*
G01X59608Y109181D01*
G01X59517Y109090D01*
G01X59471Y108953D01*
G01X59471Y108861D01*
G01X59517Y108727D01*
G01X59608Y108635D01*
G01X59700Y108590D01*
G01X59837Y108590D01*
G01X59926Y108635D01*
G01X60017Y108727D01*
G01X60317Y109545D02*
G01X60317Y108590D01*
G01X60317Y109044D02*
G01X60454Y109181D01*
G01X60545Y109227D01*
G01X60680Y109227D01*
G01X60772Y109181D01*
G01X60817Y109044D01*
G01X60817Y108590D01*
G01X143000Y109545D02*
G01X143000Y108590D01*
G01X143000Y109545D02*
G01X143635Y108590D01*
G01X143635Y109545D02*
G01X143635Y108590D01*
G01X144298Y109545D02*
G01X144209Y109545D01*
G01X144118Y109499D01*
G01X144072Y109362D01*
G01X144072Y108590D01*
G01X143935Y109227D02*
G01X144255Y109227D01*
G01X144600Y109545D02*
G01X144600Y108590D01*
G01X144600Y109090D02*
G01X144689Y109181D01*
G01X144781Y109227D01*
G01X144918Y109227D01*
G01X145009Y109181D01*
G01X145098Y109090D01*
G01X145144Y108953D01*
G01X145144Y108861D01*
G01X145098Y108727D01*
G01X145009Y108635D01*
G01X144918Y108590D01*
G01X144781Y108590D01*
G01X144689Y108635D01*
G01X144600Y108727D01*
G01X146145Y109545D02*
G01X146145Y108861D01*
G01X146190Y108727D01*
G01X146282Y108635D01*
G01X146417Y108590D01*
G01X146508Y108590D01*
G01X146645Y108635D01*
G01X146737Y108727D01*
G01X146782Y108861D01*
G01X146782Y109545D01*
G01X147082Y109545D02*
G01X147082Y108590D01*
G01X147516Y109545D02*
G01X147516Y108772D01*
G01X147562Y108635D01*
G01X147654Y108590D01*
G01X147745Y108590D01*
G01X147382Y109227D02*
G01X147699Y109227D01*
G01X148045Y109227D02*
G01X148045Y108590D01*
G01X148045Y108953D02*
G01X148090Y109090D01*
G01X148182Y109181D01*
G01X148271Y109227D01*
G01X148408Y109227D01*
G01X149254Y109227D02*
G01X149254Y108590D01*
G01X149254Y109090D02*
G01X149162Y109181D01*
G01X149071Y109227D01*
G01X148936Y109227D01*
G01X148845Y109181D01*
G01X148753Y109090D01*
G01X148708Y108953D01*
G01X148708Y108861D01*
G01X148753Y108727D01*
G01X148845Y108635D01*
G01X148936Y108590D01*
G01X149071Y108590D01*
G01X149162Y108635D01*
G01X149254Y108727D01*
G01X149553Y109545D02*
G01X149553Y108590D01*
G01X149553Y108590D02*
G01X150100Y108590D01*
G01X150399Y109545D02*
G01X150445Y109499D01*
G01X150491Y109545D01*
G01X150445Y109590D01*
G01X150399Y109545D01*
G01X150445Y109227D02*
G01X150445Y108590D01*
G01X150790Y109227D02*
G01X150790Y108590D01*
G01X150790Y109044D02*
G01X150928Y109181D01*
G01X151016Y109227D01*
G01X151154Y109227D01*
G01X151245Y109181D01*
G01X151291Y109044D01*
G01X151291Y108590D01*
G01X151591Y108953D02*
G01X152137Y108953D01*
G01X152137Y109044D01*
G01X152091Y109136D01*
G01X152045Y109181D01*
G01X151954Y109227D01*
G01X151817Y109227D01*
G01X151728Y109181D01*
G01X151636Y109090D01*
G01X151591Y108953D01*
G01X151591Y108861D01*
G01X151636Y108727D01*
G01X151728Y108635D01*
G01X151817Y108590D01*
G01X151954Y108590D01*
G01X152045Y108635D01*
G01X152137Y108727D01*
G01X152980Y109227D02*
G01X152980Y108590D01*
G01X152980Y109090D02*
G01X152891Y109181D01*
G01X152800Y109227D01*
G01X152662Y109227D01*
G01X152571Y109181D01*
G01X152482Y109090D01*
G01X152436Y108953D01*
G01X152436Y108861D01*
G01X152482Y108727D01*
G01X152571Y108635D01*
G01X152662Y108590D01*
G01X152800Y108590D01*
G01X152891Y108635D01*
G01X152980Y108727D01*
G01X153282Y109227D02*
G01X153282Y108590D01*
G01X153282Y108953D02*
G01X153325Y109090D01*
G01X153417Y109181D01*
G01X153508Y109227D01*
G01X153645Y109227D01*
G01X154763Y109725D02*
G01X153945Y108272D01*
G01X155063Y109545D02*
G01X155063Y108590D01*
G01X155063Y109545D02*
G01X155472Y109545D01*
G01X155609Y109499D01*
G01X155655Y109453D01*
G01X155700Y109362D01*
G01X155700Y109227D01*
G01X155655Y109136D01*
G01X155609Y109090D01*
G01X155472Y109044D01*
G01X155063Y109044D01*
G01X156000Y108953D02*
G01X156544Y108953D01*
G01X156544Y109044D01*
G01X156500Y109136D01*
G01X156455Y109181D01*
G01X156363Y109227D01*
G01X156226Y109227D01*
G01X156135Y109181D01*
G01X156046Y109090D01*
G01X156000Y108953D01*
G01X156000Y108861D01*
G01X156046Y108727D01*
G01X156135Y108635D01*
G01X156226Y108590D01*
G01X156363Y108590D01*
G01X156455Y108635D01*
G01X156544Y108727D01*
G01X156846Y109227D02*
G01X156846Y108590D01*
G01X156846Y109044D02*
G01X156980Y109181D01*
G01X157072Y109227D01*
G01X157209Y109227D01*
G01X157300Y109181D01*
G01X157344Y109044D01*
G01X157344Y108590D01*
G01X157780Y109545D02*
G01X157780Y108772D01*
G01X157826Y108635D01*
G01X157918Y108590D01*
G01X158009Y108590D01*
G01X157646Y109227D02*
G01X157963Y109227D01*
G01X158535Y109227D02*
G01X158443Y109181D01*
G01X158355Y109090D01*
G01X158309Y108953D01*
G01X158309Y108861D01*
G01X158355Y108727D01*
G01X158443Y108635D01*
G01X158535Y108590D01*
G01X158672Y108590D01*
G01X158763Y108635D01*
G01X158855Y108727D01*
G01X158898Y108861D01*
G01X158898Y108953D01*
G01X158855Y109090D01*
G01X158763Y109181D01*
G01X158672Y109227D01*
G01X158535Y109227D01*
G01X159744Y109545D02*
G01X159744Y108590D01*
G01X159744Y109090D02*
G01X159652Y109181D01*
G01X159564Y109227D01*
G01X159426Y109227D01*
G01X159335Y109181D01*
G01X159244Y109090D01*
G01X159200Y108953D01*
G01X159200Y108861D01*
G01X159244Y108727D01*
G01X159335Y108635D01*
G01X159426Y108590D01*
G01X159564Y108590D01*
G01X159652Y108635D01*
G01X159744Y108727D01*
G01X160044Y108953D02*
G01X160590Y108953D01*
G01X160590Y109044D01*
G01X160544Y109136D01*
G01X160498Y109181D01*
G01X160409Y109227D01*
G01X160272Y109227D01*
G01X160181Y109181D01*
G01X160089Y109090D01*
G01X160044Y108953D01*
G01X160044Y108861D01*
G01X160089Y108727D01*
G01X160181Y108635D01*
G01X160272Y108590D01*
G01X160409Y108590D01*
G01X160498Y108635D01*
G01X160590Y108727D01*
G01X162091Y109090D02*
G01X162045Y109181D01*
G01X161908Y109227D01*
G01X161771Y109227D01*
G01X161636Y109181D01*
G01X161590Y109090D01*
G01X161636Y108999D01*
G01X161728Y108953D01*
G01X161954Y108907D01*
G01X162045Y108861D01*
G01X162091Y108772D01*
G01X162091Y108727D01*
G01X162045Y108635D01*
G01X161908Y108590D01*
G01X161771Y108590D01*
G01X161636Y108635D01*
G01X161590Y108727D01*
G01X162391Y109227D02*
G01X162571Y108590D01*
G01X162754Y109227D02*
G01X162571Y108590D01*
G01X162754Y109227D02*
G01X162937Y108590D01*
G01X163117Y109227D02*
G01X162937Y108590D01*
G01X163417Y109545D02*
G01X163462Y109499D01*
G01X163508Y109545D01*
G01X163462Y109590D01*
G01X163417Y109545D01*
G01X163462Y109227D02*
G01X163462Y108590D01*
G01X163945Y109545D02*
G01X163945Y108772D01*
G01X163991Y108635D01*
G01X164082Y108590D01*
G01X164171Y108590D01*
G01X163808Y109227D02*
G01X164125Y109227D01*
G01X165017Y109090D02*
G01X164926Y109181D01*
G01X164837Y109227D01*
G01X164699Y109227D01*
G01X164608Y109181D01*
G01X164517Y109090D01*
G01X164471Y108953D01*
G01X164471Y108861D01*
G01X164517Y108727D01*
G01X164608Y108635D01*
G01X164699Y108590D01*
G01X164837Y108590D01*
G01X164926Y108635D01*
G01X165017Y108727D01*
G01X165317Y109545D02*
G01X165317Y108590D01*
G01X165317Y109044D02*
G01X165454Y109181D01*
G01X165545Y109227D01*
G01X165680Y109227D01*
G01X165771Y109181D01*
G01X165817Y109044D01*
G01X165817Y108590D01*
G01X179543Y110998D02*
G01X178591Y110998D01*
G01X179543Y110998D02*
G01X178591Y110363D01*
G01X179543Y110363D02*
G01X178591Y110363D01*
G01X179543Y109698D02*
G01X179543Y109789D01*
G01X179500Y109881D01*
G01X179363Y109926D01*
G01X178591Y109926D01*
G01X179226Y110064D02*
G01X179226Y109744D01*
G01X179543Y109398D02*
G01X178591Y109398D01*
G01X179089Y109398D02*
G01X179180Y109307D01*
G01X179226Y109218D01*
G01X179226Y109081D01*
G01X179180Y108989D01*
G01X179089Y108898D01*
G01X178954Y108855D01*
G01X178863Y108855D01*
G01X178726Y108898D01*
G01X178637Y108989D01*
G01X178591Y109081D01*
G01X178591Y109218D01*
G01X178637Y109307D01*
G01X178726Y109398D01*
G01X179089Y107353D02*
G01X179180Y107399D01*
G01X179226Y107536D01*
G01X179226Y107671D01*
G01X179180Y107808D01*
G01X179089Y107854D01*
G01X179000Y107808D01*
G01X178954Y107717D01*
G01X178908Y107491D01*
G01X178863Y107399D01*
G01X178771Y107353D01*
G01X178726Y107353D01*
G01X178637Y107399D01*
G01X178591Y107536D01*
G01X178591Y107671D01*
G01X178637Y107808D01*
G01X178726Y107854D01*
G01X179226Y107054D02*
G01X178591Y106871D01*
G01X179226Y106690D02*
G01X178591Y106871D01*
G01X179226Y106690D02*
G01X178591Y106508D01*
G01X179226Y106327D02*
G01X178591Y106508D01*
G01X179543Y106025D02*
G01X179500Y105982D01*
G01X179543Y105936D01*
G01X179589Y105982D01*
G01X179543Y106025D01*
G01X179226Y105982D02*
G01X178591Y105982D01*
G01X179543Y105499D02*
G01X178771Y105499D01*
G01X178637Y105453D01*
G01X178591Y105362D01*
G01X178591Y105271D01*
G01X179226Y105636D02*
G01X179226Y105316D01*
G01X179089Y104427D02*
G01X179180Y104516D01*
G01X179226Y104608D01*
G01X179226Y104745D01*
G01X179180Y104836D01*
G01X179089Y104925D01*
G01X178954Y104971D01*
G01X178863Y104971D01*
G01X178726Y104925D01*
G01X178637Y104836D01*
G01X178591Y104745D01*
G01X178591Y104608D01*
G01X178637Y104516D01*
G01X178726Y104427D01*
G01X179543Y104125D02*
G01X178591Y104125D01*
G01X179046Y104125D02*
G01X179180Y103990D01*
G01X179226Y103899D01*
G01X179226Y103762D01*
G01X179180Y103670D01*
G01X179046Y103627D01*
G01X178591Y103627D01*
G01X179543Y102489D02*
G01X178771Y102489D01*
G01X178637Y102444D01*
G01X178591Y102352D01*
G01X178591Y102263D01*
G01X179226Y102626D02*
G01X179226Y102309D01*
G01X178954Y101963D02*
G01X178954Y101417D01*
G01X179046Y101417D01*
G01X179135Y101463D01*
G01X179180Y101509D01*
G01X179226Y101598D01*
G01X179226Y101735D01*
G01X179180Y101826D01*
G01X179089Y101918D01*
G01X178954Y101963D01*
G01X178863Y101963D01*
G01X178726Y101918D01*
G01X178637Y101826D01*
G01X178591Y101735D01*
G01X178591Y101598D01*
G01X178637Y101509D01*
G01X178726Y101417D01*
G01X179226Y101118D02*
G01X178591Y101118D01*
G01X178954Y101118D02*
G01X179089Y101072D01*
G01X179180Y100981D01*
G01X179226Y100889D01*
G01X179226Y100754D01*
G01X179226Y100452D02*
G01X178591Y100452D01*
G01X179046Y100452D02*
G01X179180Y100318D01*
G01X179226Y100226D01*
G01X179226Y100089D01*
G01X179180Y99998D01*
G01X179046Y99954D01*
G01X178591Y99954D01*
G01X179046Y99954D02*
G01X179180Y99817D01*
G01X179226Y99726D01*
G01X179226Y99589D01*
G01X179180Y99500D01*
G01X179046Y99454D01*
G01X178591Y99454D01*
G01X179543Y99154D02*
G01X179500Y99109D01*
G01X179543Y99063D01*
G01X179589Y99109D01*
G01X179543Y99154D01*
G01X179226Y99109D02*
G01X178591Y99109D01*
G01X179226Y98763D02*
G01X178591Y98763D01*
G01X179046Y98763D02*
G01X179180Y98626D01*
G01X179226Y98534D01*
G01X179226Y98400D01*
G01X179180Y98308D01*
G01X179046Y98263D01*
G01X178591Y98263D01*
G01X179226Y97417D02*
G01X178591Y97417D01*
G01X179089Y97417D02*
G01X179180Y97508D01*
G01X179226Y97600D01*
G01X179226Y97734D01*
G01X179180Y97826D01*
G01X179089Y97917D01*
G01X178954Y97963D01*
G01X178863Y97963D01*
G01X178726Y97917D01*
G01X178637Y97826D01*
G01X178591Y97734D01*
G01X178591Y97600D01*
G01X178637Y97508D01*
G01X178726Y97417D01*
G01X179543Y97117D02*
G01X178591Y97117D01*
G01X181544Y85727D02*
G01X181499Y85816D01*
G01X181407Y85908D01*
G01X181318Y85953D01*
G01X181181Y85999D01*
G01X180953Y85999D01*
G01X180818Y85953D01*
G01X180727Y85908D01*
G01X180635Y85816D01*
G01X180589Y85727D01*
G01X180589Y85544D01*
G01X180635Y85453D01*
G01X180727Y85362D01*
G01X180818Y85316D01*
G01X180953Y85273D01*
G01X181181Y85273D01*
G01X181318Y85316D01*
G01X181407Y85362D01*
G01X181499Y85453D01*
G01X181544Y85544D01*
G01X181544Y85727D01*
G01X181544Y84653D02*
G01X180589Y84653D01*
G01X181544Y84970D02*
G01X181544Y84335D01*
G01X181407Y82700D02*
G01X181499Y82789D01*
G01X181544Y82926D01*
G01X181544Y83109D01*
G01X181499Y83243D01*
G01X181407Y83335D01*
G01X181318Y83335D01*
G01X181227Y83289D01*
G01X181181Y83243D01*
G01X181136Y83154D01*
G01X181044Y82880D01*
G01X180998Y82789D01*
G01X180953Y82745D01*
G01X180864Y82700D01*
G01X180727Y82700D01*
G01X180635Y82789D01*
G01X180589Y82926D01*
G01X180589Y83109D01*
G01X180635Y83243D01*
G01X180727Y83335D01*
G01X180953Y82400D02*
G01X180953Y81854D01*
G01X181044Y81854D01*
G01X181136Y81900D01*
G01X181181Y81945D01*
G01X181227Y82034D01*
G01X181227Y82171D01*
G01X181181Y82263D01*
G01X181090Y82354D01*
G01X180953Y82400D01*
G01X180864Y82400D01*
G01X180727Y82354D01*
G01X180635Y82263D01*
G01X180589Y82171D01*
G01X180589Y82034D01*
G01X180635Y81945D01*
G01X180727Y81854D01*
G01X181090Y81008D02*
G01X181181Y81099D01*
G01X181227Y81191D01*
G01X181227Y81325D01*
G01X181181Y81417D01*
G01X181090Y81508D01*
G01X180953Y81554D01*
G01X180864Y81554D01*
G01X180727Y81508D01*
G01X180635Y81417D01*
G01X180589Y81325D01*
G01X180589Y81191D01*
G01X180635Y81099D01*
G01X180727Y81008D01*
G01X181227Y80480D02*
G01X181181Y80571D01*
G01X181090Y80663D01*
G01X180953Y80708D01*
G01X180864Y80708D01*
G01X180727Y80663D01*
G01X180635Y80571D01*
G01X180589Y80480D01*
G01X180589Y80345D01*
G01X180635Y80254D01*
G01X180727Y80162D01*
G01X180864Y80116D01*
G01X180953Y80116D01*
G01X181090Y80162D01*
G01X181181Y80254D01*
G01X181227Y80345D01*
G01X181227Y80480D01*
G01X181227Y79817D02*
G01X180589Y79817D01*
G01X181044Y79817D02*
G01X181181Y79680D01*
G01X181227Y79591D01*
G01X181227Y79453D01*
G01X181181Y79362D01*
G01X181044Y79316D01*
G01X180589Y79316D01*
G01X181544Y78471D02*
G01X180589Y78471D01*
G01X181090Y78471D02*
G01X181181Y78562D01*
G01X181227Y78653D01*
G01X181227Y78791D01*
G01X181181Y78879D01*
G01X181090Y78971D01*
G01X180953Y79017D01*
G01X180864Y79017D01*
G01X180727Y78971D01*
G01X180635Y78879D01*
G01X180589Y78791D01*
G01X180589Y78653D01*
G01X180635Y78562D01*
G01X180727Y78471D01*
G01X181227Y77627D02*
G01X180589Y77627D01*
G01X181090Y77627D02*
G01X181181Y77716D01*
G01X181227Y77808D01*
G01X181227Y77945D01*
G01X181181Y78036D01*
G01X181090Y78125D01*
G01X180953Y78171D01*
G01X180864Y78171D01*
G01X180727Y78125D01*
G01X180635Y78036D01*
G01X180589Y77945D01*
G01X180589Y77808D01*
G01X180635Y77716D01*
G01X180727Y77627D01*
G01X181227Y77325D02*
G01X180589Y77325D01*
G01X180953Y77325D02*
G01X181090Y77282D01*
G01X181181Y77190D01*
G01X181227Y77099D01*
G01X181227Y76962D01*
G01X181227Y76616D02*
G01X180589Y76345D01*
G01X181227Y76073D02*
G01X180589Y76345D01*
G01X180409Y76436D01*
G01X180318Y76525D01*
G01X180272Y76616D01*
G01X180272Y76662D01*
G01X179545Y67725D02*
G01X179500Y67816D01*
G01X179408Y67908D01*
G01X179317Y67954D01*
G01X179180Y67999D01*
G01X178954Y67999D01*
G01X178817Y67954D01*
G01X178728Y67908D01*
G01X178636Y67816D01*
G01X178590Y67725D01*
G01X178590Y67545D01*
G01X178636Y67453D01*
G01X178728Y67362D01*
G01X178817Y67316D01*
G01X178954Y67270D01*
G01X179180Y67270D01*
G01X179317Y67316D01*
G01X179408Y67362D01*
G01X179500Y67453D01*
G01X179545Y67545D01*
G01X179545Y67725D01*
G01X179225Y66971D02*
G01X178771Y66971D01*
G01X178636Y66925D01*
G01X178590Y66836D01*
G01X178590Y66699D01*
G01X178636Y66607D01*
G01X178771Y66473D01*
G01X179225Y66473D02*
G01X178590Y66473D01*
G01X179545Y66036D02*
G01X178771Y66036D01*
G01X178636Y65990D01*
G01X178590Y65899D01*
G01X178590Y65807D01*
G01X179225Y66171D02*
G01X179225Y65853D01*
G01X179225Y65508D02*
G01X178273Y65508D01*
G01X179091Y65508D02*
G01X179180Y65416D01*
G01X179225Y65327D01*
G01X179225Y65190D01*
G01X179180Y65099D01*
G01X179091Y65007D01*
G01X178954Y64962D01*
G01X178862Y64962D01*
G01X178728Y65007D01*
G01X178636Y65099D01*
G01X178590Y65190D01*
G01X178590Y65327D01*
G01X178636Y65416D01*
G01X178728Y65508D01*
G01X179225Y64662D02*
G01X178771Y64662D01*
G01X178636Y64616D01*
G01X178590Y64527D01*
G01X178590Y64390D01*
G01X178636Y64299D01*
G01X178771Y64161D01*
G01X179225Y64161D02*
G01X178590Y64161D01*
G01X179545Y63727D02*
G01X178771Y63727D01*
G01X178636Y63681D01*
G01X178590Y63590D01*
G01X178590Y63498D01*
G01X179225Y63862D02*
G01X179225Y63544D01*
G01X179545Y62180D02*
G01X178590Y62180D01*
G01X179545Y62498D02*
G01X179545Y61863D01*
G01X179225Y61563D02*
G01X178590Y61563D01*
G01X178954Y61563D02*
G01X179091Y61517D01*
G01X179180Y61426D01*
G01X179225Y61334D01*
G01X179225Y61200D01*
G01X179225Y60354D02*
G01X178590Y60354D01*
G01X179091Y60354D02*
G01X179180Y60445D01*
G01X179225Y60534D01*
G01X179225Y60671D01*
G01X179180Y60763D01*
G01X179091Y60854D01*
G01X178954Y60900D01*
G01X178862Y60900D01*
G01X178728Y60854D01*
G01X178636Y60763D01*
G01X178590Y60671D01*
G01X178590Y60534D01*
G01X178636Y60445D01*
G01X178728Y60354D01*
G01X179225Y60054D02*
G01X178590Y60054D01*
G01X179045Y60054D02*
G01X179180Y59917D01*
G01X179225Y59826D01*
G01X179225Y59691D01*
G01X179180Y59600D01*
G01X179045Y59554D01*
G01X178590Y59554D01*
G01X179091Y58754D02*
G01X179180Y58799D01*
G01X179225Y58934D01*
G01X179225Y59071D01*
G01X179180Y59208D01*
G01X179091Y59254D01*
G01X178999Y59208D01*
G01X178954Y59117D01*
G01X178908Y58891D01*
G01X178862Y58799D01*
G01X178771Y58754D01*
G01X178728Y58754D01*
G01X178636Y58799D01*
G01X178590Y58934D01*
G01X178590Y59071D01*
G01X178636Y59208D01*
G01X178728Y59254D01*
G01X179545Y58091D02*
G01X179545Y58180D01*
G01X179500Y58271D01*
G01X179363Y58317D01*
G01X178590Y58317D01*
G01X179225Y58454D02*
G01X179225Y58134D01*
G01X179225Y57563D02*
G01X179180Y57654D01*
G01X179091Y57745D01*
G01X178954Y57789D01*
G01X178862Y57789D01*
G01X178728Y57745D01*
G01X178636Y57654D01*
G01X178590Y57563D01*
G01X178590Y57425D01*
G01X178636Y57336D01*
G01X178728Y57245D01*
G01X178862Y57199D01*
G01X178954Y57199D01*
G01X179091Y57245D01*
G01X179180Y57336D01*
G01X179225Y57425D01*
G01X179225Y57563D01*
G01X179225Y56900D02*
G01X178590Y56900D01*
G01X178954Y56900D02*
G01X179091Y56854D01*
G01X179180Y56762D01*
G01X179225Y56671D01*
G01X179225Y56536D01*
G01X179225Y56234D02*
G01X178590Y56234D01*
G01X179045Y56234D02*
G01X179180Y56099D01*
G01X179225Y56008D01*
G01X179225Y55871D01*
G01X179180Y55782D01*
G01X179045Y55736D01*
G01X178590Y55736D01*
G01X179045Y55736D02*
G01X179180Y55599D01*
G01X179225Y55508D01*
G01X179225Y55370D01*
G01X179180Y55282D01*
G01X179045Y55236D01*
G01X178590Y55236D01*
G01X178954Y54936D02*
G01X178954Y54390D01*
G01X179045Y54390D01*
G01X179137Y54436D01*
G01X179180Y54481D01*
G01X179225Y54570D01*
G01X179225Y54708D01*
G01X179180Y54799D01*
G01X179091Y54890D01*
G01X178954Y54936D01*
G01X178862Y54936D01*
G01X178728Y54890D01*
G01X178636Y54799D01*
G01X178590Y54708D01*
G01X178590Y54570D01*
G01X178636Y54481D01*
G01X178728Y54390D01*
G01X179225Y54090D02*
G01X178590Y54090D01*
G01X178954Y54090D02*
G01X179091Y54045D01*
G01X179180Y53953D01*
G01X179225Y53862D01*
G01X179225Y53727D01*
G01X179545Y52409D02*
G01X178590Y52409D01*
G01X179545Y52726D02*
G01X179545Y52089D01*
G01X178954Y51789D02*
G01X178954Y51246D01*
G01X179045Y51246D01*
G01X179137Y51289D01*
G01X179180Y51334D01*
G01X179225Y51426D01*
G01X179225Y51563D01*
G01X179180Y51654D01*
G01X179091Y51743D01*
G01X178954Y51789D01*
G01X178862Y51789D01*
G01X178728Y51743D01*
G01X178636Y51654D01*
G01X178590Y51563D01*
G01X178590Y51426D01*
G01X178636Y51334D01*
G01X178728Y51246D01*
G01X179225Y50943D02*
G01X178590Y50943D01*
G01X178954Y50943D02*
G01X179091Y50900D01*
G01X179180Y50809D01*
G01X179225Y50717D01*
G01X179225Y50580D01*
G01X179225Y50280D02*
G01X178590Y50280D01*
G01X179045Y50280D02*
G01X179180Y50143D01*
G01X179225Y50054D01*
G01X179225Y49917D01*
G01X179180Y49826D01*
G01X179045Y49780D01*
G01X178590Y49780D01*
G01X179045Y49780D02*
G01X179180Y49645D01*
G01X179225Y49554D01*
G01X179225Y49417D01*
G01X179180Y49325D01*
G01X179045Y49280D01*
G01X178590Y49280D01*
G01X179545Y48980D02*
G01X179500Y48934D01*
G01X179545Y48891D01*
G01X179591Y48934D01*
G01X179545Y48980D01*
G01X179225Y48934D02*
G01X178590Y48934D01*
G01X179225Y48589D02*
G01X178590Y48589D01*
G01X179045Y48589D02*
G01X179180Y48454D01*
G01X179225Y48363D01*
G01X179225Y48225D01*
G01X179180Y48134D01*
G01X179045Y48091D01*
G01X178590Y48091D01*
G01X179225Y47245D02*
G01X178590Y47245D01*
G01X179091Y47245D02*
G01X179180Y47336D01*
G01X179225Y47425D01*
G01X179225Y47563D01*
G01X179180Y47654D01*
G01X179091Y47745D01*
G01X178954Y47789D01*
G01X178862Y47789D01*
G01X178728Y47745D01*
G01X178636Y47654D01*
G01X178590Y47563D01*
G01X178590Y47425D01*
G01X178636Y47336D01*
G01X178728Y47245D01*
G01X179545Y46945D02*
G01X178590Y46945D01*
G01X34999Y80999D02*
G01X34999Y79853D01*
G01X34999Y80999D02*
G01X35708Y80999D01*
G01X34999Y80453D02*
G01X35436Y80453D01*
G01X34999Y79853D02*
G01X35708Y79853D01*
G01X36069Y80999D02*
G01X36069Y79853D01*
G01X36069Y79853D02*
G01X36724Y79853D01*
G01X37357Y80999D02*
G01X37191Y80946D01*
G01X37138Y80836D01*
G01X37138Y80727D01*
G01X37191Y80618D01*
G01X37301Y80562D01*
G01X37519Y80509D01*
G01X37684Y80453D01*
G01X37793Y80346D01*
G01X37847Y80237D01*
G01X37847Y80072D01*
G01X37793Y79963D01*
G01X37738Y79909D01*
G01X37575Y79853D01*
G01X37357Y79853D01*
G01X37191Y79909D01*
G01X37138Y79963D01*
G01X37085Y80072D01*
G01X37085Y80237D01*
G01X37138Y80346D01*
G01X37247Y80453D01*
G01X37410Y80509D01*
G01X37628Y80562D01*
G01X37738Y80618D01*
G01X37793Y80727D01*
G01X37793Y80836D01*
G01X37738Y80946D01*
G01X37575Y80999D01*
G01X37357Y80999D01*
G01X38754Y80999D02*
G01X38207Y80237D01*
G01X39025Y80237D01*
G01X38754Y80999D02*
G01X38754Y79853D01*
G01X162999Y80999D02*
G01X162999Y79853D01*
G01X162999Y80999D02*
G01X163708Y80999D01*
G01X162999Y80453D02*
G01X163436Y80453D01*
G01X162999Y79853D02*
G01X163708Y79853D01*
G01X164068Y80999D02*
G01X164068Y79853D01*
G01X164068Y79853D02*
G01X164724Y79853D01*
G01X165356Y80999D02*
G01X165191Y80946D01*
G01X165138Y80836D01*
G01X165138Y80727D01*
G01X165191Y80618D01*
G01X165300Y80562D01*
G01X165519Y80509D01*
G01X165684Y80453D01*
G01X165793Y80346D01*
G01X165846Y80237D01*
G01X165846Y80072D01*
G01X165793Y79963D01*
G01X165737Y79909D01*
G01X165575Y79853D01*
G01X165356Y79853D01*
G01X165191Y79909D01*
G01X165138Y79963D01*
G01X165084Y80072D01*
G01X165084Y80237D01*
G01X165138Y80346D01*
G01X165247Y80453D01*
G01X165410Y80509D01*
G01X165628Y80562D01*
G01X165737Y80618D01*
G01X165793Y80727D01*
G01X165793Y80836D01*
G01X165737Y80946D01*
G01X165575Y80999D01*
G01X165356Y80999D01*
G01X166753Y80999D02*
G01X166207Y80237D01*
G01X167025Y80237D01*
G01X166753Y80999D02*
G01X166753Y79853D01*
G01X72999Y121999D02*
G01X72999Y120091D01*
G01X72999Y121999D02*
G01X74181Y121999D01*
G01X72999Y121089D02*
G01X73726Y121089D01*
G01X72999Y120091D02*
G01X74181Y120091D01*
G01X74782Y121999D02*
G01X74782Y120091D01*
G01X74782Y120091D02*
G01X75872Y120091D01*
G01X76926Y121999D02*
G01X76654Y121910D01*
G01X76563Y121727D01*
G01X76563Y121544D01*
G01X76654Y121364D01*
G01X76837Y121272D01*
G01X77201Y121181D01*
G01X77472Y121089D01*
G01X77655Y120909D01*
G01X77744Y120726D01*
G01X77744Y120454D01*
G01X77655Y120272D01*
G01X77564Y120183D01*
G01X77292Y120091D01*
G01X76926Y120091D01*
G01X76654Y120183D01*
G01X76563Y120272D01*
G01X76472Y120454D01*
G01X76472Y120726D01*
G01X76563Y120909D01*
G01X76746Y121089D01*
G01X77018Y121181D01*
G01X77381Y121272D01*
G01X77564Y121364D01*
G01X77655Y121544D01*
G01X77655Y121727D01*
G01X77564Y121910D01*
G01X77292Y121999D01*
G01X76926Y121999D01*
G01X79255Y121999D02*
G01X78346Y120726D01*
G01X79710Y120726D01*
G01X79255Y121999D02*
G01X79255Y120091D01*
G01X82982Y121727D02*
G01X82799Y121910D01*
G01X82527Y121999D01*
G01X82164Y121999D01*
G01X81892Y121910D01*
G01X81709Y121727D01*
G01X81709Y121544D01*
G01X81801Y121364D01*
G01X81892Y121272D01*
G01X82072Y121181D01*
G01X82618Y121001D01*
G01X82799Y120909D01*
G01X82890Y120818D01*
G01X82982Y120637D01*
G01X82982Y120363D01*
G01X82799Y120183D01*
G01X82527Y120091D01*
G01X82164Y120091D01*
G01X81892Y120183D01*
G01X81709Y120363D01*
G01X83581Y121999D02*
G01X83581Y120091D01*
G01X84180Y121999D02*
G01X84180Y120091D01*
G01X84180Y121999D02*
G01X85456Y120091D01*
G01X85456Y121999D02*
G01X85456Y120091D01*
G01X87419Y121544D02*
G01X87328Y121727D01*
G01X87145Y121910D01*
G01X86964Y121999D01*
G01X86599Y121999D01*
G01X86418Y121910D01*
G01X86235Y121727D01*
G01X86146Y121544D01*
G01X86055Y121272D01*
G01X86055Y120818D01*
G01X86146Y120546D01*
G01X86235Y120363D01*
G01X86418Y120183D01*
G01X86599Y120091D01*
G01X86964Y120091D01*
G01X87145Y120183D01*
G01X87328Y120363D01*
G01X87419Y120546D01*
G01X87419Y120818D01*
G01X86964Y120818D02*
G01X87419Y120818D01*
G01X88018Y121999D02*
G01X88018Y120091D01*
G01X88018Y120091D02*
G01X89108Y120091D01*
G01X89710Y121999D02*
G01X89710Y120091D01*
G01X89710Y121999D02*
G01X90891Y121999D01*
G01X89710Y121089D02*
G01X90437Y121089D01*
G01X89710Y120091D02*
G01X90891Y120091D01*
G01X92890Y121999D02*
G01X92890Y120091D01*
G01X92890Y121999D02*
G01X94074Y121999D01*
G01X92890Y121089D02*
G01X93619Y121089D01*
G01X92890Y120091D02*
G01X94074Y120091D01*
G01X94673Y121999D02*
G01X94673Y120091D01*
G01X94673Y121999D02*
G01X95946Y120091D01*
G01X95946Y121999D02*
G01X95946Y120091D01*
G01X96545Y121999D02*
G01X96545Y120091D01*
G01X96545Y121999D02*
G01X97183Y121999D01*
G01X97455Y121910D01*
G01X97637Y121727D01*
G01X97726Y121544D01*
G01X97818Y121272D01*
G01X97818Y120818D01*
G01X97726Y120546D01*
G01X97637Y120363D01*
G01X97455Y120183D01*
G01X97183Y120091D01*
G01X96545Y120091D01*
G01X98417Y121999D02*
G01X98417Y120091D01*
G01X98417Y121999D02*
G01X99601Y121999D01*
G01X98417Y121089D02*
G01X99146Y121089D01*
G01X98417Y120091D02*
G01X99601Y120091D01*
G01X100200Y121999D02*
G01X100200Y120091D01*
G01X100200Y121999D02*
G01X100835Y121999D01*
G01X101110Y121910D01*
G01X101290Y121727D01*
G01X101381Y121544D01*
G01X101473Y121272D01*
G01X101473Y120818D01*
G01X101381Y120546D01*
G01X101290Y120363D01*
G01X101110Y120183D01*
G01X100835Y120091D01*
G01X100200Y120091D01*
G01X104109Y121999D02*
G01X104109Y120091D01*
G01X103472Y121999D02*
G01X104744Y121999D01*
G01X105346Y121999D02*
G01X105346Y120637D01*
G01X105435Y120363D01*
G01X105618Y120183D01*
G01X105890Y120091D01*
G01X106073Y120091D01*
G01X106345Y120183D01*
G01X106527Y120363D01*
G01X106619Y120637D01*
G01X106619Y121999D01*
G01X107218Y121999D02*
G01X107218Y120091D01*
G01X107218Y121999D02*
G01X108036Y121999D01*
G01X108308Y121910D01*
G01X108399Y121818D01*
G01X108491Y121636D01*
G01X108491Y121455D01*
G01X108399Y121272D01*
G01X108308Y121181D01*
G01X108036Y121089D01*
G01X107218Y121089D02*
G01X108036Y121089D01*
G01X108308Y121001D01*
G01X108399Y120909D01*
G01X108491Y120726D01*
G01X108491Y120454D01*
G01X108399Y120272D01*
G01X108308Y120183D01*
G01X108036Y120091D01*
G01X107218Y120091D01*
G01X109090Y121999D02*
G01X109090Y120091D01*
G01X109090Y121999D02*
G01X110271Y121999D01*
G01X109090Y121089D02*
G01X109817Y121089D01*
G01X109090Y120091D02*
G01X110271Y120091D01*
G01X112999Y121999D02*
G01X112273Y120091D01*
G01X112999Y121999D02*
G01X113726Y120091D01*
G01X112545Y120726D02*
G01X113454Y120726D01*
G01X114328Y121999D02*
G01X114328Y120091D01*
G01X114328Y121999D02*
G01X115054Y120091D01*
G01X115781Y121999D02*
G01X115054Y120091D01*
G01X115781Y121999D02*
G01X115781Y120091D01*
G01X116383Y121999D02*
G01X116383Y120091D01*
G01X116383Y121999D02*
G01X117200Y121999D01*
G01X117472Y121910D01*
G01X117564Y121818D01*
G01X117655Y121636D01*
G01X117655Y121364D01*
G01X117564Y121181D01*
G01X117472Y121089D01*
G01X117200Y121001D01*
G01X116383Y121001D01*
G01X119654Y121999D02*
G01X119654Y120091D01*
G01X119654Y121999D02*
G01X120472Y121999D01*
G01X120746Y121910D01*
G01X120835Y121818D01*
G01X120927Y121636D01*
G01X120927Y121455D01*
G01X120835Y121272D01*
G01X120746Y121181D01*
G01X120472Y121089D01*
G01X119654Y121089D02*
G01X120472Y121089D01*
G01X120746Y121001D01*
G01X120835Y120909D01*
G01X120927Y120726D01*
G01X120927Y120454D01*
G01X120835Y120272D01*
G01X120746Y120183D01*
G01X120472Y120091D01*
G01X119654Y120091D01*
G01X122072Y121999D02*
G01X121892Y121910D01*
G01X121709Y121727D01*
G01X121618Y121544D01*
G01X121526Y121272D01*
G01X121526Y120818D01*
G01X121618Y120546D01*
G01X121709Y120363D01*
G01X121892Y120183D01*
G01X122072Y120091D01*
G01X122435Y120091D01*
G01X122618Y120183D01*
G01X122799Y120363D01*
G01X122890Y120546D01*
G01X122982Y120818D01*
G01X122982Y121272D01*
G01X122890Y121544D01*
G01X122799Y121727D01*
G01X122618Y121910D01*
G01X122435Y121999D01*
G01X122072Y121999D01*
G01X124310Y121999D02*
G01X123581Y120091D01*
G01X124310Y121999D02*
G01X125036Y120091D01*
G01X123855Y120726D02*
G01X124765Y120726D01*
G01X125636Y121999D02*
G01X125636Y120091D01*
G01X125636Y121999D02*
G01X126454Y121999D01*
G01X126728Y121910D01*
G01X126817Y121818D01*
G01X126908Y121636D01*
G01X126908Y121455D01*
G01X126817Y121272D01*
G01X126728Y121181D01*
G01X126454Y121089D01*
G01X125636Y121089D01*
G01X126273Y121089D02*
G01X126908Y120091D01*
G01X127508Y121999D02*
G01X127508Y120091D01*
G01X127508Y121999D02*
G01X128145Y121999D01*
G01X128417Y121910D01*
G01X128600Y121727D01*
G01X128691Y121544D01*
G01X128780Y121272D01*
G01X128780Y120818D01*
G01X128691Y120546D01*
G01X128600Y120363D01*
G01X128417Y120183D01*
G01X128145Y120091D01*
G01X127508Y120091D01*
G01X82001Y109816D02*
G01X82001Y108861D01*
G01X82001Y109816D02*
G01X82410Y109816D01*
G01X82544Y109771D01*
G01X82590Y109725D01*
G01X82636Y109634D01*
G01X82636Y109496D01*
G01X82590Y109407D01*
G01X82544Y109362D01*
G01X82410Y109316D01*
G01X82001Y109316D01*
G01X82936Y109816D02*
G01X82936Y108861D01*
G01X82936Y109816D02*
G01X83345Y109816D01*
G01X83482Y109771D01*
G01X83527Y109725D01*
G01X83573Y109634D01*
G01X83573Y109542D01*
G01X83527Y109453D01*
G01X83482Y109407D01*
G01X83345Y109362D01*
G01X82936Y109362D01*
G01X83256Y109362D02*
G01X83573Y108861D01*
G01X84145Y109816D02*
G01X84053Y109771D01*
G01X83964Y109679D01*
G01X83919Y109588D01*
G01X83873Y109453D01*
G01X83873Y109225D01*
G01X83919Y109087D01*
G01X83964Y108999D01*
G01X84053Y108907D01*
G01X84145Y108861D01*
G01X84328Y108861D01*
G01X84419Y108907D01*
G01X84508Y108999D01*
G01X84554Y109087D01*
G01X84599Y109225D01*
G01X84599Y109453D01*
G01X84554Y109588D01*
G01X84508Y109679D01*
G01X84419Y109771D01*
G01X84328Y109816D01*
G01X84145Y109816D01*
G01X85219Y109816D02*
G01X85219Y108861D01*
G01X84899Y109816D02*
G01X85537Y109816D01*
G01X86108Y109816D02*
G01X86019Y109771D01*
G01X85928Y109679D01*
G01X85882Y109588D01*
G01X85836Y109453D01*
G01X85836Y109225D01*
G01X85882Y109087D01*
G01X85928Y108999D01*
G01X86019Y108907D01*
G01X86108Y108861D01*
G01X86291Y108861D01*
G01X86382Y108907D01*
G01X86474Y108999D01*
G01X86517Y109087D01*
G01X86563Y109225D01*
G01X86563Y109453D01*
G01X86517Y109588D01*
G01X86474Y109679D01*
G01X86382Y109771D01*
G01X86291Y109816D01*
G01X86108Y109816D01*
G01X87182Y109816D02*
G01X87182Y108861D01*
G01X86862Y109816D02*
G01X87500Y109816D01*
G01X87800Y109816D02*
G01X88163Y109362D01*
G01X88163Y108861D01*
G01X88526Y109816D02*
G01X88163Y109362D01*
G01X88826Y109816D02*
G01X88826Y108861D01*
G01X88826Y109816D02*
G01X89237Y109816D01*
G01X89372Y109771D01*
G01X89418Y109725D01*
G01X89463Y109634D01*
G01X89463Y109496D01*
G01X89418Y109407D01*
G01X89372Y109362D01*
G01X89237Y109316D01*
G01X88826Y109316D01*
G01X89763Y109816D02*
G01X89763Y108861D01*
G01X89763Y109816D02*
G01X90355Y109816D01*
G01X89763Y109362D02*
G01X90126Y109362D01*
G01X89763Y108861D02*
G01X90355Y108861D01*
G01X91353Y109634D02*
G01X91445Y109679D01*
G01X91582Y109816D01*
G01X91582Y108861D01*
G01X91927Y109087D02*
G01X91881Y109044D01*
G01X91927Y108999D01*
G01X91973Y109044D01*
G01X91927Y109087D01*
G01X92819Y109816D02*
G01X92364Y109816D01*
G01X92318Y109407D01*
G01X92364Y109453D01*
G01X92499Y109496D01*
G01X92636Y109496D01*
G01X92773Y109453D01*
G01X92864Y109362D01*
G01X92910Y109225D01*
G01X92910Y109133D01*
G01X92864Y108999D01*
G01X92773Y108907D01*
G01X92636Y108861D01*
G01X92499Y108861D01*
G01X92364Y108907D01*
G01X92318Y108953D01*
G01X92273Y109044D01*
G01X93908Y109634D02*
G01X94000Y109679D01*
G01X94137Y109816D01*
G01X94137Y108861D01*
G01X94891Y109816D02*
G01X94437Y109179D01*
G01X95117Y109179D01*
G01X94891Y109816D02*
G01X94891Y108861D01*
G01X96235Y109997D02*
G01X95417Y108544D01*
G01X96537Y109634D02*
G01X96626Y109679D01*
G01X96763Y109816D01*
G01X96763Y108861D01*
G01X97063Y109634D02*
G01X97155Y109679D01*
G01X97292Y109816D01*
G01X97292Y108861D01*
G01X98409Y109997D02*
G01X97591Y108544D01*
G01X98755Y109588D02*
G01X98755Y109634D01*
G01X98800Y109725D01*
G01X98846Y109771D01*
G01X98935Y109816D01*
G01X99118Y109816D01*
G01X99209Y109771D01*
G01X99255Y109725D01*
G01X99301Y109634D01*
G01X99301Y109542D01*
G01X99255Y109453D01*
G01X99164Y109316D01*
G01X98709Y108861D01*
G01X99347Y108861D01*
G01X99918Y109816D02*
G01X99781Y109771D01*
G01X99692Y109634D01*
G01X99646Y109407D01*
G01X99646Y109270D01*
G01X99692Y109044D01*
G01X99781Y108907D01*
G01X99918Y108861D01*
G01X100009Y108861D01*
G01X100144Y108907D01*
G01X100236Y109044D01*
G01X100281Y109270D01*
G01X100281Y109407D01*
G01X100236Y109634D01*
G01X100144Y109771D01*
G01X100009Y109816D01*
G01X99918Y109816D01*
G01X100581Y109634D02*
G01X100672Y109679D01*
G01X100810Y109816D01*
G01X100810Y108861D01*
G01X101335Y109816D02*
G01X101201Y109771D01*
G01X101155Y109679D01*
G01X101155Y109588D01*
G01X101201Y109496D01*
G01X101290Y109453D01*
G01X101473Y109407D01*
G01X101610Y109362D01*
G01X101699Y109270D01*
G01X101744Y109179D01*
G01X101744Y109044D01*
G01X101699Y108953D01*
G01X101655Y108907D01*
G01X101518Y108861D01*
G01X101335Y108861D01*
G01X101201Y108907D01*
G01X101155Y108953D01*
G01X101109Y109044D01*
G01X101109Y109179D01*
G01X101155Y109270D01*
G01X101246Y109362D01*
G01X101381Y109407D01*
G01X101564Y109453D01*
G01X101655Y109496D01*
G01X101699Y109588D01*
G01X101699Y109679D01*
G01X101655Y109771D01*
G01X101518Y109816D01*
G01X101335Y109816D01*
G01X102745Y109816D02*
G01X102745Y108861D01*
G01X102745Y109816D02*
G01X103154Y109816D01*
G01X103291Y109771D01*
G01X103337Y109725D01*
G01X103383Y109634D01*
G01X103383Y109542D01*
G01X103337Y109453D01*
G01X103291Y109407D01*
G01X103154Y109362D01*
G01X102745Y109362D02*
G01X103154Y109362D01*
G01X103291Y109316D01*
G01X103337Y109270D01*
G01X103383Y109179D01*
G01X103383Y109044D01*
G01X103337Y108953D01*
G01X103291Y108907D01*
G01X103154Y108861D01*
G01X102745Y108861D01*
G01X103682Y109816D02*
G01X104046Y109362D01*
G01X104046Y108861D01*
G01X104409Y109816D02*
G01X104046Y109362D01*
G01X105773Y109816D02*
G01X105410Y108861D01*
G01X105773Y109816D02*
G01X106136Y108861D01*
G01X105544Y109179D02*
G01X105999Y109179D01*
G01X106436Y109816D02*
G01X106436Y108861D01*
G01X106436Y109816D02*
G01X107073Y108861D01*
G01X107073Y109816D02*
G01X107073Y108861D01*
G01X107690Y109816D02*
G01X107690Y108861D01*
G01X107373Y109816D02*
G01X108008Y109816D01*
G01X108582Y109816D02*
G01X108491Y109771D01*
G01X108399Y109679D01*
G01X108353Y109588D01*
G01X108308Y109453D01*
G01X108308Y109225D01*
G01X108353Y109087D01*
G01X108399Y108999D01*
G01X108491Y108907D01*
G01X108582Y108861D01*
G01X108762Y108861D01*
G01X108854Y108907D01*
G01X108945Y108999D01*
G01X108991Y109087D01*
G01X109037Y109225D01*
G01X109037Y109453D01*
G01X108991Y109588D01*
G01X108945Y109679D01*
G01X108854Y109771D01*
G01X108762Y109816D01*
G01X108582Y109816D01*
G01X109336Y109816D02*
G01X109336Y108861D01*
G01X109336Y109816D02*
G01X109971Y108861D01*
G01X109971Y109816D02*
G01X109971Y108861D01*
G01X110274Y109816D02*
G01X110274Y108861D01*
G01X110845Y109816D02*
G01X110754Y109771D01*
G01X110662Y109679D01*
G01X110619Y109588D01*
G01X110573Y109453D01*
G01X110573Y109225D01*
G01X110619Y109087D01*
G01X110662Y108999D01*
G01X110754Y108907D01*
G01X110845Y108861D01*
G01X111028Y108861D01*
G01X111117Y108907D01*
G01X111208Y108999D01*
G01X111254Y109087D01*
G01X111300Y109225D01*
G01X111300Y109453D01*
G01X111254Y109588D01*
G01X111208Y109679D01*
G01X111117Y109771D01*
G01X111028Y109816D01*
G01X110845Y109816D01*
G01X112981Y109588D02*
G01X112936Y109679D01*
G01X112844Y109771D01*
G01X112755Y109816D01*
G01X112572Y109816D01*
G01X112481Y109771D01*
G01X112392Y109679D01*
G01X112346Y109588D01*
G01X112301Y109453D01*
G01X112301Y109225D01*
G01X112346Y109087D01*
G01X112392Y108999D01*
G01X112481Y108907D01*
G01X112572Y108861D01*
G01X112755Y108861D01*
G01X112844Y108907D01*
G01X112936Y108999D01*
G01X112981Y109087D01*
G01X112981Y109225D01*
G01X112755Y109225D02*
G01X112981Y109225D01*
G01X113644Y109816D02*
G01X113281Y108861D01*
G01X113644Y109816D02*
G01X114010Y108861D01*
G01X113418Y109179D02*
G01X113873Y109179D01*
G01X114990Y109588D02*
G01X114945Y109679D01*
G01X114853Y109771D01*
G01X114764Y109816D01*
G01X114581Y109816D01*
G01X114490Y109771D01*
G01X114399Y109679D01*
G01X114355Y109588D01*
G01X114310Y109453D01*
G01X114310Y109225D01*
G01X114355Y109087D01*
G01X114399Y108999D01*
G01X114490Y108907D01*
G01X114581Y108861D01*
G01X114764Y108861D01*
G01X114853Y108907D01*
G01X114945Y108999D01*
G01X114990Y109087D01*
G01X114990Y109225D01*
G01X114764Y109225D02*
G01X114990Y109225D01*
G01X115290Y109816D02*
G01X115290Y108861D01*
G01X115290Y108861D02*
G01X115836Y108861D01*
G01X116136Y109816D02*
G01X116136Y108861D01*
G01X116799Y109816D02*
G01X116436Y108861D01*
G01X116799Y109816D02*
G01X117165Y108861D01*
G01X116573Y109179D02*
G01X117027Y109179D01*
G01X117464Y109816D02*
G01X117464Y108861D01*
G01X117464Y109816D02*
G01X117873Y109816D01*
G01X118008Y109771D01*
G01X118054Y109725D01*
G01X118099Y109634D01*
G01X118099Y109542D01*
G01X118054Y109453D01*
G01X118008Y109407D01*
G01X117873Y109362D01*
G01X117464Y109362D01*
G01X117782Y109362D02*
G01X118099Y108861D01*
G01X118399Y109816D02*
G01X118399Y108861D01*
G01X118399Y109816D02*
G01X118719Y109816D01*
G01X118854Y109771D01*
G01X118945Y109679D01*
G01X118991Y109588D01*
G01X119037Y109453D01*
G01X119037Y109225D01*
G01X118991Y109087D01*
G01X118945Y108999D01*
G01X118854Y108907D01*
G01X118719Y108861D01*
G01X118399Y108861D01*
G01X119336Y109816D02*
G01X119336Y109133D01*
G01X119382Y108999D01*
G01X119473Y108907D01*
G01X119608Y108861D01*
G01X119700Y108861D01*
G01X119837Y108907D01*
G01X119928Y108999D01*
G01X119971Y109133D01*
G01X119971Y109816D01*
G01X120954Y109588D02*
G01X120909Y109679D01*
G01X120817Y109771D01*
G01X120728Y109816D01*
G01X120545Y109816D01*
G01X120454Y109771D01*
G01X120362Y109679D01*
G01X120317Y109588D01*
G01X120274Y109453D01*
G01X120274Y109225D01*
G01X120317Y109087D01*
G01X120362Y108999D01*
G01X120454Y108907D01*
G01X120545Y108861D01*
G01X120728Y108861D01*
G01X120817Y108907D01*
G01X120909Y108999D01*
G01X120954Y109087D01*
G01X121937Y109588D02*
G01X121892Y109679D01*
G01X121800Y109771D01*
G01X121709Y109816D01*
G01X121526Y109816D01*
G01X121437Y109771D01*
G01X121345Y109679D01*
G01X121300Y109588D01*
G01X121254Y109453D01*
G01X121254Y109225D01*
G01X121300Y109087D01*
G01X121345Y108999D01*
G01X121437Y108907D01*
G01X121526Y108861D01*
G01X121709Y108861D01*
G01X121800Y108907D01*
G01X121892Y108999D01*
G01X121937Y109087D01*
G01X122237Y109816D02*
G01X122237Y108861D01*
G54D10*
G75*
G01X123001Y15860D02*
G3X122998Y15721I-8000J76D01*
G01*
G75*
G01X169001Y15860D02*
G3X168998Y15721I-8000J76D01*
G01*
G75*
G01X174999Y16139D02*
G3X175001Y16278I8000J-76D01*
G01*
G75*
G01X75499Y96138D02*
G3X75501Y96278I8000J-76D01*
G01*
G75*
G01X110805Y96138D02*
G3X110807Y96278I8000J-76D01*
G01*
G75*
G01X28003Y97137D02*
G3X28003Y97294I9000J79D01*
G01*
G75*
G01X156002Y97137D02*
G3X156002Y97294I9000J79D01*
G01*
G75*
G01X191003Y33859D02*
G3X191000Y33719I-8000J76D01*
G01*
G75*
G01X145001Y15860D02*
G3X144998Y15721I-8000J76D01*
G01*
G75*
G01X104331Y66137D02*
G03X104331Y66137I-2997J0D01*
G01*
G54D18*
G75*
G01X109334Y68143D02*
G03X109334Y68143I-1499J0D01*
G01*
G75*
G01X106820Y71648D02*
G03X106820Y71648I-1499J0D01*
G01*
G75*
G01X98844Y71648D02*
G03X98844Y71648I-1499J0D01*
G01*
G75*
G01X96406Y68143D02*
G03X96406Y68143I-1575J0D01*
G01*
G75*
G01X109360Y63876D02*
G03X109360Y63876I-1524J0D01*
G01*
G75*
G01X106769Y60625D02*
G03X106769Y60625I-1448J0D01*
G01*
G75*
G01X102832Y59380D02*
G03X102832Y59380I-1499J0D01*
G01*
G75*
G01X98946Y60625D02*
G03X98946Y60625I-1600J0D01*
G01*
G75*
G01X96406Y63876D02*
G03X96406Y63876I-1575J0D01*
G01*
G54D10*
G75*
G01X106312Y60650D02*
G03X106312Y60650I-965J0D01*
G01*
G75*
G01X102299Y59380D02*
G03X102299Y59380I-965J0D01*
G01*
G75*
G01X98260Y60650D02*
G03X98260Y60650I-965J0D01*
G01*
G75*
G01X95745Y63901D02*
G03X95745Y63901I-965J0D01*
G01*
G75*
G01X95745Y68143D02*
G03X95745Y68143I-965J0D01*
G01*
G75*
G01X98285Y71674D02*
G03X98285Y71674I-965J0D01*
G01*
G75*
G01X106312Y71674D02*
G03X106312Y71674I-965J0D01*
G01*
G75*
G01X108826Y68143D02*
G03X108826Y68143I-965J0D01*
G01*
G75*
G01X108801Y63876D02*
G03X108801Y63876I-965J0D01*
G01*
G54D19*
G75*
G01X112763Y66137D02*
G03X112763Y66137I-11430J0D01*
G01*
G54D20*
G75*
G01X103873Y66137D02*
G03X103873Y66137I-2540J0D01*
G01*
G75*
G01X110884Y66137D02*
G03X110884Y66137I-9550J0D01*
G01*
G54D10*
G75*
G01X40206Y65928D02*
G03X40206Y65928I-2997J0D01*
G01*
G54D18*
G75*
G01X45209Y67935D02*
G03X45209Y67935I-1499J0D01*
G01*
G75*
G01X42695Y71440D02*
G03X42695Y71440I-1499J0D01*
G01*
G75*
G01X34719Y71440D02*
G03X34719Y71440I-1499J0D01*
G01*
G75*
G01X32281Y67935D02*
G03X32281Y67935I-1575J0D01*
G01*
G75*
G01X45235Y63668D02*
G03X45235Y63668I-1524J0D01*
G01*
G75*
G01X42644Y60416D02*
G03X42644Y60416I-1448J0D01*
G01*
G75*
G01X38707Y59172D02*
G03X38707Y59172I-1499J0D01*
G01*
G75*
G01X34821Y60416D02*
G03X34821Y60416I-1600J0D01*
G01*
G75*
G01X32281Y63668D02*
G03X32281Y63668I-1575J0D01*
G01*
G54D10*
G75*
G01X42187Y60442D02*
G03X42187Y60442I-965J0D01*
G01*
G75*
G01X38174Y59172D02*
G03X38174Y59172I-965J0D01*
G01*
G75*
G01X34135Y60442D02*
G03X34135Y60442I-965J0D01*
G01*
G75*
G01X31620Y63693D02*
G03X31620Y63693I-965J0D01*
G01*
G75*
G01X31620Y67935D02*
G03X31620Y67935I-965J0D01*
G01*
G75*
G01X34160Y71465D02*
G03X34160Y71465I-965J0D01*
G01*
G75*
G01X42187Y71465D02*
G03X42187Y71465I-965J0D01*
G01*
G75*
G01X44701Y67935D02*
G03X44701Y67935I-965J0D01*
G01*
G75*
G01X44676Y63668D02*
G03X44676Y63668I-965J0D01*
G01*
G54D19*
G75*
G01X48638Y65928D02*
G03X48638Y65928I-11430J0D01*
G01*
G54D20*
G75*
G01X39748Y65928D02*
G03X39748Y65928I-2540J0D01*
G01*
G75*
G01X46759Y65928D02*
G03X46759Y65928I-9550J0D01*
G01*
G54D10*
G75*
G01X168206Y65928D02*
G03X168206Y65928I-2997J0D01*
G01*
G54D18*
G75*
G01X173210Y67935D02*
G03X173210Y67935I-1499J0D01*
G01*
G75*
G01X170696Y71440D02*
G03X170696Y71440I-1499J0D01*
G01*
G75*
G01X162720Y71440D02*
G03X162720Y71440I-1499J0D01*
G01*
G75*
G01X160282Y67935D02*
G03X160282Y67935I-1575J0D01*
G01*
G75*
G01X173236Y63668D02*
G03X173236Y63668I-1524J0D01*
G01*
G75*
G01X170645Y60416D02*
G03X170645Y60416I-1448J0D01*
G01*
G75*
G01X166708Y59172D02*
G03X166708Y59172I-1499J0D01*
G01*
G75*
G01X162822Y60416D02*
G03X162822Y60416I-1600J0D01*
G01*
G75*
G01X160282Y63668D02*
G03X160282Y63668I-1575J0D01*
G01*
G54D10*
G75*
G01X170188Y60442D02*
G03X170188Y60442I-965J0D01*
G01*
G75*
G01X166174Y59172D02*
G03X166174Y59172I-965J0D01*
G01*
G75*
G01X162136Y60442D02*
G03X162136Y60442I-965J0D01*
G01*
G75*
G01X159621Y63693D02*
G03X159621Y63693I-965J0D01*
G01*
G75*
G01X159621Y67935D02*
G03X159621Y67935I-965J0D01*
G01*
G75*
G01X162161Y71465D02*
G03X162161Y71465I-965J0D01*
G01*
G75*
G01X170188Y71465D02*
G03X170188Y71465I-965J0D01*
G01*
G75*
G01X172702Y67935D02*
G03X172702Y67935I-965J0D01*
G01*
G75*
G01X172677Y63668D02*
G03X172677Y63668I-965J0D01*
G01*
G54D19*
G75*
G01X176639Y65928D02*
G03X176639Y65928I-11430J0D01*
G01*
G54D20*
G75*
G01X167749Y65928D02*
G03X167749Y65928I-2540J0D01*
G01*
G75*
G01X174760Y65928D02*
G03X174760Y65928I-9550J0D01*
G01*

%LPD*%
G36*
G01X121095Y10729D02*
G01X108903Y10729D01*
G01X108903Y10729D01*
G01X108996Y10623D01*
G01X109091Y10518D01*
G01X109188Y10416D01*
G01X109287Y10315D01*
G01X109387Y10215D01*
G01X109489Y10118D01*
G01X109593Y10022D01*
G01X109698Y9928D01*
G01X109805Y9836D01*
G01X109914Y9746D01*
G01X110024Y9657D01*
G01X110135Y9571D01*
G01X110249Y9487D01*
G01X110363Y9405D01*
G01X110479Y9324D01*
G01X110597Y9246D01*
G01X110716Y9170D01*
G01X110836Y9096D01*
G01X110957Y9024D01*
G01X111080Y8954D01*
G01X111204Y8886D01*
G01X111329Y8821D01*
G01X111455Y8757D01*
G01X111582Y8696D01*
G01X111711Y8638D01*
G01X111840Y8581D01*
G01X111970Y8527D01*
G01X112102Y8475D01*
G01X112234Y8425D01*
G01X112367Y8378D01*
G01X112500Y8333D01*
G01X112635Y8290D01*
G01X112770Y8250D01*
G01X112906Y8212D01*
G01X113043Y8176D01*
G01X113180Y8143D01*
G01X113318Y8113D01*
G01X113456Y8084D01*
G01X113595Y8058D01*
G01X113734Y8035D01*
G01X113874Y8014D01*
G01X114014Y7996D01*
G01X114154Y7979D01*
G01X114294Y7966D01*
G01X114435Y7955D01*
G01X114576Y7946D01*
G01X114717Y7940D01*
G01X114858Y7936D01*
G01X114999Y7935D01*
G01X115140Y7936D01*
G01X115282Y7940D01*
G01X115423Y7946D01*
G01X115563Y7955D01*
G01X115704Y7966D01*
G01X115845Y7979D01*
G01X115985Y7996D01*
G01X116125Y8014D01*
G01X116264Y8035D01*
G01X116404Y8058D01*
G01X116542Y8084D01*
G01X116681Y8113D01*
G01X116818Y8143D01*
G01X116956Y8176D01*
G01X117092Y8212D01*
G01X117228Y8250D01*
G01X117364Y8290D01*
G01X117498Y8333D01*
G01X117632Y8378D01*
G01X117765Y8425D01*
G01X117897Y8475D01*
G01X118028Y8527D01*
G01X118159Y8581D01*
G01X118288Y8638D01*
G01X118416Y8696D01*
G01X118543Y8757D01*
G01X118670Y8821D01*
G01X118795Y8886D01*
G01X118919Y8954D01*
G01X119041Y9024D01*
G01X119163Y9096D01*
G01X119283Y9170D01*
G01X119402Y9246D01*
G01X119519Y9324D01*
G01X119635Y9405D01*
G01X119750Y9487D01*
G01X119863Y9571D01*
G01X119975Y9657D01*
G01X120085Y9746D01*
G01X120194Y9836D01*
G01X120301Y9928D01*
G01X120406Y10022D01*
G01X120510Y10118D01*
G01X120612Y10215D01*
G01X120712Y10315D01*
G01X120811Y10416D01*
G01X120907Y10518D01*
G01X121002Y10623D01*
G01X121095Y10729D01*
G37*

%LPD*%
G36*
G01X167095Y10729D02*
G01X154903Y10729D01*
G01X154903Y10729D01*
G01X154996Y10623D01*
G01X155091Y10518D01*
G01X155188Y10416D01*
G01X155286Y10315D01*
G01X155387Y10215D01*
G01X155489Y10118D01*
G01X155592Y10022D01*
G01X155698Y9928D01*
G01X155805Y9836D01*
G01X155913Y9746D01*
G01X156024Y9657D01*
G01X156135Y9571D01*
G01X156249Y9487D01*
G01X156363Y9405D01*
G01X156479Y9324D01*
G01X156597Y9246D01*
G01X156716Y9170D01*
G01X156836Y9096D01*
G01X156957Y9024D01*
G01X157080Y8954D01*
G01X157204Y8886D01*
G01X157329Y8821D01*
G01X157455Y8757D01*
G01X157582Y8696D01*
G01X157711Y8638D01*
G01X157840Y8581D01*
G01X157970Y8527D01*
G01X158101Y8475D01*
G01X158234Y8425D01*
G01X158367Y8378D01*
G01X158500Y8333D01*
G01X158635Y8290D01*
G01X158770Y8250D01*
G01X158906Y8212D01*
G01X159043Y8176D01*
G01X159180Y8143D01*
G01X159318Y8113D01*
G01X159456Y8084D01*
G01X159595Y8058D01*
G01X159734Y8035D01*
G01X159874Y8014D01*
G01X160014Y7996D01*
G01X160154Y7979D01*
G01X160294Y7966D01*
G01X160435Y7955D01*
G01X160576Y7946D01*
G01X160717Y7940D01*
G01X160858Y7936D01*
G01X160999Y7935D01*
G01X161140Y7936D01*
G01X161281Y7940D01*
G01X161422Y7946D01*
G01X161563Y7955D01*
G01X161704Y7966D01*
G01X161845Y7979D01*
G01X161985Y7996D01*
G01X162125Y8014D01*
G01X162264Y8035D01*
G01X162404Y8058D01*
G01X162542Y8084D01*
G01X162681Y8113D01*
G01X162818Y8143D01*
G01X162956Y8176D01*
G01X163092Y8212D01*
G01X163228Y8250D01*
G01X163363Y8290D01*
G01X163498Y8333D01*
G01X163632Y8378D01*
G01X163765Y8425D01*
G01X163897Y8475D01*
G01X164028Y8527D01*
G01X164158Y8581D01*
G01X164288Y8638D01*
G01X164416Y8696D01*
G01X164543Y8757D01*
G01X164670Y8821D01*
G01X164795Y8886D01*
G01X164918Y8954D01*
G01X165041Y9024D01*
G01X165163Y9096D01*
G01X165283Y9170D01*
G01X165402Y9246D01*
G01X165519Y9324D01*
G01X165635Y9405D01*
G01X165750Y9487D01*
G01X165863Y9571D01*
G01X165975Y9657D01*
G01X166085Y9746D01*
G01X166193Y9836D01*
G01X166300Y9928D01*
G01X166406Y10022D01*
G01X166510Y10118D01*
G01X166612Y10215D01*
G01X166712Y10315D01*
G01X166810Y10416D01*
G01X166907Y10518D01*
G01X167002Y10623D01*
G01X167095Y10729D01*
G37*

%LPD*%
G36*
G01X176903Y21269D02*
G01X189095Y21269D01*
G01X189095Y21269D01*
G01X189002Y21375D01*
G01X188907Y21480D01*
G01X188810Y21582D01*
G01X188712Y21683D01*
G01X188612Y21783D01*
G01X188510Y21880D01*
G01X188406Y21976D01*
G01X188300Y22070D01*
G01X188193Y22162D01*
G01X188085Y22252D01*
G01X187975Y22340D01*
G01X187863Y22427D01*
G01X187750Y22511D01*
G01X187635Y22593D01*
G01X187519Y22674D01*
G01X187402Y22752D01*
G01X187283Y22828D01*
G01X187163Y22902D01*
G01X187041Y22974D01*
G01X186918Y23044D01*
G01X186795Y23112D01*
G01X186670Y23177D01*
G01X186543Y23240D01*
G01X186416Y23301D01*
G01X186288Y23360D01*
G01X186158Y23417D01*
G01X186028Y23471D01*
G01X185897Y23523D01*
G01X185765Y23573D01*
G01X185632Y23620D01*
G01X185498Y23665D01*
G01X185363Y23708D01*
G01X185228Y23748D01*
G01X185092Y23786D01*
G01X184956Y23822D01*
G01X184818Y23855D01*
G01X184681Y23885D01*
G01X184542Y23914D01*
G01X184403Y23939D01*
G01X184264Y23963D01*
G01X184125Y23984D01*
G01X183985Y24002D01*
G01X183845Y24018D01*
G01X183704Y24032D01*
G01X183563Y24043D01*
G01X183422Y24052D01*
G01X183281Y24058D01*
G01X183140Y24062D01*
G01X182999Y24063D01*
G01X182858Y24062D01*
G01X182717Y24058D01*
G01X182576Y24052D01*
G01X182435Y24043D01*
G01X182294Y24032D01*
G01X182154Y24018D01*
G01X182014Y24002D01*
G01X181874Y23984D01*
G01X181734Y23963D01*
G01X181595Y23939D01*
G01X181456Y23914D01*
G01X181318Y23885D01*
G01X181180Y23855D01*
G01X181043Y23822D01*
G01X180906Y23786D01*
G01X180770Y23748D01*
G01X180635Y23708D01*
G01X180500Y23665D01*
G01X180367Y23620D01*
G01X180234Y23573D01*
G01X180101Y23523D01*
G01X179970Y23471D01*
G01X179840Y23417D01*
G01X179711Y23360D01*
G01X179582Y23301D01*
G01X179455Y23240D01*
G01X179329Y23177D01*
G01X179204Y23112D01*
G01X179080Y23044D01*
G01X178957Y22974D01*
G01X178836Y22902D01*
G01X178716Y22828D01*
G01X178597Y22752D01*
G01X178479Y22674D01*
G01X178363Y22593D01*
G01X178249Y22511D01*
G01X178135Y22427D01*
G01X178024Y22340D01*
G01X177913Y22252D01*
G01X177805Y22162D01*
G01X177698Y22070D01*
G01X177592Y21976D01*
G01X177489Y21880D01*
G01X177387Y21783D01*
G01X177286Y21683D01*
G01X177188Y21582D01*
G01X177091Y21480D01*
G01X176996Y21375D01*
G01X176903Y21269D01*
G37*

%LPD*%
G36*
G01X77403Y101269D02*
G01X89595Y101269D01*
G01X89595Y101269D01*
G01X89502Y101375D01*
G01X89407Y101479D01*
G01X89311Y101582D01*
G01X89212Y101683D01*
G01X89112Y101783D01*
G01X89010Y101880D01*
G01X88906Y101976D01*
G01X88801Y102070D01*
G01X88694Y102162D01*
G01X88585Y102252D01*
G01X88475Y102340D01*
G01X88363Y102427D01*
G01X88250Y102511D01*
G01X88135Y102593D01*
G01X88019Y102674D01*
G01X87902Y102752D01*
G01X87783Y102828D01*
G01X87663Y102902D01*
G01X87541Y102974D01*
G01X87419Y103044D01*
G01X87295Y103112D01*
G01X87170Y103177D01*
G01X87044Y103240D01*
G01X86916Y103301D01*
G01X86788Y103360D01*
G01X86659Y103417D01*
G01X86528Y103471D01*
G01X86397Y103523D01*
G01X86265Y103573D01*
G01X86132Y103620D01*
G01X85998Y103665D01*
G01X85864Y103708D01*
G01X85728Y103748D01*
G01X85592Y103786D01*
G01X85456Y103821D01*
G01X85319Y103854D01*
G01X85181Y103885D01*
G01X85042Y103913D01*
G01X84904Y103939D01*
G01X84764Y103963D01*
G01X84625Y103984D01*
G01X84485Y104002D01*
G01X84345Y104018D01*
G01X84204Y104032D01*
G01X84064Y104043D01*
G01X83923Y104052D01*
G01X83782Y104058D01*
G01X83640Y104062D01*
G01X83499Y104063D01*
G01X83358Y104062D01*
G01X83217Y104058D01*
G01X83076Y104052D01*
G01X82935Y104043D01*
G01X82794Y104032D01*
G01X82654Y104018D01*
G01X82514Y104002D01*
G01X82374Y103984D01*
G01X82234Y103963D01*
G01X82095Y103939D01*
G01X81956Y103913D01*
G01X81818Y103885D01*
G01X81680Y103854D01*
G01X81543Y103821D01*
G01X81406Y103786D01*
G01X81270Y103748D01*
G01X81135Y103708D01*
G01X81000Y103665D01*
G01X80867Y103620D01*
G01X80734Y103573D01*
G01X80602Y103523D01*
G01X80470Y103471D01*
G01X80340Y103417D01*
G01X80211Y103360D01*
G01X80082Y103301D01*
G01X79955Y103240D01*
G01X79829Y103177D01*
G01X79704Y103112D01*
G01X79580Y103044D01*
G01X79457Y102974D01*
G01X79336Y102902D01*
G01X79216Y102828D01*
G01X79097Y102752D01*
G01X78979Y102674D01*
G01X78863Y102593D01*
G01X78749Y102511D01*
G01X78636Y102427D01*
G01X78524Y102340D01*
G01X78414Y102252D01*
G01X78305Y102162D01*
G01X78198Y102070D01*
G01X78093Y101976D01*
G01X77989Y101880D01*
G01X77887Y101783D01*
G01X77787Y101683D01*
G01X77688Y101582D01*
G01X77591Y101479D01*
G01X77496Y101375D01*
G01X77403Y101269D01*
G37*

%LPD*%
G36*
G01X112709Y101269D02*
G01X124901Y101269D01*
G01X124901Y101269D01*
G01X124808Y101375D01*
G01X124713Y101479D01*
G01X124617Y101582D01*
G01X124518Y101683D01*
G01X124418Y101783D01*
G01X124316Y101880D01*
G01X124212Y101976D01*
G01X124107Y102070D01*
G01X124000Y102162D01*
G01X123891Y102252D01*
G01X123781Y102340D01*
G01X123669Y102427D01*
G01X123556Y102511D01*
G01X123441Y102593D01*
G01X123325Y102674D01*
G01X123208Y102752D01*
G01X123089Y102828D01*
G01X122969Y102902D01*
G01X122847Y102974D01*
G01X122725Y103044D01*
G01X122601Y103112D01*
G01X122476Y103177D01*
G01X122350Y103240D01*
G01X122222Y103301D01*
G01X122094Y103360D01*
G01X121965Y103417D01*
G01X121834Y103471D01*
G01X121703Y103523D01*
G01X121571Y103573D01*
G01X121438Y103620D01*
G01X121304Y103665D01*
G01X121170Y103708D01*
G01X121034Y103748D01*
G01X120898Y103786D01*
G01X120762Y103821D01*
G01X120625Y103854D01*
G01X120487Y103885D01*
G01X120348Y103913D01*
G01X120210Y103939D01*
G01X120070Y103963D01*
G01X119931Y103984D01*
G01X119791Y104002D01*
G01X119651Y104018D01*
G01X119510Y104032D01*
G01X119370Y104043D01*
G01X119229Y104052D01*
G01X119088Y104058D01*
G01X118946Y104062D01*
G01X118805Y104063D01*
G01X118664Y104062D01*
G01X118523Y104058D01*
G01X118382Y104052D01*
G01X118241Y104043D01*
G01X118100Y104032D01*
G01X117960Y104018D01*
G01X117820Y104002D01*
G01X117680Y103984D01*
G01X117540Y103963D01*
G01X117401Y103939D01*
G01X117262Y103913D01*
G01X117124Y103885D01*
G01X116986Y103854D01*
G01X116849Y103821D01*
G01X116712Y103786D01*
G01X116576Y103748D01*
G01X116441Y103708D01*
G01X116306Y103665D01*
G01X116173Y103620D01*
G01X116040Y103573D01*
G01X115908Y103523D01*
G01X115776Y103471D01*
G01X115646Y103417D01*
G01X115517Y103360D01*
G01X115388Y103301D01*
G01X115261Y103240D01*
G01X115135Y103177D01*
G01X115010Y103112D01*
G01X114886Y103044D01*
G01X114763Y102974D01*
G01X114642Y102902D01*
G01X114522Y102828D01*
G01X114403Y102752D01*
G01X114285Y102674D01*
G01X114169Y102593D01*
G01X114055Y102511D01*
G01X113942Y102427D01*
G01X113830Y102340D01*
G01X113720Y102252D01*
G01X113611Y102162D01*
G01X113504Y102070D01*
G01X113399Y101976D01*
G01X113295Y101880D01*
G01X113193Y101783D01*
G01X113093Y101683D01*
G01X112994Y101582D01*
G01X112897Y101479D01*
G01X112802Y101375D01*
G01X112709Y101269D01*
G37*

%LPD*%
G36*
G01X29751Y102497D02*
G01X44251Y102497D01*
G01X44251Y102497D01*
G01X44160Y102623D01*
G01X44067Y102748D01*
G01X43972Y102871D01*
G01X43874Y102992D01*
G01X43775Y103112D01*
G01X43673Y103230D01*
G01X43569Y103345D01*
G01X43463Y103460D01*
G01X43356Y103572D01*
G01X43246Y103682D01*
G01X43134Y103791D01*
G01X43021Y103897D01*
G01X42905Y104002D01*
G01X42788Y104104D01*
G01X42669Y104204D01*
G01X42549Y104302D01*
G01X42426Y104399D01*
G01X42302Y104493D01*
G01X42176Y104584D01*
G01X42049Y104674D01*
G01X41920Y104761D01*
G01X41790Y104846D01*
G01X41658Y104929D01*
G01X41525Y105009D01*
G01X41390Y105087D01*
G01X41254Y105163D01*
G01X41117Y105236D01*
G01X40979Y105307D01*
G01X40839Y105376D01*
G01X40698Y105442D01*
G01X40556Y105505D01*
G01X40413Y105566D01*
G01X40269Y105625D01*
G01X40123Y105681D01*
G01X39977Y105734D01*
G01X39830Y105785D01*
G01X39682Y105833D01*
G01X39533Y105879D01*
G01X39384Y105922D01*
G01X39234Y105962D01*
G01X39083Y106000D01*
G01X38931Y106035D01*
G01X38779Y106068D01*
G01X38626Y106097D01*
G01X38473Y106125D01*
G01X38319Y106149D01*
G01X38165Y106171D01*
G01X38011Y106190D01*
G01X37856Y106206D01*
G01X37701Y106220D01*
G01X37546Y106231D01*
G01X37390Y106239D01*
G01X37235Y106244D01*
G01X37079Y106247D01*
G01X36924Y106247D01*
G01X36768Y106244D01*
G01X36613Y106239D01*
G01X36457Y106231D01*
G01X36302Y106220D01*
G01X36147Y106206D01*
G01X35992Y106190D01*
G01X35838Y106171D01*
G01X35684Y106149D01*
G01X35530Y106125D01*
G01X35377Y106097D01*
G01X35224Y106068D01*
G01X35072Y106035D01*
G01X34920Y106000D01*
G01X34769Y105962D01*
G01X34619Y105922D01*
G01X34469Y105879D01*
G01X34321Y105833D01*
G01X34173Y105785D01*
G01X34026Y105734D01*
G01X33880Y105681D01*
G01X33734Y105625D01*
G01X33590Y105566D01*
G01X33447Y105505D01*
G01X33305Y105442D01*
G01X33164Y105376D01*
G01X33024Y105307D01*
G01X32886Y105236D01*
G01X32748Y105163D01*
G01X32613Y105087D01*
G01X32478Y105009D01*
G01X32345Y104929D01*
G01X32213Y104846D01*
G01X32083Y104761D01*
G01X31954Y104674D01*
G01X31826Y104584D01*
G01X31701Y104493D01*
G01X31577Y104399D01*
G01X31454Y104302D01*
G01X31334Y104204D01*
G01X31215Y104104D01*
G01X31098Y104002D01*
G01X30982Y103897D01*
G01X30869Y103791D01*
G01X30757Y103682D01*
G01X30647Y103572D01*
G01X30540Y103460D01*
G01X30434Y103345D01*
G01X30330Y103230D01*
G01X30228Y103112D01*
G01X30129Y102992D01*
G01X30031Y102871D01*
G01X29936Y102748D01*
G01X29842Y102623D01*
G01X29751Y102497D01*
G37*

%LPD*%
G36*
G01X157751Y102497D02*
G01X172251Y102497D01*
G01X172251Y102497D01*
G01X172160Y102623D01*
G01X172067Y102748D01*
G01X171972Y102871D01*
G01X171874Y102992D01*
G01X171774Y103112D01*
G01X171673Y103230D01*
G01X171569Y103345D01*
G01X171463Y103460D01*
G01X171355Y103572D01*
G01X171246Y103682D01*
G01X171134Y103791D01*
G01X171020Y103897D01*
G01X170905Y104002D01*
G01X170788Y104104D01*
G01X170669Y104204D01*
G01X170548Y104302D01*
G01X170426Y104399D01*
G01X170302Y104493D01*
G01X170176Y104584D01*
G01X170049Y104674D01*
G01X169920Y104761D01*
G01X169790Y104846D01*
G01X169658Y104929D01*
G01X169525Y105009D01*
G01X169390Y105087D01*
G01X169254Y105163D01*
G01X169117Y105236D01*
G01X168978Y105307D01*
G01X168839Y105376D01*
G01X168698Y105442D01*
G01X168556Y105505D01*
G01X168412Y105566D01*
G01X168268Y105625D01*
G01X168123Y105681D01*
G01X167977Y105734D01*
G01X167830Y105785D01*
G01X167682Y105833D01*
G01X167533Y105879D01*
G01X167384Y105922D01*
G01X167233Y105962D01*
G01X167082Y106000D01*
G01X166931Y106035D01*
G01X166779Y106068D01*
G01X166626Y106097D01*
G01X166473Y106125D01*
G01X166319Y106149D01*
G01X166165Y106171D01*
G01X166010Y106190D01*
G01X165856Y106206D01*
G01X165701Y106220D01*
G01X165545Y106231D01*
G01X165390Y106239D01*
G01X165235Y106244D01*
G01X165079Y106247D01*
G01X164923Y106247D01*
G01X164768Y106244D01*
G01X164612Y106239D01*
G01X164457Y106231D01*
G01X164302Y106220D01*
G01X164147Y106206D01*
G01X163992Y106190D01*
G01X163837Y106171D01*
G01X163683Y106149D01*
G01X163530Y106125D01*
G01X163376Y106097D01*
G01X163224Y106068D01*
G01X163072Y106035D01*
G01X162920Y106000D01*
G01X162769Y105962D01*
G01X162619Y105922D01*
G01X162469Y105879D01*
G01X162320Y105833D01*
G01X162173Y105785D01*
G01X162025Y105734D01*
G01X161879Y105681D01*
G01X161734Y105625D01*
G01X161590Y105566D01*
G01X161447Y105505D01*
G01X161305Y105442D01*
G01X161164Y105376D01*
G01X161024Y105307D01*
G01X160885Y105236D01*
G01X160748Y105163D01*
G01X160612Y105087D01*
G01X160478Y105009D01*
G01X160344Y104929D01*
G01X160213Y104846D01*
G01X160082Y104761D01*
G01X159953Y104674D01*
G01X159826Y104584D01*
G01X159701Y104493D01*
G01X159576Y104399D01*
G01X159454Y104302D01*
G01X159333Y104204D01*
G01X159214Y104104D01*
G01X159097Y104002D01*
G01X158982Y103897D01*
G01X158868Y103791D01*
G01X158757Y103682D01*
G01X158647Y103572D01*
G01X158539Y103460D01*
G01X158434Y103345D01*
G01X158330Y103230D01*
G01X158228Y103112D01*
G01X158128Y102992D01*
G01X158031Y102871D01*
G01X157935Y102748D01*
G01X157842Y102623D01*
G01X157751Y102497D01*
G01X157751Y102497D01*
G37*

%LPD*%
G36*
G01X189097Y28727D02*
G01X176905Y28727D01*
G01X176905Y28727D01*
G01X176998Y28621D01*
G01X177093Y28517D01*
G01X177190Y28414D01*
G01X177288Y28313D01*
G01X177389Y28214D01*
G01X177491Y28116D01*
G01X177594Y28020D01*
G01X177700Y27926D01*
G01X177807Y27834D01*
G01X177915Y27744D01*
G01X178026Y27656D01*
G01X178137Y27570D01*
G01X178251Y27485D01*
G01X178365Y27403D01*
G01X178481Y27323D01*
G01X178599Y27244D01*
G01X178718Y27168D01*
G01X178838Y27094D01*
G01X178959Y27022D01*
G01X179082Y26952D01*
G01X179206Y26885D01*
G01X179331Y26819D01*
G01X179457Y26756D01*
G01X179584Y26695D01*
G01X179713Y26636D01*
G01X179842Y26579D01*
G01X179972Y26525D01*
G01X180103Y26473D01*
G01X180236Y26424D01*
G01X180369Y26376D01*
G01X180502Y26331D01*
G01X180637Y26289D01*
G01X180772Y26248D01*
G01X180908Y26210D01*
G01X181045Y26175D01*
G01X181182Y26142D01*
G01X181320Y26111D01*
G01X181458Y26083D01*
G01X181597Y26057D01*
G01X181736Y26033D01*
G01X181876Y26013D01*
G01X182016Y25994D01*
G01X182156Y25978D01*
G01X182296Y25964D01*
G01X182437Y25953D01*
G01X182578Y25945D01*
G01X182719Y25938D01*
G01X182860Y25935D01*
G01X183001Y25933D01*
G01X183142Y25935D01*
G01X183283Y25938D01*
G01X183424Y25945D01*
G01X183565Y25953D01*
G01X183706Y25964D01*
G01X183847Y25978D01*
G01X183987Y25994D01*
G01X184127Y26013D01*
G01X184266Y26033D01*
G01X184406Y26057D01*
G01X184544Y26083D01*
G01X184683Y26111D01*
G01X184820Y26142D01*
G01X184958Y26175D01*
G01X185094Y26210D01*
G01X185230Y26248D01*
G01X185365Y26289D01*
G01X185500Y26331D01*
G01X185634Y26376D01*
G01X185767Y26424D01*
G01X185899Y26473D01*
G01X186030Y26525D01*
G01X186160Y26579D01*
G01X186290Y26636D01*
G01X186418Y26695D01*
G01X186545Y26756D01*
G01X186672Y26819D01*
G01X186797Y26885D01*
G01X186920Y26952D01*
G01X187043Y27022D01*
G01X187165Y27094D01*
G01X187285Y27168D01*
G01X187404Y27244D01*
G01X187521Y27323D01*
G01X187637Y27403D01*
G01X187752Y27485D01*
G01X187865Y27570D01*
G01X187977Y27656D01*
G01X188087Y27744D01*
G01X188195Y27834D01*
G01X188302Y27926D01*
G01X188408Y28020D01*
G01X188512Y28116D01*
G01X188614Y28214D01*
G01X188714Y28313D01*
G01X188812Y28414D01*
G01X188909Y28517D01*
G01X189004Y28621D01*
G01X189097Y28727D01*
G37*

%LPD*%
G36*
G01X143095Y10729D02*
G01X130903Y10729D01*
G01X130903Y10729D01*
G01X130996Y10623D01*
G01X131091Y10518D01*
G01X131188Y10416D01*
G01X131287Y10315D01*
G01X131387Y10215D01*
G01X131489Y10118D01*
G01X131593Y10022D01*
G01X131698Y9928D01*
G01X131805Y9836D01*
G01X131914Y9746D01*
G01X132024Y9657D01*
G01X132135Y9571D01*
G01X132249Y9487D01*
G01X132363Y9405D01*
G01X132479Y9324D01*
G01X132597Y9246D01*
G01X132716Y9170D01*
G01X132836Y9096D01*
G01X132957Y9024D01*
G01X133080Y8954D01*
G01X133204Y8886D01*
G01X133329Y8821D01*
G01X133455Y8757D01*
G01X133582Y8696D01*
G01X133711Y8638D01*
G01X133840Y8581D01*
G01X133970Y8527D01*
G01X134101Y8475D01*
G01X134234Y8425D01*
G01X134367Y8378D01*
G01X134500Y8333D01*
G01X134635Y8290D01*
G01X134770Y8250D01*
G01X134906Y8212D01*
G01X135043Y8176D01*
G01X135180Y8143D01*
G01X135318Y8113D01*
G01X135456Y8084D01*
G01X135595Y8058D01*
G01X135734Y8035D01*
G01X135874Y8014D01*
G01X136014Y7996D01*
G01X136154Y7979D01*
G01X136294Y7966D01*
G01X136435Y7955D01*
G01X136576Y7946D01*
G01X136717Y7940D01*
G01X136858Y7936D01*
G01X136999Y7935D01*
G01X137140Y7936D01*
G01X137281Y7940D01*
G01X137423Y7946D01*
G01X137563Y7955D01*
G01X137704Y7966D01*
G01X137845Y7979D01*
G01X137985Y7996D01*
G01X138125Y8014D01*
G01X138264Y8035D01*
G01X138404Y8058D01*
G01X138542Y8084D01*
G01X138681Y8113D01*
G01X138818Y8143D01*
G01X138956Y8176D01*
G01X139092Y8212D01*
G01X139228Y8250D01*
G01X139364Y8290D01*
G01X139498Y8333D01*
G01X139632Y8378D01*
G01X139765Y8425D01*
G01X139897Y8475D01*
G01X140028Y8527D01*
G01X140159Y8581D01*
G01X140288Y8638D01*
G01X140416Y8696D01*
G01X140543Y8757D01*
G01X140670Y8821D01*
G01X140795Y8886D01*
G01X140919Y8954D01*
G01X141041Y9024D01*
G01X141163Y9096D01*
G01X141283Y9170D01*
G01X141402Y9246D01*
G01X141519Y9324D01*
G01X141635Y9405D01*
G01X141750Y9487D01*
G01X141863Y9571D01*
G01X141975Y9657D01*
G01X142085Y9746D01*
G01X142194Y9836D01*
G01X142301Y9928D01*
G01X142406Y10022D01*
G01X142510Y10118D01*
G01X142612Y10215D01*
G01X142712Y10315D01*
G01X142810Y10416D01*
G01X142907Y10518D01*
G01X143002Y10623D01*
G01X143095Y10729D01*
G37*
M00*
M02*
